<?xml version="1.0" encoding="UTF-8"?>
<svg id="Layer_2" data-name="Layer 2" xmlns="http://www.w3.org/2000/svg" viewBox="0 0 823.9 247.64">
  <defs>
    <style>
      .cls-1 {
        fill: #0c5223;
      }

      .cls-2 {
        fill: #41b852;
      }

      .cls-3 {
        fill: #6e9b81;
      }

      .cls-4 {
        fill: #044d1c;
      }

      .cls-5 {
        fill: #3ab54b;
      }
    </style>
  </defs>
  <g id="Layer_1-2" data-name="Layer 1">
    <g>
      <polygon class="cls-5" points="254.56 109.42 137.07 109.42 137.07 0 252.83 0 254.56 1.73 254.56 109.42"/>
      <path class="cls-2" d="M117.49,129.01v118.64h-54.14v-27.64c5.23,2.14,8.65,6.28,14.33,8.13,2.01.65,13.79,2.91,14.46,2.24l-.15-9.06c-13.26-.6-27.91-10.7-28.67-24.92-.1-1.81-.2-1.98,1.73-1.72,7.56,6.18,16.46,10.17,26.43,9.22l.17-8.17c-11.52-2.07-20.76-5.41-25.85-16.77-.55-1.22-4.97-12.61-.74-10.79,6.58,7.32,17.31,10.65,27.09,10.36l.06-8.55c-12.17-2.23-19.71-4.4-25.88-15.75-3.23-5.95-.27-9.35-10.52-8.03-2.73.35-2.91,5.24-4.52,8.19-6.15,11.26-13.06,12.74-24.88,15.63l.07,8.52c4.81.28,9.65-.93,14.14-2.57s7.98-5.33,10.81-6.47c6.46-2.6-.68,11.68-1.69,13.29-4.92,7.79-14.08,12.39-23.27,11.87v9.22c4.84.37,9.23-.22,13.8-1.77,4.84-1.64,9.04-6.24,12.15-7.44,4.2-1.63-.13,9.49-.74,10.79-4.75,10.16-14.12,14.2-24.7,15.61l-.5,9.29c.9.9,12.03-1.79,14.14-2.56,5.29-1.93,8.53-5.84,13.5-7.81v27.64H0v-118.64h117.49Z"/>
      <polygon class="cls-4" points="254.56 129.01 254.56 201.57 137.64 201.57 135.92 199.84 135.92 130.73 137.64 129.01 254.56 129.01"/>
      <path class="cls-4" d="M617.38,82.93c-1.52,12.29-4.44,24.49-5.11,36.93l-13.45.41-13.7-86.88c3.17.31,6.8-.42,9.86-.06,3.26.38,3.98,1.13,4.84,4.37,1,3.76,3.58,37.17,5.45,37.17l6.26-40.98c4.01-.49,12.28-2.22,14.21,2.07l6.03,38.91,5.69-40.39c1.15-1.71,12.72-1.76,13.97,0l-12.69,85.38-13.2.96c-2.37-12.52-4.35-25.23-5.88-37.89-.36-3.01,1.69-9.11-2.3-8.06-.24,2.6.31,5.53,0,8.06Z"/>
      <path class="cls-4" d="M63.35,109.42H27.07c-9.49,0-27.07-16.31-27.07-25.92v-37.43h33.98c12.87,0,29.37,17.77,29.37,30.52v32.83Z"/>
      <path class="cls-4" d="M308.69,119.21c-.86,2.79-11.23,1.9-13.9,1.23l-.92-1.39.34-84.57,15.46-.92,16.29,52.82v-51.26c3.34-3.38,9.38-1.13,13.82-1.73v87.54c-4.19-.67-12.27,1.76-14.87-1.83l-16.22-47.7v47.8Z"/>
      <polygon class="cls-1" points="254.56 221.15 254.56 247.64 137.64 247.64 135.92 245.92 135.92 221.15 254.56 221.15"/>
      <path class="cls-4" d="M438.27,33.4c17.88,2.39,19.66,21.23,17.55,35.98-.95,6.63-4.53,9.6-6.61,15.14l9.1,34.6c-.77,3.18-11.74,1.51-14.75,1.71l-7.57-31.01-7.52-1.12v30.52c-3.13,2.76-11.72,2.8-14.97,0V35.13l1.73-1.73c7.26.69,16.01-.94,23.04,0ZM427.33,74.87c7.66-.08,14.12,2.08,15.05-7.42,1.2-12.38.86-25.44-15.05-18.5v25.92Z"/>
      <path class="cls-1" d="M540.21,33.4v36.86h14.97v-36.86c4.44.6,10.48-1.65,13.82,1.73v85.81h-13.82v-36.86h-14.97v36.86h-13.82V33.4h13.82Z"/>
      <path class="cls-1" d="M742.69,32.5c13.52-1.36,22.25,9.68,23.32,22.17.88,10.21,1.23,44.17-1.52,52.7-7.03,21.8-39.13,17.87-41.19-5.39-.94-10.61-1.44-44.19.56-53.67,1.63-7.75,11-15.03,18.83-15.82ZM742.64,46.25c-3.15.57-4.92,3.22-5.39,6.23-1.28,8.12-1.23,40-.13,48.36s11.44,8.81,13.85,1.06c-1.25-15.31,1.78-33.42.05-48.37-.55-4.72-3.17-8.23-8.38-7.28Z"/>
      <path class="cls-1" d="M375.26,32.5c13.52-1.36,22.25,9.68,23.32,22.17.88,10.21,1.23,44.17-1.52,52.7-7.07,21.91-39.16,17.61-41.19-5.39-.94-10.61-1.44-44.19.56-53.67,1.63-7.75,11-15.03,18.83-15.82ZM375.2,46.25c-3.15.57-4.92,3.22-5.39,6.23-1.28,8.12-1.23,40-.13,48.36,1.07,8.13,11.44,8.81,13.85,1.06-1.25-15.31,1.78-33.42.05-48.37-.55-4.72-3.17-8.23-8.38-7.28Z"/>
      <path class="cls-4" d="M782.1,120.94V33.4h22.46c8.09,0,17.13,9.7,17.91,17.8.96,9.98,1.47,46.28-.32,55.08-1.25,6.14-11.47,14.66-17.59,14.66h-22.46ZM794.77,107.12c8.57.1,14.1,1.47,15.03-8.59,1.35-14.63-.69-31.9-.56-46.77-1.77-5.33-9.77-4.59-14.47-4.54v59.9Z"/>
      <path class="cls-1" d="M671.92,115.93c-3.11-2.92-5.7-8.56-6.16-12.84-1.14-10.62-1.42-43.86.28-53.86,3.62-21.24,36.75-21.76,40.93-1.17,1.49,7.36,1.42,49.4.19,57.26-2.48,15.88-24.29,20.87-35.24,10.61ZM685.04,46.25c-3.35.6-6.03,4.11-6.54,7.38-1.36,8.75-.96,34.4-.11,43.75,1.02,11.31,9.33,14.26,14.99,4.53-1.01-15.22,1.45-32.27.08-47.25-.47-5.17-2.39-9.48-8.41-8.41Z"/>
      <polygon class="cls-2" points="731.41 143.98 745.84 145.1 759.06 187.75 759.06 143.98 771.73 143.98 771.73 220 758.02 219.88 744.08 177.38 744.08 220 731.41 220 731.41 143.98"/>
      <polygon class="cls-2" points="393.93 143.98 408.34 145.11 422.72 190.05 422.72 143.98 434.24 143.98 434.24 220 420.98 218.87 406.6 176.23 406.6 220 393.93 220 393.93 143.98"/>
      <path class="cls-2" d="M809.74,187.75h-5.77s1.09-12.17,1.09-12.17l18,.58c1.36,1.95.56,25.87-.24,29.85-4.19,20.77-32.8,19.88-36.75.24-1.54-7.66-1.44-43.07.59-50.23,7.13-25.2,44.96-11.16,35.84,13.95l-12.75.51c-.51-4.23,1.95-13.23-3.11-14.75-3.38-1.02-6.91-.48-7.89,3.17-.03,7.17-2.25,44.98.91,48.15,2.55,2.55,7.95,1.35,10.09-1.45v-17.85Z"/>
      <path class="cls-2" d="M449.22,220v-76.02h23.61c4.83,0,11.78,10.24,12.74,14.91,1.49,7.27,1.5,37.75.24,45.29-.82,4.92-7.81,15.82-12.97,15.82h-23.61ZM460.73,155.5v52.98c3.7-.2,10.91,1.29,12.16-3.35,1.03-3.79,1.06-43.81-.07-46.18-1.74-3.67-8.55-3.76-12.1-3.45Z"/>
      <path class="cls-2" d="M628.89,143.99l11.53,76.02-12.66-.02-2.26-16.53-11.07.35-2.97,16.04-12.51.15,12.79-75.89,17.15-.11ZM624.29,191.2l-4.59-27.63-3.47,27.64h8.06Z"/>
      <path class="cls-2" d="M380.11,220l-12.62-.07-3.03-17.28-10.85.06-2.42,17.16-12.56.12,12.83-75.86,16.59.95,12.05,74.92ZM363.97,191.2l-4.02-26.48c-2,2.94-4.99,25.54-4.04,26.49h8.06Z"/>
      <path class="cls-4" d="M117.49,63.35v29.37c0,4.53-12.93,16.7-17.85,16.7h-28.22v-22.46c0-7.34,6.22-17.18,12.78-20.62.98-.51,6.98-2.99,7.38-2.99h25.92Z"/>
      <path class="cls-4" d="M71.07,1.27c1.6-.42,2.11.18,3.28.96,2.13,1.43,14.47,14.02,16,16.27,12.48,18.45-5.04,32.07-17.36,43.61-15.67-12.6-32.02-26.94-15.98-47.16,1.37-1.73,13.12-13.44,14.07-13.69Z"/>
      <path class="cls-2" d="M588.59,170.48h-12.68c.2-5.14,1.1-14.73-6.3-15.05-1.49-.06-4.46.66-5.31,1.99-3.32,5.21-.15,39.31-.46,47.58,10.78,10.65,13.48-4.7,12.06-13.8l12.17,1.08c3.47,14.9-4.67,31.47-21.89,28.8-6.7-1.04-13.68-7.51-14.5-14.3-1.31-10.89-1.05-37.28-.02-48.46s13.53-17.69,23.92-14.59c11.76,3.51,14.02,15.94,13,26.75Z"/>
      <path class="cls-2" d="M536.64,161.15l-11.39,2.42c.58-11.11-12.37-14.03-11.6-.55.61,10.76,14.48,16.44,20.14,25.98,19.51,32.9-33.26,47.58-34.56,10.22l12.14-1.05c-1.37,13.82,15.48,15.49,13.84,1.79-1.41-11.78-25.51-18.72-25.4-38.13.15-25.11,37.98-25.83,36.83-.68Z"/>
      <path class="cls-2" d="M666.91,192.36v27.64h-11.52v-76.02h23.61c3.21,0,10.3,7.24,11.33,10.55,1.3,4.19,1.39,19.92.5,24.31-2.05,10.06-14.82,14.1-23.92,13.51ZM666.91,155.5v24.19l11.25-1.42c2.8-11.03,4.74-25.39-11.25-22.76Z"/>
      <polygon class="cls-1" points="511.41 33.4 511.42 48.38 497.59 48.38 497.59 120.94 483.77 120.94 483.77 48.38 469.94 48.38 469.95 33.4 511.41 33.4"/>
      <polygon class="cls-2" points="306.39 143.98 306.39 206.75 308.12 208.48 325.97 208.48 325.97 220 294.87 220 294.87 143.98 306.39 143.98"/>
      <rect class="cls-2" x="704.92" y="143.98" width="12.67" height="76.02"/>
      <path class="cls-3" d="M617.38,82.93c.31-2.53-.23-5.46,0-8.06,3.99-1.05,1.93,5.05,2.3,8.06h-2.3Z"/>
    </g>
  </g>
</svg>