<?xml version="1.0" standalone="yes"?>
<svg xmlns="http://www.w3.org/2000/svg" width="1736" height="1737">
<path style="fill:#000000; stroke:none;" d="M0 0L0 1737L1736 1737L1736 0L0 0z"/>
<path style="fill:#0c2810; stroke:none;" d="M599 761L599 855C601.599 848.806 600 839.686 600 833L600 785C600 777.784 601.802 767.678 599 761z"/>
<path style="fill:#319d40; stroke:none;" d="M600 761C608.357 764.507 621.94 762 631 762L701 762C692.643 758.493 679.06 761 670 761L600 761z"/>
<path style="fill:#2b8a38; stroke:none;" d="M701 761L701 855C703.802 848.322 702 838.216 702 831L702 783C702 776.314 703.599 767.194 701 761z"/>
<path style="fill:#004a19; stroke:none;" d="M542 763.176C538.899 764.244 536.233 767.707 534.039 770C524.884 779.572 522.335 792.697 532.043 803C534.751 805.873 540.422 813.796 545 812.654C548.118 811.877 550.844 808.177 552.996 806C562.537 796.348 565.771 783.751 555.907 773C553.024 769.858 546.992 761.456 542 763.176z"/>
<path style="fill:#3abb4c; stroke:none;" d="M600 762L600 855L701 855L701 762L600 762z"/>
<path style="fill:#39b54a; stroke:none;" d="M601 763L601 854L700 854L700 763L601 763z"/>
<path style="fill:#003210; stroke:none;" d="M525 783L525 791C526.161 788.23 526.161 785.77 525 783z"/>
<path style="fill:#002f0f; stroke:none;" d="M804 789C806.332 789.985 808.456 789.981 811 790C808.668 789.015 806.543 789.019 804 789M1073 789C1075.61 790.098 1078.16 789.993 1081 790C1078.39 788.902 1075.84 789.007 1073 789z"/>
<path style="fill:#002e0f; stroke:none;" d="M1123 789C1125.33 789.985 1127.46 789.981 1130 790C1127.67 789.016 1125.54 789.019 1123 789z"/>
<path style="fill:#001105; stroke:none;" d="M736 790L736 865C738.189 859.784 737 852.619 737 847L737 810C737 803.846 738.395 795.707 736 790z"/>
<path style="fill:#002f10; stroke:none;" d="M737 790C740.959 791.661 745.737 791 750 791C746.041 789.339 741.263 790 737 790z"/>
<path style="fill:#003712; stroke:none;" d="M764 790C764 805.632 765.858 822.608 763 838C766.259 835.152 765 829.068 765 825L765 791L775 791L775 864L763 864C766.959 865.661 771.737 865 776 865L776 790L764 790z"/>
<path style="fill:#004a19; stroke:none;" d="M801 790.742C796.501 792.461 792.099 797.224 791.228 802C789.17 813.295 791 826.518 791 838C791 843.308 789.966 849.956 791.893 855C795.432 864.259 807.224 867.562 815.999 863.991C821.573 861.722 825.318 855.875 825.895 850C826.892 839.853 826 829.197 826 819C826 813.302 826.998 806.468 825.146 801C821.947 791.556 810.112 787.26 801 790.742z"/>
<path style="fill:#001206; stroke:none;" d="M840 790L840 865C842.189 859.784 841 852.619 841 847L841 810C841 803.846 842.395 795.707 840 790z"/>
<path style="fill:#002f10; stroke:none;" d="M841 790C846.959 792.501 855.564 791 862 791C856.041 788.5 847.436 790 841 790M889 790C892.699 791.552 897.017 791 901 791L924 791L924 802C925.552 798.303 925 793.983 925 790L889 790z"/>
<path style="fill:#003712; stroke:none;" d="M938 790L938 865L950 865L950 833C946.489 841.367 949 854.924 949 864L939 864L939 791L949 791L949 822C950.552 818.301 950 813.983 950 810L950 790L938 790z"/>
<path style="fill:#00240b; stroke:none;" d="M963 790C966.432 791.44 970.3 791 974 791L974 865C976.701 858.564 975 848.951 975 842L975 790L963 790z"/>
<path style="fill:#002f10; stroke:none;" d="M989 790C992.697 791.552 997.017 791 1001 791C997.303 789.448 992.983 790 989 790M1011 790L1011 794C1011.68 792.752 1011.75 792.452 1012 791L1024 791C1020.04 789.339 1015.26 790 1011 790M1034 790L1034 794C1034.68 792.752 1034.75 792.452 1035 791C1039.11 791 1042.98 791.044 1047 792C1044.15 788.741 1038.08 790 1034 790z"/>
<path style="fill:#004a19; stroke:none;" d="M1070 790.742C1065.15 792.595 1060.55 797.958 1059.39 803C1058.17 808.325 1059 814.561 1059 820C1059 834.948 1053.61 864.794 1076 864.995C1078.68 865.019 1081.44 865.017 1084 864.146C1088.92 862.474 1092.89 858.169 1093.78 853C1095.72 841.616 1094 828.549 1094 817C1094 811.791 1095.14 804.937 1093.26 800C1089.94 791.325 1078.4 787.531 1070 790.742M1120 790.728C1109.13 794.663 1110 805.608 1110 815L1110 841C1110 845.446 1109.25 850.73 1110.7 854.999C1113.87 864.317 1125.34 867.066 1134 864.347C1141.12 862.11 1144.4 854.948 1144.91 848C1145.61 838.428 1145 828.597 1145 819C1145 813.612 1145.92 807.208 1144.35 802C1141.3 791.893 1129.73 787.209 1120 790.728z"/>
<path style="fill:#001507; stroke:none;" d="M1159 790L1159 865C1161.19 859.784 1160 852.619 1160 847L1160 810C1160 803.846 1161.39 795.707 1159 790z"/>
<path style="fill:#002f10; stroke:none;" d="M1160 790C1165.96 792.5 1174.56 791 1181 791C1175.04 788.5 1166.44 790 1160 790z"/>
<path style="fill:#004918; stroke:none;" d="M737 791L737 865L748 865L748 819C751.158 824.994 752.581 831.592 754.67 838C757.477 846.613 760.957 855.171 763 864L775 864L775 791L765 791L765 838L763 838C762.504 826.617 757.357 814.838 754.025 804C752.956 800.526 752.401 794.355 749.298 792.028C746.412 789.863 740.421 791 737 791z"/>
<path style="fill:#004a19; stroke:none;" d="M841 791L841 865L852 865L852 837L860 837C861.224 846.475 864.183 855.635 866 865L878 865C877.554 854.763 871.963 845.131 871.608 835C871.437 830.118 875.495 825.996 875.907 821C876.617 812.378 878.085 798.727 869.815 793.228C862.644 788.461 849.265 791 841 791M889 791L889 802L902 802L902 864L912 864L912 802L924 802L924 791L889 791M939 791L939 864L949 864L949 833L963 833L963 865L974 865L974 791L963 791L963 822L949 822L949 791L939 791M989 791C992.163 792.327 995.586 792 999 792C996.582 792.722 994.528 792.948 992 793C994.476 808.097 997.036 823.182 999.562 838.271C1000.85 845.964 1003.53 854.198 1003 862L1010 862C1010.52 849.223 1014.43 836.692 1015 824L1021 824C1021.9 836.166 1026.54 848.848 1026 861C1028.42 861.722 1030.47 861.948 1033 862C1033 860.469 1033.22 854.155 1035 857C1038.56 851.052 1038.34 841.808 1039.44 835C1041.75 820.612 1045.7 805.578 1046 791L1035 791C1032.78 802.759 1030.25 815.02 1030 827C1026.47 815.843 1024.5 802.694 1024 791L1012 791C1009.44 802.19 1007.49 814.492 1007 826L1005 826C1005 814.302 1002.47 802.605 1001 791L989 791M1160 791L1160 865C1169.69 865 1182.26 867.34 1189.79 859.787C1194.94 854.618 1195 847.793 1195 841C1195 829.454 1195.89 817.503 1194.91 806C1194.52 801.459 1192.41 797.346 1188.91 794.394C1181.84 788.441 1168.65 791 1160 791z"/>
<path style="fill:#004918; stroke:none;" d="M989 792C990.061 816.335 997.929 840.827 1001 865L1012 865C1012.57 851.961 1016.44 839.106 1017 826C1019.31 830.325 1019.29 835.191 1020.08 840C1021.42 848.187 1023.64 856.737 1024 865L1035 865C1035.46 861.24 1036.19 858.261 1034 855C1033.28 857.418 1033.05 859.472 1033 862C1030.56 861.891 1028.38 861.572 1026 861C1027.13 849.398 1022.88 835.525 1021 824L1015 824C1013.9 836.708 1010.17 849.145 1010 862L1003 862C1003.87 854.009 1001.01 845.331 999.712 837.421C997.335 822.889 996.227 807.094 992 793L999 793C995.837 791.673 992.415 792 989 792z"/>
<path style="fill:#004a19; stroke:none;" d="M740 793L740 862L745 862L746 817L748 817L747 815L751 815C749.466 816.023 749.598 815.804 749 817C752.887 820.552 753.752 825.506 755.373 830.373C758.657 840.228 764.141 851.711 765 862L773 862L773 793L767 793L767 842L760 839C760.943 823.674 749.493 808.257 748 793L740 793z"/>
<path style="fill:#002c0f; stroke:none;" d="M1033 796L1033 800C1033.71 798.24 1033.71 797.76 1033 796z"/>
<path style="fill:#004918; stroke:none;" d="M481 801C481 812.752 478.327 828.172 483.494 839C485.963 844.174 489.957 849.742 496 850C493.977 845.219 490.558 841.468 486 839L487 836C480.828 829.198 484 812.592 484 804C491.615 804 499.406 803.521 507 804.09C511.173 804.403 514.85 806.363 519 806C521.204 810.058 526.041 811.184 527 816C535.523 823.822 532 842.524 532 853C525.7 853 519.285 853.351 513 852.911C508.857 852.62 505.132 851.312 501 852C502.248 852.685 502.548 852.749 504 853C502.521 853.986 502.797 854 501 854C504.699 855.552 509.017 855 513 855L535 855C535 844.439 537.139 831.19 534.211 821C527.329 797.057 500.177 801 481 801z"/>
<path style="fill:#000000; stroke:none;" d="M805.148 802.032C801.103 804.339 802 810.09 802 814C801.999 824.938 800.436 837.197 802.148 847.995C802.804 852.13 806.694 855.217 810.772 852.816C814.739 850.481 813.998 844.902 814 841C814.004 830.064 815.563 817.802 813.852 807.005C813.202 802.904 809.252 799.693 805.148 802.032M1074.15 801.747C1069.99 803.538 1071 809.347 1071 813C1071 824.258 1069.39 836.881 1071.15 847.995C1071.75 851.776 1074.9 854.765 1078.89 853.238C1083.45 851.496 1082.99 845.977 1083 842L1083 818C1083 814.213 1083.65 809.708 1082.68 806.019C1081.7 802.272 1077.83 800.164 1074.15 801.747M1124.23 801.747C1120.14 803.565 1121 809.373 1121 813C1121 824.256 1119.39 836.883 1121.15 847.995C1121.75 851.776 1124.9 854.765 1128.89 853.238C1133.45 851.496 1132.99 845.977 1133 842C1133.02 830.75 1134.61 818.111 1132.85 807.005C1132.2 802.903 1128.4 799.891 1124.23 801.747z"/>
<path style="fill:#001306; stroke:none;" d="M852 802L852 826L860 826C857.668 825.015 855.543 825.019 853 825L853 803L862 803C858.837 801.673 855.414 802 852 802z"/>
<path style="fill:#003712; stroke:none;" d="M901 802L901 865L912 865C908.837 863.673 905.415 864 902 864L902 822C902 815.846 903.395 807.707 901 802z"/>
<path style="fill:#00240c; stroke:none;" d="M912 802L912 865C913.875 860.531 913 854.809 913 850L913 819C913 813.65 914.085 806.969 912 802z"/>
<path style="fill:#003411; stroke:none;" d="M1094 802L1094 852C1095.77 847.785 1095 842.535 1095 838L1095 815C1095 810.74 1095.66 805.959 1094 802z"/>
<path style="fill:#000000; stroke:none;" d="M1171 802L1171 853C1174.64 853 1179.76 853.813 1182.4 850.682C1184.72 847.926 1184 843.333 1184 840L1184 815C1184 811.647 1184.61 807.194 1182.26 804.434C1179.61 801.321 1174.65 802.002 1171 802z"/>
<path style="fill:#003612; stroke:none;" d="M790 803L790 850C791.552 846.301 791 841.983 791 838L791 816C791 811.74 791.661 806.958 790 803z"/>
<path style="fill:#000000; stroke:none;" d="M853 803L853 825C856.1 824.998 860.128 825.549 862.682 823.397C866.093 820.522 866.589 807.795 863.397 804.603C860.972 802.179 856.113 803 853 803z"/>
<path style="fill:#002d0f; stroke:none;" d="M1009 803L1009 807C1009.71 805.24 1009.71 804.759 1009 803z"/>
<path style="fill:#00290e; stroke:none;" d="M1032 803L1032 807C1032.71 805.24 1032.71 804.759 1032 803z"/>
<path style="fill:#003913; stroke:none;" d="M1109 803L1109 852C1110.77 847.785 1110 842.535 1110 838L1110 815C1110 811.017 1110.55 806.699 1109 803z"/>
<path style="fill:#004a19; stroke:none;" d="M484 804C484 812.74 482.367 824.102 485 832L484 833L486 835L485 836L487 836C486.014 837.478 486 837.203 486 839C489.292 841.339 497.08 846.893 494 851C497.344 852.874 500.168 853.802 504 854L501 852C511.135 851.552 521.739 853 532 853C532 844.403 532.445 835.671 531.902 827.09C531.63 822.794 530.812 818.306 527 816C526.517 810.906 522.011 809.68 519 806C515.265 805.693 511.746 804.369 508 804.09C500.076 803.5 491.946 804 484 804z"/>
<path style="fill:#00250c; stroke:none;" d="M801 805L801 849C802.552 845.301 802 840.983 802 837L802 816C802 812.298 802.441 808.435 801 805z"/>
<path style="fill:#001206; stroke:none;" d="M876 805L876 821C877.812 816.681 877.812 809.319 876 805z"/>
<path style="fill:#001105; stroke:none;" d="M1070 805L1070 850C1071.44 846.565 1071 842.702 1071 839L1071 818C1071 813.74 1071.66 808.958 1070 805z"/>
<path style="fill:#00220b; stroke:none;" d="M1120 805L1120 850C1121.44 846.566 1121 842.702 1121 839L1121 818C1121 813.74 1121.66 808.958 1120 805z"/>
<path style="fill:#003612; stroke:none;" d="M814 807L814 848C815.552 844.301 815 839.983 815 836C815 827.466 817.306 814.879 814 807z"/>
<path style="fill:#00260d; stroke:none;" d="M1008 810L1008 814C1008.71 812.24 1008.71 811.759 1008 810z"/>
<path style="fill:#004a19; stroke:none;" d="M544 855C553.032 855 564.739 856.943 572.996 852.558C586.041 845.63 583 828.216 583 816C569.23 816 549.791 812.953 544.649 830C542.4 837.457 544 847.252 544 855z"/>
<path style="fill:#001406; stroke:none;" d="M748 819L748 865C749.552 861.301 749 856.983 749 853L749.001 831C749.02 826.891 750.226 822.577 748 819z"/>
<path style="fill:#00280d; stroke:none;" d="M1005 821L1005 826C1005.83 823.97 1005.83 823.03 1005 821z"/>
<path style="fill:#00250b; stroke:none;" d="M1017 826L1018 830C1018.55 827.992 1018.3 827.668 1017 826z"/>
<path style="fill:#001607; stroke:none;" d="M535 827L535 855C537.604 848.794 537.604 833.206 535 827z"/>
<path style="fill:#001f09; stroke:none;" d="M1016 831L1016 835C1016.71 833.241 1016.71 832.759 1016 831z"/>
<path style="fill:#001b09; stroke:none;" d="M950 833C953.959 834.661 958.737 834 963 834C959.041 832.339 954.263 833 950 833z"/>
<path style="fill:#00210a; stroke:none;" d="M543 836L543 855C545.02 850.187 545.02 840.813 543 836z"/>
<path style="fill:#001306; stroke:none;" d="M852 837L852 865C854.604 858.793 854.604 843.206 852 837z"/>
<path style="fill:#001b08; stroke:none;" d="M1014 845L1014 849C1014.71 847.24 1014.71 846.759 1014 845z"/>
<path style="fill:#001f09; stroke:none;" d="M1037 846L1037 850C1037.71 848.24 1037.71 847.759 1037 846z"/>
<path style="fill:#001c09; stroke:none;" d="M1171 853C1173.33 853.985 1175.46 853.981 1178 854C1175.67 853.015 1173.54 853.019 1171 853z"/>
<path style="fill:#001b09; stroke:none;" d="M505 855C513.128 858.411 526.186 856 535 856C526.872 852.589 513.813 855 505 855M544 855C549.959 857.501 558.564 856 565 856C559.041 853.5 550.436 855 544 855z"/>
<path style="fill:#15421b; stroke:none;" d="M600 855C608.357 858.507 621.94 856 631 856L702 856C693.643 852.493 680.06 855 671 855L600 855z"/>
<path style="fill:#002e0f; stroke:none;" d="M803 865C805.89 866.213 808.874 865.998 812 866C809.11 864.787 806.126 865.002 803 865z"/>
<path style="fill:#002d0f; stroke:none;" d="M1072 865C1074.61 866.098 1077.16 865.993 1080 866C1077.39 864.902 1074.84 865.007 1072 865z"/>
<path style="fill:#002e0f; stroke:none;" d="M1122 865C1124.89 866.213 1127.87 865.998 1131 866C1128.11 864.787 1125.13 865.002 1122 865z"/>
<path style="fill:#081a0b; stroke:none;" d="M481 872C489.357 875.507 502.94 873 512 873L583 873C574.643 869.493 561.06 872 552 872L481 872z"/>
<path style="fill:#0b250f; stroke:none;" d="M480 873L480 975C483.004 967.841 481 956.744 481 949L481 897C481 889.784 482.802 879.678 480 873z"/>
<path style="fill:#38b449; stroke:none;" d="M481 873L481 975L526 975L526 953C524.392 954.45 523.936 955.051 523 957C526.089 961.077 525 967.055 525 972L484 972L484 876L580 876L580 972L539 972L539 957C540.687 957.218 541.316 957.224 543 957C541.412 955.373 539.922 954.226 538 953L538 975L583 975L583 873L481 873z"/>
<path style="fill:#051006; stroke:none;" d="M583 873L583 975C586.004 967.841 584 956.744 584 949L584 897C584 889.784 585.802 879.678 583 873z"/>
<path style="fill:#001005; stroke:none;" d="M599 873L599 935C601.085 930.031 600 923.35 600 918L600 888C600 883.191 600.875 877.469 599 873z"/>
<path style="fill:#004918; stroke:none;" d="M600 873L600 935L701 935L701 873L600 873z"/>
<path style="fill:#003813; stroke:none;" d="M701 873L701 935C703.085 930.031 702 923.35 702 918L702 888C702 883.191 702.875 877.469 701 873z"/>
<path style="fill:#39b54a; stroke:none;" d="M484 876L484 972L525 972C525 968.662 526.619 959.352 523.397 957.283C521.486 956.057 518.864 957.325 517 958.005C512.288 959.723 508.038 960.895 503 961C503.008 958.626 502.601 955.504 504.028 953.434C506.536 949.794 513.374 950.614 516.999 948.272C523.425 944.122 526.825 937.456 527 930C518.909 934.487 512.121 937.282 503 939L503 929C515.886 928.964 526.374 921.667 527 908C518.75 911.852 512.4 915.922 503 916L503 906C515.342 905.992 525.623 900.441 527 887L537 887C538.386 900.53 548.639 905.999 561 906L561 916C551.373 915.92 544.867 912.133 537 907C537.3 921.072 547.539 928.889 561 929L561 939C551.719 937.271 545.256 934.578 537 930C537.173 937.365 540.513 944.437 547.039 948.362C550.663 950.541 557.501 949.847 559.972 953.434C561.399 955.504 560.992 958.626 561 961C553.367 960.842 546.553 957.633 539 957L539 972L580 972L580 876L484 876z"/>
<path style="fill:#004a19; stroke:none;" d="M603 876L603 932L699 932L699 876L603 876z"/>
<path style="fill:#081a0a; stroke:none;" d="M928 884C930.052 884.874 931.747 884.953 934 885C931.948 884.126 930.253 884.047 928 884z"/>
<path style="fill:#08190a; stroke:none;" d="M974 884C975.506 884.683 976.315 884.826 978 885C976.494 884.317 975.685 884.174 974 884z"/>
<path style="fill:#081b0b; stroke:none;" d="M1177 884C1178.51 884.683 1179.31 884.826 1181 885C1179.49 884.317 1178.69 884.174 1177 884z"/>
<path style="fill:#15421b; stroke:none;" d="M737 885C740.163 886.327 743.586 886 747 886C743.837 884.673 740.414 885 737 885M786 885C790.216 886.769 795.459 886 800 886C795.784 884.231 790.541 885 786 885M824 885C827.432 886.44 831.3 886 835 886C831.568 884.56 827.7 885 824 885M848 885C851.163 886.327 854.586 886 858 886C854.837 884.673 851.414 885 848 885M871 885C876.222 887.191 883.368 886 889 886C883.778 883.809 876.632 885 871 885z"/>
<path style="fill:#2a8637; stroke:none;" d="M925.667 885.333C925.222 885.778 926.278 885.722 926.333 885.667C926.778 885.222 925.722 885.278 925.667 885.333z"/>
<path style="fill:#39b54a; stroke:none;" d="M924 933C921.723 933.021 918.512 932.634 916.607 934.179C913.027 937.083 917.205 944.37 919.394 946.892C927.464 956.191 944.444 952.356 946.671 940C948.838 927.973 940.964 920.383 933.04 912.83C929.8 909.742 925.587 904.909 926.412 900.005C927.809 891.704 935.119 895.534 937 901L947 900C945.809 895.447 944.99 890.802 940.895 887.879C931.918 881.471 918.331 885.91 916.329 897C914.565 906.774 919.149 914.35 926.015 920.911C929.999 924.719 935.552 928.222 936.841 934C937.686 937.789 934.454 943.219 930.018 941.744C926.325 940.516 924.876 936.355 924 933z"/>
<path style="fill:#1c5a25; stroke:none;" d="M935.667 885.333C935.222 885.778 936.278 885.722 936.333 885.667C936.778 885.222 935.722 885.278 935.667 885.333z"/>
<path style="fill:#23722e; stroke:none;" d="M970.667 885.333C970.222 885.778 971.278 885.722 971.333 885.667C971.778 885.222 970.722 885.278 970.667 885.333z"/>
<path style="fill:#39b54a; stroke:none;" d="M991 928L981 928C981 931.152 981.551 935.074 979.972 937.941C977.299 942.793 971.878 941.632 969.858 936.956C966.55 929.299 968.984 916.271 969 908C969.007 904.682 968.763 901.025 970.893 898.229C973.887 894.301 978.71 895.663 980.397 900.019C981.34 902.457 980.998 905.438 981 908L991 908C991 902.716 991.858 896.699 988.852 892.043C982.632 882.411 967.567 883.24 961.938 893.004C959.24 897.685 960 903.819 960 909L960 932C960.002 936.892 959.851 941.742 962.854 945.907C969.012 954.444 983.245 953.981 988.772 944.96C991.834 939.962 991 933.605 991 928z"/>
<path style="fill:#174c1e; stroke:none;" d="M979.667 885.333C979.222 885.778 980.278 885.722 980.333 885.667C980.778 885.222 979.722 885.278 979.667 885.333z"/>
<path style="fill:#15421b; stroke:none;" d="M1012 885C1016.22 886.769 1021.46 886 1026 886C1021.78 884.231 1016.54 885 1012 885M1050 885C1055.22 887.191 1062.37 886 1068 886C1062.78 883.809 1055.63 885 1050 885M1093 885C1096.16 886.327 1099.59 886 1103 886C1099.84 884.673 1096.41 885 1093 885M1116 885C1119.7 886.552 1124.02 886 1128 886C1124.3 884.449 1119.98 885 1116 885M1141 885C1144.16 886.327 1147.59 886 1151 886C1147.84 884.673 1144.41 885 1141 885z"/>
<path style="fill:#277e33; stroke:none;" d="M1174.67 885.333C1174.22 885.778 1175.28 885.722 1175.33 885.667C1175.78 885.222 1174.72 885.278 1174.67 885.333z"/>
<path style="fill:#39b54a; stroke:none;" d="M1194 914L1179 914L1179 923L1185 923C1185 927.546 1186.08 933.822 1183.82 937.941C1180.75 943.544 1174.28 941.117 1172.51 935.829C1171.23 931.985 1172 927.004 1172 923L1172 898C1174.36 897.599 1176.57 895.571 1179 895.63C1185.1 895.78 1184.99 903.749 1185 908L1194 908C1194 902.965 1195.09 896.458 1192.26 892.015C1186.32 882.707 1170.64 882.793 1165.61 893.015C1163.64 897.02 1165 902.651 1165 907C1165 917.958 1164.35 929.074 1164.64 940C1164.98 952.965 1184.03 955.625 1191.2 946.787C1197.17 939.417 1194 923.006 1194 914z"/>
<path style="fill:#123a17; stroke:none;" d="M1183.67 885.333C1183.22 885.777 1184.28 885.722 1184.33 885.667C1184.78 885.222 1183.72 885.278 1183.67 885.333z"/>
<path style="fill:#0d2b11; stroke:none;" d="M736 886L736 951C738.085 946.031 737 939.35 737 934L737 902C737 896.92 737.981 890.72 736 886z"/>
<path style="fill:#39b54a; stroke:none;" d="M737 886L737 951L764 951L764 942L747 942L747 886L737 886z"/>
<path style="fill:#040d05; stroke:none;" d="M747 886L747 940C748.661 936.041 748 931.26 748 927L748 901C748 896.192 748.875 890.469 747 886z"/>
<path style="fill:#39b54a; stroke:none;" d="M786 886C785.598 895.372 782.964 904.755 781.414 914C779.352 926.294 778.125 938.921 775 951C777.836 951 782.798 951.896 784.825 949.397C787.462 946.145 785.49 940.653 788.6 937.603C790.953 935.295 796.087 935.553 797.976 938.318C800.135 941.477 799.924 947.308 800 951L811 951C808.468 941.212 807.571 930.97 805.92 921C803.986 909.328 801.491 897.738 800 886L786 886z"/>
<path style="fill:#113916; stroke:none;" d="M800.333 886.667C800.278 886.722 800.222 887.778 800.667 887.333C800.722 887.278 800.778 886.222 800.333 886.667z"/>
<path style="fill:#1c5924; stroke:none;" d="M823 886L823 951C824.981 946.28 824 940.08 824 935L824 903C824 897.65 825.085 890.969 823 886z"/>
<path style="fill:#3dc24f; stroke:none;" d="M824 886L824 951L833 951L833 911C831.339 914.959 832 919.74 832 924L832 950L825 950L825 887C828.466 887.012 831.196 886.875 834 889C835.659 884.598 826.726 886 824 886z"/>
<path style="fill:#0e2d12; stroke:none;" d="M847 886C847 899.146 844.948 914.107 847 927C848.552 923.302 848 918.983 848 915C848 906.466 850.306 893.879 847 886z"/>
<path style="fill:#38b449; stroke:none;" d="M848 886L848 927C843.768 918.615 841.748 908.992 839.15 900C838.082 896.305 837.427 890.816 834.15 888.318C831.696 886.448 827.892 887.002 825 887L825 950L832 950L832 911L835 911C835.855 920.791 840.238 930.715 843.333 940C844.323 942.97 845.051 947.984 847.702 949.972C850.042 951.727 854.253 951 857 951L857 910C857 902.1 856.161 893.724 858 886L848 886z"/>
<path style="fill:#35a945; stroke:none;" d="M871 886L871 951C872.981 946.28 872 940.08 872 935L872 903C872 897.65 873.085 890.969 871 886z"/>
<path style="fill:#39b54a; stroke:none;" d="M872 886L872 951C879.65 951 890.638 953.094 896.812 947.606C900.207 944.587 901.737 940.44 901.96 936C902.444 926.381 902 916.631 902 907C902 900.354 902.26 894.196 896.815 889.394C890.606 883.919 879.675 886 872 886z"/>
<path style="fill:#16451c; stroke:none;" d="M892 886L893 887L892 886z"/>
<path style="fill:#1c5c25; stroke:none;" d="M968 886L969 887L968 886z"/>
<path style="fill:#23712d; stroke:none;" d="M982 886L983 887L982 886z"/>
<path style="fill:#39b54a; stroke:none;" d="M1012 886C1011.58 895.732 1009.02 905.408 1007.41 915C1005.41 926.96 1004.04 939.255 1001 951L1012 951C1012.1 945.996 1014.64 929.164 1023.41 937.603C1026.64 940.706 1024.56 946.128 1027.18 949.397C1029.18 951.901 1034.18 951 1037 951C1034.24 929.241 1028.77 907.787 1026 886L1012 886z"/>
<path style="fill:#195221; stroke:none;" d="M1026.33 886.667C1026.28 886.723 1026.22 887.777 1026.67 887.333C1026.72 887.278 1026.78 886.222 1026.33 886.667z"/>
<path style="fill:#0f3214; stroke:none;" d="M1049 886L1049 951C1050.98 946.28 1050 940.08 1050 935L1050 903C1050 897.65 1051.09 890.969 1049 886z"/>
<path style="fill:#39b54a; stroke:none;" d="M1050 886L1050 951L1059 951C1059 945.178 1056.72 933.271 1060.03 928.318C1062 925.369 1066.01 926.265 1069 925.786C1072.34 925.252 1075.32 923.56 1077.43 920.895C1080.22 917.376 1080 913.245 1080 909C1080 900.942 1081.53 891.786 1073 887.457C1066.67 884.249 1056.92 886 1050 886z"/>
<path style="fill:#040f06; stroke:none;" d="M1092 886L1092 951C1093.98 946.28 1093 940.08 1093 935L1093 903C1093 897.65 1094.09 890.969 1092 886z"/>
<path style="fill:#38b349; stroke:none;" d="M1093 886L1093 951L1103 951L1103 886L1093 886z"/>
<path style="fill:#0c2810; stroke:none;" d="M1103 886L1103 951C1105.09 946.031 1104 939.35 1104 934L1104 902C1104 896.92 1104.98 890.72 1103 886z"/>
<path style="fill:#2c8c39; stroke:none;" d="M1116 886L1116 951C1117.98 946.28 1117 940.08 1117 935L1117 903C1117 897.65 1118.09 890.969 1116 886z"/>
<path style="fill:#39b54a; stroke:none;" d="M1117 886L1117 951L1126 951L1126 911C1132 922.383 1136.1 937.458 1139 950L1149 950L1149 887L1142 887L1142 928C1138.21 924.393 1137.28 918.939 1135.86 914C1133.2 904.77 1129.6 895.47 1128 886L1117 886z"/>
<path style="fill:#1e6127; stroke:none;" d="M1140 886L1140 914C1140 918.626 1139.23 923.479 1140 928C1143.41 919.882 1141 906.797 1141 898C1141 894.017 1141.55 889.699 1140 886z"/>
<path style="fill:#3cbf4e; stroke:none;" d="M1141 886L1141 928C1142.77 923.785 1142 918.536 1142 914L1142 887L1149 887L1149 950L1140 950C1143.16 951.327 1146.59 951 1150 951L1150 886L1141 886z"/>
<path style="fill:#277f34; stroke:none;" d="M1150 886L1150 951C1151.98 946.28 1151 940.08 1151 935L1151 903C1151 897.65 1152.09 890.969 1150 886z"/>
<path style="fill:#1b5823; stroke:none;" d="M1186 886L1187 887L1186 886z"/>
<path style="fill:#081c0b; stroke:none;" d="M527 889C530.596 888.154 533.404 888.154 537 889C534.552 886.198 529.448 886.198 527 889z"/>
<path style="fill:#123d18; stroke:none;" d="M785 887L785 890C785.696 888.446 785.696 888.554 785 887z"/>
<path style="fill:#2a8636; stroke:none;" d="M835.333 887.667C835.278 887.722 835.222 888.778 835.667 888.333C835.722 888.278 835.778 887.222 835.333 887.667z"/>
<path style="fill:#34a945; stroke:none;" d="M857 887L857 951C858.981 946.28 858 940.08 858 935L858 904C858 898.65 859.085 891.969 857 887z"/>
<path style="fill:#14421a; stroke:none;" d="M894 887L895 888L894 887z"/>
<path style="fill:#15451c; stroke:none;" d="M921 887L922 888L921 887z"/>
<path style="fill:#226d2c; stroke:none;" d="M940 887L941 888L940 887z"/>
<path style="fill:#16461c; stroke:none;" d="M966 887L967 888L966 887z"/>
<path style="fill:#184d20; stroke:none;" d="M984 887L985 888L984 887z"/>
<path style="fill:#1b5824; stroke:none;" d="M1073 887L1074 888L1073 887z"/>
<path style="fill:#20672a; stroke:none;" d="M1170 887L1171 888L1170 887z"/>
<path style="fill:#24752f; stroke:none;" d="M800.333 888.667C800.278 888.722 800.222 889.778 800.667 889.333C800.722 889.278 800.778 888.222 800.333 888.667z"/>
<path style="fill:#1c5924; stroke:none;" d="M920 888L921 889L920 888z"/>
<path style="fill:#206629; stroke:none;" d="M965 888L966 889L965 888z"/>
<path style="fill:#14421a; stroke:none;" d="M1011.33 888.667C1011.28 888.722 1011.22 889.778 1011.67 889.333C1011.72 889.278 1011.78 888.222 1011.33 888.667z"/>
<path style="fill:#2b8a38; stroke:none;" d="M1026.33 888.667C1026.28 888.723 1026.22 889.777 1026.67 889.333C1026.72 889.278 1026.78 888.222 1026.33 888.667z"/>
<path style="fill:#298436; stroke:none;" d="M1128.33 888.667C1128.28 888.722 1128.22 889.777 1128.67 889.333C1128.72 889.278 1128.78 888.222 1128.33 888.667z"/>
<path style="fill:#195020; stroke:none;" d="M1189 888L1190 889L1189 888z"/>
<path style="fill:#1b5924; stroke:none;" d="M919 889L920 890L919 889z"/>
<path style="fill:#288034; stroke:none;" d="M964 889L965 890L964 889z"/>
<path style="fill:#185120; stroke:none;" d="M1190 889L1191 890L1190 889z"/>
<path style="fill:#2d923b; stroke:none;" d="M785.333 890.667C785.278 890.722 785.222 891.778 785.667 891.333C785.722 891.278 785.778 890.222 785.333 890.667z"/>
<path style="fill:#216b2b; stroke:none;" d="M836.333 890.667C836.278 890.722 836.222 891.778 836.667 891.333C836.722 891.278 836.778 890.222 836.333 890.667z"/>
<path style="fill:#216a2b; stroke:none;" d="M963 890L964 891L963 890z"/>
<path style="fill:#277f33; stroke:none;" d="M1011.33 890.667C1011.28 890.722 1011.22 891.778 1011.67 891.333C1011.72 891.278 1011.78 890.222 1011.33 890.667z"/>
<path style="fill:#184f20; stroke:none;" d="M1191 890L1192 891L1191 890z"/>
<path style="fill:#16451c; stroke:none;" d="M944 891L945 892L944 891z"/>
<path style="fill:#174a1e; stroke:none;" d="M962 891L963 892L962 891z"/>
<path style="fill:#184f20; stroke:none;" d="M988 891L989 892L988 891z"/>
<path style="fill:#0f3314; stroke:none;" d="M1027.33 891.667C1027.28 891.723 1027.22 892.777 1027.67 892.333C1027.72 892.278 1027.78 891.222 1027.33 891.667z"/>
<path style="fill:#267a31; stroke:none;" d="M1166 891L1167 892L1166 891z"/>
<path style="fill:#113816; stroke:none;" d="M801.333 892.667C801.278 892.722 801.222 893.778 801.667 893.333C801.722 893.278 801.778 892.222 801.333 892.667z"/>
<path style="fill:#23712e; stroke:none;" d="M899 892L900 893L899 892z"/>
<path style="fill:#1f6629; stroke:none;" d="M917 892L918 893L917 892z"/>
<path style="fill:#226c2c; stroke:none;" d="M525 893L526 894L525 893z"/>
<path style="fill:#1c5c25; stroke:none;" d="M538 893L539 894L538 893z"/>
<path style="fill:#133d18; stroke:none;" d="M784 893L784 896C784.696 894.446 784.696 894.554 784 893z"/>
<path style="fill:#174b1e; stroke:none;" d="M945 893L946 894L945 893z"/>
<path style="fill:#22702d; stroke:none;" d="M1027 893L1027 896C1027.7 894.446 1027.7 894.554 1027 893z"/>
<path style="fill:#14441b; stroke:none;" d="M1193 893L1194 894L1193 893z"/>
<path style="fill:#24752f; stroke:none;" d="M801.333 894.667C801.278 894.722 801.222 895.778 801.667 895.333C801.722 895.278 801.778 894.222 801.333 894.667z"/>
<path style="fill:#288234; stroke:none;" d="M916.333 894.667C916.278 894.722 916.222 895.778 916.667 895.333C916.722 895.278 916.778 894.222 916.333 894.667z"/>
<path style="fill:#195121; stroke:none;" d="M933 894L934 895L933 894z"/>
<path style="fill:#14421b; stroke:none;" d="M1010.33 894.667C1010.28 894.722 1010.22 895.778 1010.67 895.333C1010.72 895.278 1010.78 894.222 1010.33 894.667z"/>
<path style="fill:#1f6228; stroke:none;" d="M524 895L525 896L524 895z"/>
<path style="fill:#1d5c25; stroke:none;" d="M539 895L540 896L539 895z"/>
<path style="fill:#309a3f; stroke:none;" d="M881 895C883.332 895.985 885.457 895.981 888 896C885.668 895.015 883.543 895.019 881 895z"/>
<path style="fill:#2c8e39; stroke:none;" d="M960.333 895.667C960.278 895.722 960.222 896.778 960.667 896.333C960.722 896.278 960.778 895.222 960.333 895.667z"/>
<path style="fill:#195121; stroke:none;" d="M977 895L978 896L977 895z"/>
<path style="fill:#309a3f; stroke:none;" d="M1060 895C1062.05 895.874 1063.75 895.953 1066 896C1063.95 895.126 1062.25 895.047 1060 895z"/>
<path style="fill:#2c8e3a; stroke:none;" d="M1130.33 895.667C1130.28 895.722 1130.22 896.777 1130.67 896.333C1130.72 896.278 1130.78 895.222 1130.33 895.667z"/>
<path style="fill:#216a2b; stroke:none;" d="M1181 895L1182 896L1181 895z"/>
<path style="fill:#1e6328; stroke:none;" d="M1194.33 895.667C1194.28 895.723 1194.22 896.777 1194.67 896.333C1194.72 896.278 1194.78 895.222 1194.33 895.667z"/>
<path style="fill:#2d913b; stroke:none;" d="M784.333 896.667C784.278 896.722 784.222 897.778 784.667 897.333C784.722 897.278 784.778 896.222 784.333 896.667z"/>
<path style="fill:#35a845; stroke:none;" d="M880 896L880 941C881.661 937.041 881 932.26 881 928L881 908C881 904.017 881.552 899.699 880 896z"/>
<path style="fill:#000000; stroke:none;" d="M881 896L881 941C883.893 940.998 888.143 941.651 890.397 939.397C893.407 936.386 892 928.88 892 925C892 918.667 892.043 912.333 891.999 906C891.979 903.071 892.151 899.685 889.682 897.603C887.339 895.628 883.85 896.01 881 896z"/>
<path style="fill:#267b32; stroke:none;" d="M946 896L946 899C946.696 897.446 946.696 897.554 946 896z"/>
<path style="fill:#1b5924; stroke:none;" d="M971 896L972 897L971 896z"/>
<path style="fill:#277f33; stroke:none;" d="M1010 896L1010 899C1010.7 897.446 1010.7 897.554 1010 896z"/>
<path style="fill:#288135; stroke:none;" d="M1059 896L1059 917C1061.15 911.869 1061.15 901.131 1059 896z"/>
<path style="fill:#000000; stroke:none;" d="M1060 896L1060 916C1062.86 915.998 1067.05 916.654 1069.26 914.397C1072.36 911.224 1072.06 900.453 1068.68 897.603C1066.34 895.628 1062.85 896.01 1060 896z"/>
<path style="fill:#257730; stroke:none;" d="M1068 896L1069 897L1068 896z"/>
<path style="fill:#23712e; stroke:none;" d="M1080 896L1080 899C1080.7 897.446 1080.7 897.554 1080 896z"/>
<path style="fill:#288135; stroke:none;" d="M838.333 897.667C838.278 897.722 838.222 898.778 838.667 898.333C838.722 898.278 838.778 897.222 838.333 897.667z"/>
<path style="fill:#1d5b26; stroke:none;" d="M890 897L891 898L890 897z"/>
<path style="fill:#0d2e12; stroke:none;" d="M915 897L915 900C915.696 898.446 915.696 898.554 915 897z"/>
<path style="fill:#123c18; stroke:none;" d="M926.333 897.667C926.278 897.722 926.222 898.778 926.667 898.333C926.722 898.278 926.778 897.222 926.333 897.667z"/>
<path style="fill:#123a18; stroke:none;" d="M1028 897L1028 900C1028.7 898.446 1028.7 898.554 1028 897z"/>
<path style="fill:#1f5f27; stroke:none;" d="M1069 897L1070 898L1069 897z"/>
<path style="fill:#1e6228; stroke:none;" d="M1163 897L1163 939C1164.55 935.302 1164 930.983 1164 927C1164 918.203 1166.41 905.118 1163 897z"/>
<path style="fill:#3dc24f; stroke:none;" d="M1164 897L1164 940C1167.51 931.643 1165 918.06 1165 909C1165 905.017 1165.55 900.699 1164 897z"/>
<path style="fill:#15421b; stroke:none;" d="M1174 897L1175 898L1174 897z"/>
<path style="fill:#15481d; stroke:none;" d="M1183 897L1184 898L1183 897z"/>
<path style="fill:#33a342; stroke:none;" d="M1194 897L1194 908C1195.43 904.59 1195.43 900.41 1194 897z"/>
<path style="fill:#1e6228; stroke:none;" d="M522 898L523 899L522 898z"/>
<path style="fill:#1e6128; stroke:none;" d="M541 898L542 899L541 898z"/>
<path style="fill:#113716; stroke:none;" d="M802.333 898.667C802.278 898.722 802.222 899.778 802.667 899.333C802.722 899.278 802.778 898.222 802.333 898.667z"/>
<path style="fill:#226c2d; stroke:none;" d="M891 898L892 899L891 898z"/>
<path style="fill:#0f3013; stroke:none;" d="M959 898L959 939C960.552 935.301 960 930.983 960 927C960 918.466 962.306 905.879 959 898z"/>
<path style="fill:#0f3014; stroke:none;" d="M980 898L980 908C981.346 904.793 981.346 901.207 980 898z"/>
<path style="fill:#0d2b11; stroke:none;" d="M991 898L991 908C992.346 904.793 992.346 901.207 991 898z"/>
<path style="fill:#22712d; stroke:none;" d="M1070 898L1071 899L1070 898z"/>
<path style="fill:#277d32; stroke:none;" d="M1131.33 898.667C1131.28 898.722 1131.22 899.778 1131.67 899.333C1131.72 899.278 1131.78 898.222 1131.33 898.667z"/>
<path style="fill:#3dc24f; stroke:none;" d="M1172 898L1172 938C1175.21 930.361 1173 918.271 1173 910C1173 906.017 1173.55 901.699 1172 898z"/>
<path style="fill:#15441c; stroke:none;" d="M783 899L783 902C783.696 900.446 783.696 900.554 783 899z"/>
<path style="fill:#0e2d12; stroke:none;" d="M902 899L902 938C905.206 930.361 903 918.271 903 910C903 906.298 903.441 902.435 902 899z"/>
<path style="fill:#298435; stroke:none;" d="M969 899L969 938C972.206 930.361 970 918.271 970 910C970 906.298 970.441 902.435 969 899z"/>
<path style="fill:#34a543; stroke:none;" d="M1080 899L1080 913C1081.67 909.028 1081.67 902.972 1080 899z"/>
<path style="fill:#195221; stroke:none;" d="M1173 899L1173 938C1174.44 934.565 1174 930.702 1174 927C1174 918.729 1176.21 906.639 1173 899z"/>
<path style="fill:#1e6228; stroke:none;" d="M1184 899L1184 908C1185.26 905.006 1185.26 901.994 1184 899z"/>
<path style="fill:#277d33; stroke:none;" d="M802 900L802 903C802.696 901.446 802.696 901.554 802 900z"/>
<path style="fill:#2a8637; stroke:none;" d="M892 900L892 938C895.105 930.601 893 919.007 893 911C893 907.298 893.441 903.434 892 900z"/>
<path style="fill:#1c5b25; stroke:none;" d="M915 900L915 903C915.696 901.446 915.696 901.554 915 900z"/>
<path style="fill:#226e2d; stroke:none;" d="M943 900C944.248 900.685 944.549 900.749 946 901C944.752 900.315 944.451 900.251 943 900z"/>
<path style="fill:#174a1e; stroke:none;" d="M1009 900L1009 903C1009.7 901.446 1009.7 901.554 1009 900z"/>
<path style="fill:#2d903b; stroke:none;" d="M1028.33 900.667C1028.28 900.723 1028.22 901.777 1028.67 901.333C1028.72 901.278 1028.78 900.222 1028.33 900.667z"/>
<path style="fill:#2b8b38; stroke:none;" d="M1071 900L1071 912C1072.51 908.396 1072.51 903.604 1071 900z"/>
<path style="fill:#288034; stroke:none;" d="M937.667 901.333C937.222 901.778 938.278 901.722 938.333 901.667C938.778 901.222 937.722 901.278 937.667 901.333z"/>
<path style="fill:#123a17; stroke:none;" d="M939.667 901.333C939.222 901.778 940.278 901.722 940.333 901.667C940.778 901.222 939.722 901.278 939.667 901.333z"/>
<path style="fill:#1c5824; stroke:none;" d="M518 902L519 903L518 902z"/>
<path style="fill:#1b5723; stroke:none;" d="M545 902L546 903L545 902z"/>
<path style="fill:#1d5f27; stroke:none;" d="M792 903L792 906L794 906L794 903L792 903z"/>
<path style="fill:#0c2910; stroke:none;" d="M915.333 903.667C915.278 903.722 915.222 904.778 915.667 904.333C915.722 904.278 915.778 903.222 915.333 903.667z"/>
<path style="fill:#226f2d; stroke:none;" d="M1019 903C1018.01 904.479 1018 904.203 1018 906C1019.29 904.557 1019.4 904.766 1019 903z"/>
<path style="fill:#123a18; stroke:none;" d="M1029 903L1029 906C1029.7 904.446 1029.7 904.554 1029 903z"/>
<path style="fill:#16441c; stroke:none;" d="M548 904L549 905L548 904z"/>
<path style="fill:#14401a; stroke:none;" d="M803 904L803 907C803.696 905.446 803.696 905.554 803 904z"/>
<path style="fill:#2b8b39; stroke:none;" d="M840.333 904.667C840.278 904.722 840.222 905.778 840.667 905.333C840.722 905.278 840.778 904.222 840.333 904.667z"/>
<path style="fill:#226e2d; stroke:none;" d="M512 905L513 906L512 905z"/>
<path style="fill:#15451b; stroke:none;" d="M782 905L782 908C782.696 906.446 782.696 906.554 782 905z"/>
<path style="fill:#000000; stroke:none;" d="M1019 905C1017.71 911.904 1016.55 919 1016 926L1022 926C1021.95 919.466 1021.59 911.013 1019 905z"/>
<path style="fill:#2b8b38; stroke:none;" d="M1133.33 905.667C1133.28 905.723 1133.22 906.777 1133.67 906.333C1133.72 906.278 1133.78 905.222 1133.33 905.667z"/>
<path style="fill:#309a3f; stroke:none;" d="M503 906C504.506 906.683 505.315 906.826 507 907C505.494 906.317 504.685 906.174 503 906z"/>
<path style="fill:#21692a; stroke:none;" d="M507 906C508.248 906.685 508.548 906.749 510 907C508.752 906.315 508.452 906.251 507 906z"/>
<path style="fill:#1f6529; stroke:none;" d="M554 906C555.248 906.685 555.548 906.749 557 907C555.752 906.315 555.452 906.251 554 906z"/>
<path style="fill:#309a3e; stroke:none;" d="M557 906C558.506 906.683 559.315 906.826 561 907C559.494 906.317 558.685 906.174 557 906z"/>
<path style="fill:#0c2910; stroke:none;" d="M792 906L792 908L794 908L794 906L792 906z"/>
<path style="fill:#1b5724; stroke:none;" d="M927 906L928 907L927 906z"/>
<path style="fill:#174b1e; stroke:none;" d="M1008 906L1008 909C1008.7 907.446 1008.7 907.554 1008 906z"/>
<path style="fill:#14411b; stroke:none;" d="M1018.33 906.667C1018.28 906.722 1018.22 907.778 1018.67 907.333C1018.72 907.278 1018.78 906.222 1018.33 906.667z"/>
<path style="fill:#2d903b; stroke:none;" d="M1029.33 906.667C1029.28 906.723 1029.22 907.778 1029.67 907.333C1029.72 907.278 1029.78 906.222 1029.33 906.667z"/>
<path style="fill:#103616; stroke:none;" d="M503 907L503 916C504.256 913.006 504.256 909.994 503 907z"/>
<path style="fill:#1f6528; stroke:none;" d="M526 907L527 911C527.751 908.954 527.656 908.404 526 907z"/>
<path style="fill:#184c1f; stroke:none;" d="M536 907L536 911C536.71 909.24 536.71 908.76 536 907z"/>
<path style="fill:#0c270f; stroke:none;" d="M560 907L560 915L555 915C557.052 915.874 558.747 915.953 561 916C560.998 912.874 561.213 909.89 560 907z"/>
<path style="fill:#257730; stroke:none;" d="M841.333 907.667C841.278 907.722 841.222 908.778 841.667 908.333C841.722 908.278 841.778 907.222 841.333 907.667z"/>
<path style="fill:#267a31; stroke:none;" d="M525 908L526 909L525 908z"/>
<path style="fill:#000000; stroke:none;" d="M792 908C791.874 914.088 790.126 919.912 790 926L796 926C795.875 919.94 794.476 914.028 794 908L792 908z"/>
<path style="fill:#16451c; stroke:none;" d="M981 908C984.163 909.327 987.586 909 991 909C987.837 907.673 984.415 908 981 908z"/>
<path style="fill:#2a8837; stroke:none;" d="M1020.33 908.667C1020.28 908.722 1020.22 909.778 1020.67 909.333C1020.72 909.278 1020.78 908.222 1020.33 908.667z"/>
<path style="fill:#277f33; stroke:none;" d="M1134.33 908.667C1134.28 908.723 1134.22 909.777 1134.67 909.333C1134.72 909.278 1134.78 908.222 1134.33 908.667z"/>
<path style="fill:#16451c; stroke:none;" d="M1184 908C1187.43 909.44 1191.3 909 1195 909C1191.57 907.56 1187.7 908 1184 908z"/>
<path style="fill:#298436; stroke:none;" d="M794.333 909.667C794.278 909.722 794.222 910.778 794.667 910.333C794.722 910.278 794.778 909.222 794.333 909.667z"/>
<path style="fill:#195020; stroke:none;" d="M929 909L930 910L929 909z"/>
<path style="fill:#123b17; stroke:none;" d="M1030 909L1030 912C1030.7 910.446 1030.7 910.554 1030 909z"/>
<path style="fill:#1d5b25; stroke:none;" d="M522 910L523 911L522 910z"/>
<path style="fill:#1b5723; stroke:none;" d="M541 910L542 911L541 910z"/>
<path style="fill:#257730; stroke:none;" d="M791.333 910.667C791.278 910.722 791.222 911.778 791.667 911.333C791.722 911.278 791.778 910.222 791.333 910.667z"/>
<path style="fill:#134019; stroke:none;" d="M804 910L804 913C804.696 911.446 804.696 911.554 804 910z"/>
<path style="fill:#1a5522; stroke:none;" d="M1020.33 910.667C1020.28 910.722 1020.22 911.778 1020.67 911.333C1020.72 911.278 1020.78 910.222 1020.33 910.667z"/>
<path style="fill:#184c1f; stroke:none;" d="M781 911L781 914C781.696 912.446 781.696 912.554 781 911z"/>
<path style="fill:#195522; stroke:none;" d="M794.333 911.667C794.278 911.722 794.222 912.778 794.667 912.333C794.722 912.278 794.778 911.222 794.333 911.667z"/>
<path style="fill:#2a8637; stroke:none;" d="M833 911L833 951C834.661 947.041 834 942.26 834 938C834 929.023 833.356 919.855 835 911L833 911z"/>
<path style="fill:#0f3315; stroke:none;" d="M1007.33 911.667C1007.28 911.722 1007.22 912.778 1007.67 912.333C1007.72 912.278 1007.78 911.222 1007.33 911.667z"/>
<path style="fill:#257a31; stroke:none;" d="M1017.33 911.667C1017.28 911.722 1017.22 912.778 1017.67 912.333C1017.72 912.278 1017.78 911.222 1017.33 911.667z"/>
<path style="fill:#195322; stroke:none;" d="M1126 911L1126 951C1129.33 943.056 1126.9 930.598 1127 922C1127.05 918.113 1128.11 914.39 1126 911z"/>
<path style="fill:#1f6328; stroke:none;" d="M1135.33 911.667C1135.28 911.723 1135.22 912.777 1135.67 912.333C1135.72 912.278 1135.78 911.222 1135.33 911.667z"/>
<path style="fill:#14411a; stroke:none;" d="M791 912L791 915C791.696 913.446 791.696 913.554 791 912z"/>
<path style="fill:#2d903a; stroke:none;" d="M1030.33 912.667C1030.28 912.723 1030.22 913.777 1030.67 913.333C1030.72 913.278 1030.78 912.222 1030.33 912.667z"/>
<path style="fill:#16481d; stroke:none;" d="M516 913L517 914L516 913z"/>
<path style="fill:#1f6428; stroke:none;" d="M526 913L527 914L526 913z"/>
<path style="fill:#1e6228; stroke:none;" d="M537 913L538 914L537 913z"/>
<path style="fill:#184d1f; stroke:none;" d="M933 913L934 914L933 913z"/>
<path style="fill:#226e2c; stroke:none;" d="M1007.33 913.667C1007.28 913.722 1007.22 914.778 1007.67 914.333C1007.72 914.278 1007.78 913.222 1007.33 913.667z"/>
<path style="fill:#15451b; stroke:none;" d="M1017.33 913.667C1017.28 913.722 1017.22 914.778 1017.67 914.333C1017.72 914.278 1017.78 913.222 1017.33 913.667z"/>
<path style="fill:#15441b; stroke:none;" d="M1070 913L1071 914L1070 913z"/>
<path style="fill:#23712e; stroke:none;" d="M1080 913L1080 916C1080.7 914.446 1080.7 914.554 1080 913z"/>
<path style="fill:#226e2d; stroke:none;" d="M1179 913C1183.72 914.982 1189.91 914 1195 914C1190.28 912.018 1184.09 913 1179 913z"/>
<path style="fill:#288135; stroke:none;" d="M513.667 914.333C513.222 914.778 514.278 914.722 514.333 914.667C514.778 914.222 513.722 914.278 513.667 914.333z"/>
<path style="fill:#184d1f; stroke:none;" d="M549.667 914.333C549.222 914.778 550.278 914.722 550.333 914.667C550.778 914.222 549.722 914.278 549.667 914.333z"/>
<path style="fill:#298435; stroke:none;" d="M843.333 914.667C843.278 914.722 843.222 915.778 843.667 915.333C843.722 915.278 843.778 914.222 843.333 914.667z"/>
<path style="fill:#1f6228; stroke:none;" d="M920 914L921 915L920 914z"/>
<path style="fill:#1e6127; stroke:none;" d="M934 914L935 915L934 914z"/>
<path style="fill:#33a342; stroke:none;" d="M1194 914L1194 940C1196.48 934.097 1196.48 919.903 1194 914z"/>
<path style="fill:#15431b; stroke:none;" d="M507.667 915.333C507.222 915.778 508.278 915.722 508.333 915.667C508.778 915.222 507.722 915.278 507.667 915.333z"/>
<path style="fill:#288135; stroke:none;" d="M509.667 915.333C509.222 915.778 510.278 915.722 510.333 915.667C510.778 915.222 509.722 915.278 509.667 915.333z"/>
<path style="fill:#1f6428; stroke:none;" d="M553.667 915.333C553.222 915.778 554.278 915.722 554.333 915.667C554.778 915.222 553.722 915.278 553.667 915.333z"/>
<path style="fill:#123d18; stroke:none;" d="M835.333 915.667C835.278 915.722 835.222 916.778 835.667 916.333C835.722 916.278 835.778 915.222 835.333 915.667z"/>
<path style="fill:#2a8637; stroke:none;" d="M1021.33 915.667C1021.28 915.722 1021.22 916.778 1021.67 916.333C1021.72 916.278 1021.78 915.222 1021.33 915.667z"/>
<path style="fill:#123a17; stroke:none;" d="M1031 915L1031 918C1031.7 916.446 1031.7 916.554 1031 915z"/>
<path style="fill:#2c8c39; stroke:none;" d="M1136.33 915.667C1136.28 915.723 1136.22 916.777 1136.67 916.333C1136.72 916.278 1136.78 915.222 1136.33 915.667z"/>
<path style="fill:#298436; stroke:none;" d="M795.333 916.667C795.278 916.722 795.222 917.778 795.667 917.333C795.722 917.278 795.778 916.222 795.333 916.667z"/>
<path style="fill:#144019; stroke:none;" d="M805 916L805 919C805.696 917.446 805.696 917.554 805 916z"/>
<path style="fill:#14401a; stroke:none;" d="M1060 916C1062.61 917.098 1065.16 916.993 1068 917C1065.39 915.902 1062.84 916.007 1060 916z"/>
<path style="fill:#113816; stroke:none;" d="M1128.33 916.667C1128.28 916.722 1128.22 917.777 1128.67 917.333C1128.72 917.278 1128.78 916.222 1128.33 916.667z"/>
<path style="fill:#174d1f; stroke:none;" d="M780 917L780 920C780.696 918.446 780.696 918.554 780 917z"/>
<path style="fill:#257730; stroke:none;" d="M790 917L790 920C790.696 918.446 790.696 918.554 790 917M844.333 917.667C844.278 917.722 844.222 918.778 844.667 918.333C844.722 918.278 844.778 917.222 844.333 917.667z"/>
<path style="fill:#0f3315; stroke:none;" d="M1006.33 917.667C1006.28 917.722 1006.22 918.778 1006.67 918.333C1006.72 918.278 1006.78 917.222 1006.33 917.667z"/>
<path style="fill:#1a5522; stroke:none;" d="M1021.33 917.667C1021.28 917.722 1021.22 918.778 1021.67 918.333C1021.72 918.278 1021.78 917.222 1021.33 917.667z"/>
<path style="fill:#1a5422; stroke:none;" d="M795.333 918.667C795.278 918.722 795.222 919.778 795.667 919.333C795.722 919.278 795.778 918.222 795.333 918.667z"/>
<path style="fill:#123b18; stroke:none;" d="M836.333 918.667C836.278 918.722 836.222 919.778 836.667 919.333C836.722 919.278 836.778 918.222 836.333 918.667z"/>
<path style="fill:#267a31; stroke:none;" d="M1016.33 918.667C1016.28 918.722 1016.22 919.778 1016.67 919.333C1016.72 919.278 1016.78 918.222 1016.33 918.667z"/>
<path style="fill:#2d903a; stroke:none;" d="M1031.33 918.667C1031.28 918.723 1031.22 919.777 1031.67 919.333C1031.72 919.278 1031.78 918.222 1031.33 918.667z"/>
<path style="fill:#267931; stroke:none;" d="M1137.33 918.667C1137.28 918.723 1137.22 919.777 1137.67 919.333C1137.72 919.278 1137.78 918.222 1137.33 918.667z"/>
<path style="fill:#1f6328; stroke:none;" d="M523 919L524 920L523 919z"/>
<path style="fill:#1e6127; stroke:none;" d="M540 919L541 920L540 919z"/>
<path style="fill:#226f2d; stroke:none;" d="M1006.33 919.667C1006.28 919.722 1006.22 920.778 1006.67 920.333C1006.72 920.278 1006.78 919.222 1006.33 919.667z"/>
<path style="fill:#1f6428; stroke:none;" d="M1078 919L1079 920L1078 919z"/>
<path style="fill:#103415; stroke:none;" d="M1129.33 919.667C1129.28 919.722 1129.22 920.777 1129.67 920.333C1129.72 920.278 1129.78 919.222 1129.33 919.667z"/>
<path style="fill:#15451c; stroke:none;" d="M1016.33 920.667C1016.28 920.722 1016.22 921.778 1016.67 921.333C1016.72 921.278 1016.78 920.222 1016.33 920.667z"/>
<path style="fill:#16481d; stroke:none;" d="M837.333 921.667C837.278 921.722 837.222 922.778 837.667 922.333C837.722 922.278 837.778 921.222 837.333 921.667z"/>
<path style="fill:#123a17; stroke:none;" d="M1032 921L1032 924C1032.7 922.446 1032.7 922.554 1032 921z"/>
<path style="fill:#206629; stroke:none;" d="M1138.33 921.667C1138.28 921.723 1138.22 922.777 1138.67 922.333C1138.72 922.278 1138.78 921.222 1138.33 921.667z"/>
<path style="fill:#14401a; stroke:none;" d="M806 922L806 925C806.696 923.446 806.696 923.554 806 922z"/>
<path style="fill:#1c5924; stroke:none;" d="M942 922L943 923L942 922z"/>
<path style="fill:#2a8737; stroke:none;" d="M1022.33 922.667C1022.28 922.722 1022.22 923.778 1022.67 923.333C1022.72 923.278 1022.78 922.222 1022.33 922.667z"/>
<path style="fill:#15431b; stroke:none;" d="M1130.33 922.667C1130.28 922.722 1130.22 923.777 1130.67 923.333C1130.72 923.278 1130.78 922.222 1130.33 922.667z"/>
<path style="fill:#1a5322; stroke:none;" d="M779.333 923.667C779.278 923.722 779.222 924.778 779.667 924.333C779.722 924.278 779.778 923.222 779.333 923.667z"/>
<path style="fill:#247630; stroke:none;" d="M796 923L796 927C796.71 925.24 796.71 924.76 796 923z"/>
<path style="fill:#1e6228; stroke:none;" d="M1179 923C1180.77 923.779 1182.04 923.912 1184 924L1184 938C1185.88 933.529 1185 927.817 1185 923L1179 923z"/>
<path style="fill:#267931; stroke:none;" d="M789 924L789 927C789.696 925.446 789.696 925.554 789 924z"/>
<path style="fill:#1e6127; stroke:none;" d="M930 924L931 925L930 924z"/>
<path style="fill:#1c5924; stroke:none;" d="M1005.33 924.667C1005.28 924.722 1005.22 925.778 1005.67 925.333C1005.72 925.278 1005.78 924.222 1005.33 924.667z"/>
<path style="fill:#14401a; stroke:none;" d="M1022 924C1019.94 925.582 1018.61 925.826 1016 926C1018.25 927.085 1023.43 927.791 1022 924z"/>
<path style="fill:#2d903a; stroke:none;" d="M1032.33 924.667C1032.28 924.723 1032.22 925.777 1032.67 925.333C1032.72 925.278 1032.78 924.222 1032.33 924.667z"/>
<path style="fill:#1f6228; stroke:none;" d="M1073 924L1074 925L1073 924z"/>
<path style="fill:#216c2b; stroke:none;" d="M517 925L518 926L517 925z"/>
<path style="fill:#226e2d; stroke:none;" d="M546 925L547 926L546 925z"/>
<path style="fill:#2b8c39; stroke:none;" d="M779.333 925.667C779.278 925.722 779.222 926.778 779.667 926.333C779.722 926.278 779.778 925.222 779.333 925.667z"/>
<path style="fill:#1c5e26; stroke:none;" d="M931 925L932 926L931 925z"/>
<path style="fill:#1a5523; stroke:none;" d="M944 925L945 926L944 925z"/>
<path style="fill:#216b2b; stroke:none;" d="M1071 925L1072 926L1071 925z"/>
<path style="fill:#14401a; stroke:none;" d="M790 926C792.052 926.874 793.747 926.953 796 927C793.948 926.126 792.253 926.047 790 926z"/>
<path style="fill:#1d5d26; stroke:none;" d="M932 926L933 927L932 926z"/>
<path style="fill:#2d903b; stroke:none;" d="M1005.33 926.667C1005.28 926.722 1005.22 927.778 1005.67 927.333C1005.72 927.278 1005.78 926.222 1005.33 926.667z"/>
<path style="fill:#309b3f; stroke:none;" d="M1060 926C1062.05 926.874 1063.75 926.953 1066 927C1063.95 926.126 1062.25 926.047 1060 926z"/>
<path style="fill:#247630; stroke:none;" d="M1066 926C1067.25 926.685 1067.55 926.749 1069 927C1067.75 926.315 1067.45 926.251 1066 926z"/>
<path style="fill:#1d5d26; stroke:none;" d="M933 927L934 928L933 927z"/>
<path style="fill:#1e6227; stroke:none;" d="M945 927L946 928L945 927z"/>
<path style="fill:#0f3014; stroke:none;" d="M980 927L980 939C981.512 935.396 981.512 930.604 980 927z"/>
<path style="fill:#2f963e; stroke:none;" d="M981 927C984.163 928.327 987.586 928 991 928C987.837 926.673 984.414 927 981 927z"/>
<path style="fill:#0d2b11; stroke:none;" d="M991 927L991 939C992.512 935.396 992.512 930.604 991 927z"/>
<path style="fill:#123a17; stroke:none;" d="M1033 927L1033 930C1033.7 928.447 1033.7 928.554 1033 927z"/>
<path style="fill:#288135; stroke:none;" d="M1059 927L1059 951C1061.35 945.403 1061.35 932.597 1059 927z"/>
<path style="fill:#20682a; stroke:none;" d="M552.667 928.333C552.222 928.778 553.278 928.722 553.333 928.667C553.778 928.222 552.722 928.278 552.667 928.333z"/>
<path style="fill:#0f3415; stroke:none;" d="M778.333 928.667C778.278 928.722 778.222 929.778 778.667 929.333C778.722 929.278 778.778 928.222 778.333 928.667z"/>
<path style="fill:#144019; stroke:none;" d="M807 928L807 931C807.696 929.446 807.696 929.554 807 928z"/>
<path style="fill:#226d2c; stroke:none;" d="M934 928L935 929L934 928z"/>
<path style="fill:#103616; stroke:none;" d="M503 929L503 938C504.098 935.387 503.993 932.836 504 930L508 930C506.231 929.221 504.964 929.088 503 929z"/>
<path style="fill:#1e6227; stroke:none;" d="M526 929L527 933C527.751 930.954 527.656 930.404 526 929z"/>
<path style="fill:#195121; stroke:none;" d="M536 929L536 934C536.924 932.352 537.449 930.825 538 929L536 929z"/>
<path style="fill:#15461c; stroke:none;" d="M556 929C557.769 929.779 559.036 929.912 561 930C559.231 929.221 557.964 929.088 556 929z"/>
<path style="fill:#287f34; stroke:none;" d="M946.333 929.667C946.278 929.722 946.222 930.778 946.667 930.333C946.722 930.278 946.778 929.222 946.333 929.667z"/>
<path style="fill:#113a17; stroke:none;" d="M1004.33 929.667C1004.28 929.722 1004.22 930.778 1004.67 930.333C1004.72 930.278 1004.78 929.222 1004.33 929.667z"/>
<path style="fill:#16441c; stroke:none;" d="M525 930L526 931L525 930z"/>
<path style="fill:#0c270f; stroke:none;" d="M560 930L560 938C561.161 935.23 561.161 932.77 560 930z"/>
<path style="fill:#23712d; stroke:none;" d="M778.333 930.667C778.278 930.722 778.222 931.778 778.667 931.333C778.722 931.278 778.778 930.222 778.333 930.667z"/>
<path style="fill:#2d903b; stroke:none;" d="M1033.33 930.667C1033.28 930.723 1033.22 931.777 1033.67 931.333C1033.72 931.278 1033.78 930.222 1033.33 930.667z"/>
<path style="fill:#1d5b25; stroke:none;" d="M524 931L525 932L524 931z"/>
<path style="fill:#1e6127; stroke:none;" d="M539 931L540 932L539 931z"/>
<path style="fill:#257730; stroke:none;" d="M1004.33 931.667C1004.28 931.722 1004.22 932.778 1004.67 932.333C1004.72 932.278 1004.78 931.222 1004.33 931.667z"/>
<path style="fill:#081a0a; stroke:none;" d="M920 932C921.648 932.924 923.175 933.449 925 934C923.46 932.197 922.403 932.168 920 932z"/>
<path style="fill:#174b1e; stroke:none;" d="M521 933L522 934L521 933M542 933L543 934L542 933z"/>
<path style="fill:#257530; stroke:none;" d="M914 935L917 934C915.222 933.045 914.979 933.234 914 935z"/>
<path style="fill:#1b5923; stroke:none;" d="M947 933L947 938C947.83 935.97 947.83 935.03 947 933z"/>
<path style="fill:#123a17; stroke:none;" d="M1034 933L1034 936C1034.7 934.446 1034.7 934.554 1034 933z"/>
<path style="fill:#134019; stroke:none;" d="M808.333 934.667C808.278 934.722 808.222 935.778 808.667 935.333C808.722 935.278 808.778 934.222 808.333 934.667z"/>
<path style="fill:#23722e; stroke:none;" d="M924.333 934.667C924.278 934.722 924.222 935.778 924.667 935.333C924.722 935.278 924.778 934.222 924.333 934.667z"/>
<path style="fill:#298536; stroke:none;" d="M937 934L937 937C937.696 935.446 937.696 935.554 937 934z"/>
<path style="fill:#16471d; stroke:none;" d="M517 935L518 936L517 935z"/>
<path style="fill:#000c04; stroke:none;" d="M600 935C608.357 938.507 621.94 936 631 936L702 936C693.643 932.493 680.06 935 671 935L600 935z"/>
<path style="fill:#1c5925; stroke:none;" d="M777.333 935.667C777.278 935.722 777.222 936.778 777.667 936.333C777.722 936.278 777.778 935.222 777.333 935.667z"/>
<path style="fill:#0c2a10; stroke:none;" d="M914.333 935.667C914.278 935.722 914.222 936.778 914.667 936.333C914.722 936.278 914.778 935.222 914.333 935.667z"/>
<path style="fill:#0e3013; stroke:none;" d="M548.667 936.333C548.222 936.778 549.278 936.722 549.333 936.667C549.778 936.222 548.722 936.278 548.667 936.333z"/>
<path style="fill:#16471d; stroke:none;" d="M788 936C791.163 937.327 794.586 937 798 937C794.837 935.673 791.415 936 788 936z"/>
<path style="fill:#267c32; stroke:none;" d="M808.333 936.667C808.278 936.722 808.222 937.778 808.667 937.333C808.722 937.278 808.778 936.222 808.333 936.667z"/>
<path style="fill:#1d5f27; stroke:none;" d="M1003.33 936.667C1003.28 936.722 1003.22 937.778 1003.67 937.333C1003.72 937.278 1003.78 936.222 1003.33 936.667z"/>
<path style="fill:#16471d; stroke:none;" d="M1014 936C1017.16 937.327 1020.59 937 1024 937C1020.84 935.673 1017.41 936 1014 936z"/>
<path style="fill:#2d903b; stroke:none;" d="M1034.33 936.667C1034.28 936.722 1034.22 937.778 1034.67 937.333C1034.72 937.278 1034.78 936.222 1034.33 936.667z"/>
<path style="fill:#0f3415; stroke:none;" d="M509 937C510.248 937.685 510.548 937.749 512 938C510.752 937.315 510.452 937.251 509 937z"/>
<path style="fill:#1c5a25; stroke:none;" d="M551.667 937.333C551.222 937.778 552.278 937.722 552.333 937.667C552.778 937.222 551.722 937.278 551.667 937.333z"/>
<path style="fill:#2d913b; stroke:none;" d="M777.333 937.667C777.278 937.722 777.222 938.778 777.667 938.333C777.722 938.278 777.778 937.222 777.333 937.667z"/>
<path style="fill:#216d2c; stroke:none;" d="M787 937L787 940C787.696 938.446 787.696 938.554 787 937z"/>
<path style="fill:#24732f; stroke:none;" d="M798.333 937.667C798.278 937.722 798.222 938.778 798.667 938.333C798.722 938.278 798.778 937.222 798.333 937.667z"/>
<path style="fill:#1c5c25; stroke:none;" d="M1024.33 937.667C1024.28 937.722 1024.22 938.777 1024.67 938.333C1024.72 938.278 1024.78 937.222 1024.33 937.667z"/>
<path style="fill:#226d2c; stroke:none;" d="M503 938C504.248 938.685 504.549 938.749 506 939C504.752 938.315 504.452 938.251 503 938z"/>
<path style="fill:#1b5924; stroke:none;" d="M525 938L526 939L525 938z"/>
<path style="fill:#1c5b25; stroke:none;" d="M538 938L539 939L538 938z"/>
<path style="fill:#226d2c; stroke:none;" d="M558 938C559.248 938.685 559.548 938.749 561 939C559.752 938.315 559.452 938.251 558 938z"/>
<path style="fill:#20672a; stroke:none;" d="M925 938L926 939L925 938M1013 938L1013 941C1013.7 939.446 1013.7 939.554 1013 938z"/>
<path style="fill:#143e1a; stroke:none;" d="M798.333 939.667C798.278 939.722 798.222 940.778 798.667 940.333C798.722 940.278 798.778 939.222 798.333 939.667z"/>
<path style="fill:#0e3113; stroke:none;" d="M915.333 939.667C915.278 939.722 915.222 940.778 915.667 940.333C915.722 940.278 915.778 939.222 915.333 939.667z"/>
<path style="fill:#24732f; stroke:none;" d="M936 939L937 940L936 939z"/>
<path style="fill:#0d2a11; stroke:none;" d="M1024.33 939.667C1024.28 939.722 1024.22 940.778 1024.67 940.333C1024.72 940.278 1024.78 939.222 1024.33 939.667z"/>
<path style="fill:#123a17; stroke:none;" d="M1035 939L1035 942C1035.7 940.446 1035.7 940.554 1035 939z"/>
<path style="fill:#194e20; stroke:none;" d="M1174 939L1175 940L1174 939z"/>
<path style="fill:#184f20; stroke:none;" d="M1183 939L1184 940L1183 939z"/>
<path style="fill:#1a5322; stroke:none;" d="M524 940L525 941L524 940z"/>
<path style="fill:#1a5221; stroke:none;" d="M539 940L540 941L539 940z"/>
<path style="fill:#123c18; stroke:none;" d="M776 940L776 943C776.696 941.446 776.696 941.554 776 940z"/>
<path style="fill:#133f19; stroke:none;" d="M809.333 940.667C809.278 940.722 809.222 941.778 809.667 941.333C809.722 941.278 809.778 940.222 809.333 940.667z"/>
<path style="fill:#0e2e12; stroke:none;" d="M843.333 940.667C843.278 940.722 843.222 941.778 843.667 941.333C843.722 941.278 843.778 940.222 843.333 940.667z"/>
<path style="fill:#216a2b; stroke:none;" d="M901 940L902 941L901 940z"/>
<path style="fill:#1b5923; stroke:none;" d="M971 940L972 941L971 940z"/>
<path style="fill:#14411a; stroke:none;" d="M1194.33 940.667C1194.28 940.723 1194.22 941.777 1194.67 941.333C1194.72 941.278 1194.78 940.222 1194.33 940.667z"/>
<path style="fill:#226d2c; stroke:none;" d="M747 941C751.974 943.087 758.638 942 764 942C759.026 939.913 752.362 941 747 941M881 941C883.613 942.098 886.165 941.993 889 942C886.387 940.902 883.836 941.007 881 941z"/>
<path style="fill:#123b18; stroke:none;" d="M946.333 941.667C946.278 941.722 946.222 942.778 946.667 942.333C946.722 942.278 946.778 941.222 946.333 941.667z"/>
<path style="fill:#226d2c; stroke:none;" d="M960 941L961 942L960 941z"/>
<path style="fill:#1c5b25; stroke:none;" d="M977 941L978 942L977 941z"/>
<path style="fill:#0d2b11; stroke:none;" d="M990.333 941.667C990.278 941.722 990.222 942.778 990.667 942.333C990.722 942.278 990.778 941.222 990.333 941.667z"/>
<path style="fill:#14421a; stroke:none;" d="M1002.33 941.667C1002.28 941.722 1002.22 942.778 1002.67 942.333C1002.72 942.278 1002.78 941.222 1002.33 941.667z"/>
<path style="fill:#0b270f; stroke:none;" d="M1136.33 941.667C1136.28 941.723 1136.22 942.777 1136.67 942.333C1136.72 942.278 1136.78 941.222 1136.33 941.667z"/>
<path style="fill:#216c2b; stroke:none;" d="M1176 941L1177 942L1176 941z"/>
<path style="fill:#24742f; stroke:none;" d="M1181 941L1182 942L1181 941z"/>
<path style="fill:#267c32; stroke:none;" d="M809 942L809 945C809.696 943.446 809.696 943.554 809 942z"/>
<path style="fill:#1d5c26; stroke:none;" d="M916 942L917 943L916 942z"/>
<path style="fill:#081b0a; stroke:none;" d="M929 942C930.506 942.683 931.315 942.826 933 943C931.494 942.317 930.685 942.174 929 942z"/>
<path style="fill:#2a8637; stroke:none;" d="M1025.33 942.667C1025.28 942.723 1025.22 943.777 1025.67 943.333C1025.72 943.278 1025.78 942.222 1025.33 942.667z"/>
<path style="fill:#195221; stroke:none;" d="M1164 942L1165 943L1164 942z"/>
<path style="fill:#1a5422; stroke:none;" d="M522 943L523 944L522 943z"/>
<path style="fill:#184d1f; stroke:none;" d="M541 943L542 944L541 943z"/>
<path style="fill:#2d923b; stroke:none;" d="M776.333 943.667C776.278 943.722 776.222 944.778 776.667 944.333C776.722 944.278 776.778 943.222 776.333 943.667z"/>
<path style="fill:#24762f; stroke:none;" d="M786.333 943.667C786.278 943.722 786.222 944.778 786.667 944.333C786.722 944.278 786.778 943.222 786.333 943.667z"/>
<path style="fill:#0e2d12; stroke:none;" d="M844.333 943.667C844.278 943.722 844.222 944.778 844.667 944.333C844.722 944.278 844.778 943.222 844.333 943.667z"/>
<path style="fill:#277e33; stroke:none;" d="M1002.33 943.667C1002.28 943.722 1002.22 944.778 1002.67 944.333C1002.72 944.278 1002.78 943.222 1002.33 943.667z"/>
<path style="fill:#1d5e26; stroke:none;" d="M1193 943L1194 944L1193 943z"/>
<path style="fill:#1f6429; stroke:none;" d="M521 944L522 945L521 944z"/>
<path style="fill:#1f6329; stroke:none;" d="M542 944L543 945L542 944z"/>
<path style="fill:#1e6127; stroke:none;" d="M799 944L799 947C799.696 945.446 799.696 945.554 799 944z"/>
<path style="fill:#24742f; stroke:none;" d="M899 944L900 945L899 944z"/>
<path style="fill:#1d5c25; stroke:none;" d="M917 944L918 945L917 944z"/>
<path style="fill:#184d1f; stroke:none;" d="M945 944L946 945L945 944z"/>
<path style="fill:#267931; stroke:none;" d="M1012.33 944.667C1012.28 944.722 1012.22 945.778 1012.67 945.333C1012.72 945.278 1012.78 944.222 1012.33 944.667z"/>
<path style="fill:#174c1e; stroke:none;" d="M1025.33 944.667C1025.28 944.723 1025.22 945.777 1025.67 945.333C1025.72 945.278 1025.78 944.222 1025.33 944.667z"/>
<path style="fill:#0b270f; stroke:none;" d="M1137.33 944.667C1137.28 944.723 1137.22 945.777 1137.67 945.333C1137.72 945.278 1137.78 944.222 1137.33 944.667z"/>
<path style="fill:#195221; stroke:none;" d="M1165 944L1166 945L1165 944z"/>
<path style="fill:#1f6529; stroke:none;" d="M520 945L521 946L520 945z"/>
<path style="fill:#15431b; stroke:none;" d="M786.333 945.667C786.278 945.722 786.222 946.778 786.667 946.333C786.722 946.278 786.778 945.222 786.333 945.667z"/>
<path style="fill:#226c2c; stroke:none;" d="M962 945L963 946L962 945z"/>
<path style="fill:#24732f; stroke:none;" d="M988 945L989 946L988 945z"/>
<path style="fill:#14421b; stroke:none;" d="M1036 945L1036 948C1036.7 946.446 1036.7 946.554 1036 945z"/>
<path style="fill:#15431b; stroke:none;" d="M1192 945L1193 946L1192 945z"/>
<path style="fill:#1f6228; stroke:none;" d="M519 946L520 947L519 946z"/>
<path style="fill:#1b5623; stroke:none;" d="M544 946L545 947L544 946z"/>
<path style="fill:#113b17; stroke:none;" d="M775.333 946.667C775.278 946.722 775.222 947.778 775.667 947.333C775.722 947.278 775.778 946.222 775.333 946.667z"/>
<path style="fill:#16481d; stroke:none;" d="M810.333 946.667C810.278 946.722 810.222 947.778 810.667 947.333C810.722 947.278 810.778 946.222 810.333 946.667z"/>
<path style="fill:#0e2d12; stroke:none;" d="M845.333 946.667C845.278 946.722 845.222 947.778 845.667 947.333C845.722 947.278 845.778 946.222 845.333 946.667z"/>
<path style="fill:#123d18; stroke:none;" d="M1012.33 946.667C1012.28 946.722 1012.22 947.778 1012.67 947.333C1012.72 947.278 1012.78 946.222 1012.33 946.667z"/>
<path style="fill:#226f2d; stroke:none;" d="M1191 946L1192 947L1191 946z"/>
<path style="fill:#1a5322; stroke:none;" d="M943 947L944 948L943 947z"/>
<path style="fill:#13401a; stroke:none;" d="M1001 947L1001 950C1001.7 948.446 1001.7 948.554 1001 947z"/>
<path style="fill:#0c270f; stroke:none;" d="M1138.33 947.667C1138.28 947.723 1138.22 948.777 1138.67 948.333C1138.72 948.278 1138.78 947.222 1138.33 947.667z"/>
<path style="fill:#277c33; stroke:none;" d="M775.333 948.667C775.278 948.722 775.222 949.778 775.667 949.333C775.722 949.278 775.778 948.222 775.333 948.667z"/>
<path style="fill:#288034; stroke:none;" d="M810.333 948.667C810.278 948.722 810.222 949.778 810.667 949.333C810.722 949.278 810.778 948.222 810.333 948.667z"/>
<path style="fill:#1d5b25; stroke:none;" d="M942 948L943 949L942 948z"/>
<path style="fill:#298636; stroke:none;" d="M785.333 949.667C785.278 949.722 785.222 950.778 785.667 950.333C785.722 950.278 785.778 949.222 785.333 949.667z"/>
<path style="fill:#133c18; stroke:none;" d="M846.333 949.667C846.278 949.722 846.222 950.778 846.667 950.333C846.722 950.278 846.778 949.222 846.333 949.667z"/>
<path style="fill:#16471c; stroke:none;" d="M894 949L895 950L894 949z"/>
<path style="fill:#21692a; stroke:none;" d="M966 949L967 950L966 949z"/>
<path style="fill:#23712e; stroke:none;" d="M984 949L985 950L984 949z"/>
<path style="fill:#288034; stroke:none;" d="M1026.33 949.667C1026.28 949.723 1026.22 950.777 1026.67 950.333C1026.72 950.278 1026.78 949.222 1026.33 949.667z"/>
<path style="fill:#194e20; stroke:none;" d="M1188 949L1189 950L1188 949z"/>
<path style="fill:#1b5523; stroke:none;" d="M511.667 950.333C511.222 950.778 512.278 950.722 512.333 950.667C512.778 950.222 511.722 950.278 511.667 950.333z"/>
<path style="fill:#2a8837; stroke:none;" d="M551.667 950.333C551.222 950.778 552.278 950.722 552.333 950.667C552.778 950.222 551.722 950.278 551.667 950.333z"/>
<path style="fill:#164b1e; stroke:none;" d="M892 950L893 951L892 950z"/>
<path style="fill:#1e6127; stroke:none;" d="M923 950L924 951L923 950z"/>
<path style="fill:#24712f; stroke:none;" d="M939 950L940 951L939 950z"/>
<path style="fill:#24742f; stroke:none;" d="M1139 950L1140 951L1139 950z"/>
<path style="fill:#174c1f; stroke:none;" d="M1171 950L1172 951L1171 950z"/>
<path style="fill:#23732e; stroke:none;" d="M1186 950L1187 951L1186 950z"/>
<path style="fill:#257630; stroke:none;" d="M505 951C506.248 951.685 506.548 951.749 508 952C506.752 951.315 506.452 951.251 505 951z"/>
<path style="fill:#0d2d12; stroke:none;" d="M508.667 951.333C508.222 951.778 509.278 951.722 509.333 951.667C509.778 951.222 508.722 951.278 508.667 951.333z"/>
<path style="fill:#1f6328; stroke:none;" d="M527 951L527 975C529.349 969.403 529.349 956.597 527 951z"/>
<path style="fill:#16481d; stroke:none;" d="M554.667 951.333C554.222 951.778 555.278 951.722 555.333 951.667C555.778 951.222 554.722 951.278 554.667 951.333z"/>
<path style="fill:#257730; stroke:none;" d="M556 951C557.248 951.685 557.549 951.749 559 952C557.752 951.315 557.452 951.251 556 951z"/>
<path style="fill:#16481d; stroke:none;" d="M737 951C744.409 954.109 755.976 952 764 952C756.591 948.891 745.024 951 737 951M775 951C778.432 952.44 782.3 952 786 952C782.568 950.56 778.7 951 775 951M800 951C803.432 952.44 807.3 952 811 952C807.568 950.56 803.7 951 800 951M824 951C827.163 952.327 830.586 952 834 952C830.837 950.673 827.414 951 824 951M847 951C850.432 952.44 854.3 952 858 952C854.568 950.56 850.7 951 847 951M871 951C876.469 953.295 884.099 952 890 952C884.531 949.705 876.901 951 871 951z"/>
<path style="fill:#247630; stroke:none;" d="M925.667 951.333C925.222 951.778 926.278 951.722 926.333 951.667C926.778 951.222 925.722 951.278 925.667 951.333z"/>
<path style="fill:#195121; stroke:none;" d="M936.667 951.333C936.222 951.778 937.278 951.722 937.333 951.667C937.778 951.222 936.722 951.278 936.667 951.333z"/>
<path style="fill:#0f3113; stroke:none;" d="M980.667 951.333C980.222 951.778 981.278 951.722 981.333 951.667C981.778 951.222 980.722 951.278 980.667 951.333z"/>
<path style="fill:#16481d; stroke:none;" d="M1001 951C1004.43 952.44 1008.3 952 1012 952C1008.57 950.56 1004.7 951 1001 951M1027 951C1030.16 952.327 1033.59 952 1037 952C1033.84 950.673 1030.41 951 1027 951M1050 951C1053.16 952.327 1056.59 952 1060 952C1056.84 950.673 1053.41 951 1050 951M1093 951C1096.16 952.327 1099.59 952 1103 952C1099.84 950.673 1096.41 951 1093 951M1116 951C1119.16 952.327 1122.59 952 1126 952C1122.84 950.673 1119.41 951 1116 951M1140 951C1143.43 952.44 1147.3 952 1151 952C1147.57 950.56 1143.7 951 1140 951z"/>
<path style="fill:#103616; stroke:none;" d="M503 952L503 961L508 961C506.494 960.317 505.685 960.174 504 960C503.993 957.164 504.098 954.613 503 952z"/>
<path style="fill:#3dc24f; stroke:none;" d="M526 952L526 975C528.284 969.557 528.284 957.443 526 952z"/>
<path style="fill:#195121; stroke:none;" d="M536 952L536 975C538.284 969.557 538.284 957.443 536 952z"/>
<path style="fill:#3dc24f; stroke:none;" d="M537 952L537 975C539.284 969.557 539.284 957.443 537 952z"/>
<path style="fill:#0c270f; stroke:none;" d="M560 952L560 960L556 960C557.769 960.779 559.036 960.912 561 961C560.998 957.874 561.213 954.89 560 952z"/>
<path style="fill:#09200d; stroke:none;" d="M928 952C930.331 952.985 932.457 952.981 935 953C932.668 952.015 930.543 952.019 928 952z"/>
<path style="fill:#16481e; stroke:none;" d="M974 952C975.248 952.685 975.548 952.749 977 953C975.752 952.315 975.452 952.251 974 952z"/>
<path style="fill:#16491e; stroke:none;" d="M1176 952C1177.77 952.779 1179.04 952.912 1181 953C1179.23 952.221 1177.96 952.088 1176 952z"/>
<path style="fill:#001005; stroke:none;" d="M599 953L599 975C601.219 969.713 601.219 958.287 599 953z"/>
<path style="fill:#004918; stroke:none;" d="M600 953L600 975L701 975L701 953L600 953z"/>
<path style="fill:#003813; stroke:none;" d="M701 953L701 975C703.219 969.713 703.219 958.287 701 953z"/>
<path style="fill:#257430; stroke:none;" d="M522 955L523 956L522 955z"/>
<path style="fill:#23712e; stroke:none;" d="M541 955L542 956L541 955z"/>
<path style="fill:#1a5121; stroke:none;" d="M520 956L521 957L520 956z"/>
<path style="fill:#17491e; stroke:none;" d="M543 956L544 957L543 956z"/>
<path style="fill:#004a19; stroke:none;" d="M603 956L603 972L699 972L699 956L603 956z"/>
<path style="fill:#16461c; stroke:none;" d="M518 957L519 958L518 957z"/>
<path style="fill:#20682a; stroke:none;" d="M547 958L548 959L547 958z"/>
<path style="fill:#1e6127; stroke:none;" d="M512.667 959.333C512.222 959.778 513.278 959.722 513.333 959.667C513.778 959.222 512.722 959.278 512.667 959.333z"/>
<path style="fill:#113616; stroke:none;" d="M550.667 959.333C550.222 959.778 551.278 959.722 551.333 959.667C551.778 959.222 550.722 959.278 550.667 959.333z"/>
<path style="fill:#24742f; stroke:none;" d="M508.667 960.333C508.222 960.778 509.278 960.722 509.333 960.667C509.778 960.222 508.722 960.278 508.667 960.333z"/>
<path style="fill:#216a2b; stroke:none;" d="M554.667 960.333C554.222 960.778 555.278 960.722 555.333 960.667C555.778 960.222 554.722 960.278 554.667 960.333z"/>
<path style="fill:#0a1f0d; stroke:none;" d="M481 975C485.72 976.981 491.92 976 497 976L528 976C523.28 974.019 517.08 975 512 975L481 975M537 975C541.469 976.875 547.191 976 552 976L583 976C578.531 974.125 572.809 975 568 975L537 975z"/>
<path style="fill:#000d04; stroke:none;" d="M600 975C608.357 978.507 621.94 976 631 976L702 976C693.643 972.493 680.06 975 671 975L600 975z"/>
</svg>
