<svg width="99" height="67" viewBox="0 0 99 67" fill="none" xmlns="http://www.w3.org/2000/svg">
<g clip-path="url(#clip0_275_16744)">
<path d="M83.3472 27.2542C83.3226 27.1567 83.2778 27.0655 83.2157 26.9864C83.1535 26.9073 83.0753 26.8422 82.9863 26.7952C82.8972 26.7482 82.7992 26.7204 82.6987 26.7137C82.5981 26.7069 82.4973 26.7213 82.4027 26.7559C79.2018 27.9192 72.6987 30.3253 71.0478 31.2761C70.1849 31.7714 71.9716 33.2581 73.6509 34.4365C73.84 34.5683 74.0653 34.6386 74.296 34.6381H83.6579C83.7525 34.6382 83.8461 34.6191 83.9331 34.582C84.02 34.5449 84.0985 34.4905 84.1637 34.4222C84.2289 34.3538 84.2795 34.273 84.3124 34.1845C84.3453 34.0961 84.3598 34.0019 84.355 33.9076C84.2231 31.6638 83.8857 29.4367 83.3472 27.2542ZM69.275 32.7092C69.0773 33.1677 68.8541 33.6148 68.6067 34.0486C68.5726 34.1086 68.555 34.1766 68.5555 34.2456C68.556 34.3146 68.5746 34.3822 68.6095 34.4418C68.6445 34.5013 68.6944 34.5507 68.7545 34.585C68.8145 34.6193 68.8825 34.6373 68.9517 34.6371H72.4653C72.5034 34.6372 72.5405 34.6251 72.5714 34.6028C72.6022 34.5804 72.6251 34.5489 72.6368 34.5127C72.6485 34.4765 72.6484 34.4376 72.6366 34.4015C72.6247 34.3654 72.6016 34.3339 72.5707 34.3117L70.0504 32.4945C69.9877 32.4493 69.9157 32.4187 69.8396 32.4051C69.7635 32.3914 69.6853 32.3951 69.6109 32.4157C69.5364 32.4363 69.4675 32.4734 69.4094 32.5243C69.3512 32.5751 69.3053 32.6383 69.275 32.7092ZM81.8418 25.6079C79.6616 24.6916 73.9678 23.1849 73.0715 23.1466C72.4275 23.1166 68.4363 24.0305 65.7359 24.7913C65.4352 24.8764 65.3915 25.2815 65.6641 25.4337C67.7783 26.6118 69.4053 28.0098 69.7703 29.6584C69.8447 29.9945 70.1616 30.216 70.4995 30.1473C71.0756 30.0303 71.6288 29.9019 71.9376 29.7926C74.7328 28.799 82.7173 25.9778 81.8418 25.6079ZM72.1323 21.2754C70.6107 20.812 64.0491 18.9963 63.5227 18.8693C62.9963 18.7422 61.6303 18.9015 60.5901 19.1728C59.9163 19.353 57.1244 20.2934 55.264 20.9255C55.2155 20.9419 55.1734 20.9732 55.1437 21.0148C55.114 21.0564 55.0982 21.1062 55.0985 21.1573C55.0989 21.2084 55.1153 21.2581 55.1455 21.2993C55.1757 21.3405 55.2182 21.3712 55.2669 21.387C58.1306 22.331 61.1152 23.3542 62.9582 24.1344C63.0875 24.1895 63.2198 24.2463 63.3504 24.3034C63.6009 24.4148 63.8819 24.4386 64.1477 24.3711C67.0027 23.6361 71.353 22.5209 71.9399 22.3684C72.8238 22.1365 73.6593 21.7447 72.1323 21.2754ZM60.1045 18.3449C59.5843 18.174 54.8149 16.9707 54.0732 16.8769C53.3318 16.7776 52.5859 16.8769 51.4726 17.0094C50.8363 17.0894 48.866 17.4316 47.2875 17.7131C46.9797 17.768 46.8161 18.1366 47.0136 18.3781C47.2112 18.6197 47.5458 18.8316 48.0641 19.0183C48.9336 19.3337 50.5861 19.8642 52.5193 20.4956C52.7082 20.5581 52.9111 20.5654 53.1042 20.5169C54.8352 20.0767 57.611 19.3721 58.688 19.0957C60.3024 18.6816 60.6231 18.5113 60.1032 18.3449H60.1045ZM54.2988 12.3568C54.2258 12.3513 54.1175 12.3458 53.9872 12.3394C53.8671 12.3316 53.7468 12.3512 53.6355 12.3969C53.5242 12.4426 53.4248 12.513 53.345 12.6029C52.4342 13.6732 50.4813 14.4875 49.081 15.3812C48.6122 15.6827 48.1631 16.0036 47.7916 16.3283C47.6428 16.4573 47.7434 16.7034 47.9409 16.6982C49.0626 16.6692 50.2434 16.6241 50.9511 16.5625C52.6056 16.419 53.5187 16.3306 53.8397 15.8117C54.166 15.2931 54.974 13.4607 55.0512 12.9915C55.1285 12.5222 54.7525 12.3839 54.2988 12.3568ZM57.1095 14.195C56.7335 13.9693 55.8867 13.5439 55.682 13.4278C55.4829 13.312 55.4276 13.3617 55.3613 13.5162C55.3613 13.5162 54.8854 14.6588 54.769 14.929C54.6474 15.1938 55.1178 15.1444 55.7541 15.0229C56.3959 14.9071 56.9715 14.7578 57.2259 14.6588C57.4804 14.5646 57.4859 14.4211 57.1095 14.1947V14.195ZM59.7488 14.2392C59.345 14.1344 57.7019 13.8583 57.4856 13.8251C57.2692 13.7919 57.2644 13.8141 57.4083 13.9299C57.4083 13.9299 58.0003 14.4214 58.1109 14.4988C58.2214 14.5762 58.9244 14.5814 59.4831 14.5372C59.9202 14.5036 60.1465 14.3511 59.7488 14.2389V14.2392ZM56.6284 16.3806C56.4457 15.8894 56.3297 15.3541 56.0788 15.3541C55.8243 15.3541 54.7454 15.5153 54.7454 15.5153C54.4411 15.6314 53.8546 16.3983 54.0483 16.4867C54.2423 16.5805 55.78 16.735 56.2614 16.8398C56.7445 16.9379 56.8108 16.8769 56.6284 16.3803V16.3806ZM64.0759 15.1996C63.578 15.0835 61.748 14.7691 61.0548 14.7691C60.3615 14.7691 58.15 14.8574 57.7074 14.9126C57.6686 14.9181 56.8829 14.9787 56.7225 15.1706C56.5608 15.3692 57.0707 16.6112 57.3145 16.8372C57.5525 17.0581 58.5318 17.3561 59.2454 17.577C59.959 17.798 61.586 18.2117 61.9898 18.2391C62.394 18.2614 62.8531 17.7812 63.1907 17.4058C63.5282 17.0304 64.4135 16.0042 64.5574 15.7833C64.7012 15.5624 64.5683 15.315 64.0759 15.1993V15.1996ZM77.2059 14.2389C77.1274 14.1358 77.0268 14.0515 76.9114 13.9921C76.7961 13.9326 76.6689 13.8996 76.5392 13.8954C75.4218 13.8506 74.3729 14.0286 74.0476 14.0676C73.4058 14.1505 67.7618 15.0351 67.2419 15.1109C66.7272 15.1883 65.604 15.5027 65.377 15.7237C65.1558 15.9494 64.4199 16.7173 64.0106 17.3187C63.6013 17.9202 63.579 18.2185 64.0879 18.3949C64.5968 18.5713 71.6518 20.3708 71.6518 20.3708C73.7489 21.0387 75.3755 20.9281 76.5709 20.6356C77.1684 20.4898 78.3974 20.1141 79.4757 19.7771C79.5964 19.7387 79.707 19.6741 79.7997 19.588C79.8924 19.5018 79.9649 19.3963 80.0118 19.2789C80.0587 19.1615 80.079 19.0352 80.0712 18.909C80.0633 18.7829 80.0276 18.6601 79.9665 18.5494C79.1524 17.0475 78.2297 15.6068 77.2059 14.2386V14.2389ZM80.8954 20.3773C80.8634 20.3105 80.8088 20.2572 80.7412 20.2268C80.6737 20.1964 80.5974 20.1909 80.5261 20.2112C79.6328 20.4644 78.5564 20.772 77.8749 20.9836C76.7018 21.3532 74.5769 21.9214 73.6639 22.2307C72.3469 22.6777 77.1719 23.5 78.9703 23.8699C79.8607 24.0521 81.0648 24.274 82.0419 24.4182C82.095 24.4258 82.1493 24.4197 82.1994 24.4005C82.2495 24.3812 82.2938 24.3494 82.328 24.3082C82.3623 24.2669 82.3853 24.2176 82.3949 24.1649C82.4046 24.1122 82.4005 24.058 82.383 24.0073C81.9552 22.7705 81.4585 21.5585 80.8954 20.377V20.3773ZM73.0508 12.9421C72.1378 12.39 67.2309 10.2541 65.83 9.71876C65.0388 9.42078 63.6831 9.36015 62.4324 9.42078C61.1876 9.48141 58.4707 9.64136 57.9838 9.71876C57.4914 9.79616 55.8204 11.4299 55.5825 11.7331C55.35 12.0369 55.3238 12.8812 56.0196 13.0411C57.945 13.4829 62.2501 14.3382 63.329 14.5646C64.4025 14.7903 65.7469 14.7903 66.9975 14.5646C68.2478 14.3437 71.4681 13.9519 72.4255 13.8361C73.3829 13.7203 74.0855 13.56 73.0508 12.9421ZM70.2783 7.20168C70.009 6.99709 69.6792 6.88741 69.3407 6.88982C68.5 6.89272 67.7101 6.90659 67.627 6.96625C67.4443 7.09848 66.5979 8.23012 66.2878 8.67162C65.9726 9.11311 66.6254 9.30629 68.0861 10.0348C69.1366 10.5585 73.4327 12.2617 75.7396 13.1692C75.9925 13.2688 76.2159 12.9657 76.0426 12.7564C74.3372 10.6936 72.4035 8.82974 70.2783 7.20039V7.20168ZM64.192 6.59087C63.6333 6.56345 63.2569 6.61828 62.6704 6.81178C62.0839 7.00528 59.7766 7.88795 58.753 8.36815C57.7238 8.8535 58.5913 9.01927 59.141 9.0083C59.6887 8.99153 64.8458 8.8535 65.1167 8.74869C65.3935 8.64388 66.4889 7.44613 66.9273 6.99367C67.3351 6.57313 64.751 6.61699 64.192 6.58958V6.59087ZM64.1558 3.63035C62.7008 3.69001 60.2736 3.79353 60.2736 3.87448C60.2846 3.99574 61.0648 4.53656 61.7842 4.9284C62.4981 5.32023 63.7597 6.14808 64.2851 6.18613C64.5525 6.20419 66.2794 6.21097 67.8928 6.21613C68.2106 6.21613 68.3296 5.80623 68.0635 5.63241C67.0375 4.96184 65.9765 4.34619 64.8849 3.78805C64.6596 3.67358 64.4084 3.61925 64.1558 3.63035ZM59.6379 1.627C59.3778 1.54466 59.0971 1.55423 58.8432 1.65409C58.2567 1.88274 57.5994 2.13783 57.3973 2.21297C57.0044 2.35648 56.3791 2.69317 56.6284 2.80895C56.8774 2.93053 58.633 3.35719 59.0534 3.44943C59.2917 3.50167 61.1773 3.32462 62.7315 3.16853C62.9255 3.14918 62.9695 2.88151 62.7897 2.80379C61.7622 2.36068 60.7116 1.96841 59.6379 1.627ZM53.5271 0.277025C53.2567 0.243634 52.9831 0.303004 52.7511 0.445368C52.2441 0.754965 51.6893 1.09294 51.4494 1.25161C50.9511 1.57701 50.9899 1.75922 51.7203 1.90273C52.4507 2.04624 55.09 2.38293 55.8204 2.25038C56.1686 2.19104 57.0601 1.83114 57.8936 1.47639C57.9299 1.46018 57.9603 1.43325 57.9807 1.39924C58.0011 1.36523 58.0106 1.32579 58.0078 1.28625C58.005 1.2467 57.9901 1.20897 57.9651 1.17814C57.9401 1.14732 57.9062 1.1249 57.868 1.1139C56.4408 0.741865 54.9909 0.462322 53.5274 0.277025H53.5271ZM49.1418 0C49.0428 0 48.9455 0 48.8489 0C48.6753 0.00316656 48.5086 0.0685306 48.3794 0.184146C47.981 0.535022 47.6425 0.893639 47.8029 0.915568C48.0848 0.954268 50.1987 1.25225 50.5748 1.14132C50.7574 1.08488 51.2787 0.770445 51.7643 0.464073C51.9259 0.361841 51.8648 0.109326 51.6741 0.0951366C50.8373 0.0317122 49.9932 0 49.1418 0ZM43.3154 0.491163C43.1114 0.630159 43.1328 0.949108 43.2711 0.965878C43.5424 1.00426 46.3699 0.943626 46.6409 0.849779C46.8125 0.794632 48.2229 0.00515995 47.7198 0.0322497C46.152 0.119646 44.7539 0.24284 43.3154 0.491163ZM37.0962 2.16331C36.7606 2.35487 37.8321 2.32456 37.987 2.30682C38.375 2.26812 40.9804 1.68311 41.7496 1.42382C42.1812 1.27483 42.8431 0.567594 42.5407 0.634674C40.9969 0.977488 37.8826 1.71472 37.0962 2.16331ZM35.9562 2.61222C34.5054 3.0176 32.3928 4.25696 30.7442 5.29411C30.9543 5.27766 31.137 5.25573 31.2641 5.23896C31.7733 5.16188 34.1194 4.69813 34.562 4.42208C35.0046 4.15182 36.1499 3.02018 36.1499 2.80959C36.1499 2.74832 36.0804 2.57578 35.9562 2.61222ZM25.1778 9.6104C24.7824 10.009 26.334 9.47786 26.6606 9.41175C27.3855 9.26824 27.9995 8.9925 28.1155 8.42362C28.1576 8.20948 28.1786 7.86537 28.1873 7.5145C28.1883 7.47289 28.1775 7.43184 28.1562 7.39607C28.1348 7.36029 28.1038 7.33123 28.0667 7.31221C28.0296 7.2932 27.9879 7.28499 27.9463 7.28854C27.9047 7.29209 27.865 7.30725 27.8316 7.33229C26.9105 8.04597 25.7834 8.99766 25.1778 9.60847V9.6104ZM38.8716 13.0469C38.2686 12.7048 34.3897 11.2532 33.3993 10.8888C32.4145 10.5247 29.4431 9.69135 28.6351 9.73553C28.1501 9.75617 26.258 9.98869 24.8234 10.168C24.6608 10.1879 24.5096 10.2616 24.394 10.3773C23.76 11.0113 23.1499 11.6754 22.5666 12.3613C22.4736 12.4715 22.4152 12.6067 22.399 12.7498C22.3827 12.893 22.4092 13.0377 22.4751 13.1659C22.7218 13.6497 22.9895 14.155 23.2187 14.5478C23.8437 15.6121 24.4357 15.6904 25.7197 15.7733C27.0033 15.8507 30.2236 16.0329 31.1975 15.7733C32.1713 15.5137 37.6711 13.9799 38.5564 13.7977C39.4417 13.6155 39.4698 13.3836 38.8716 13.0469ZM23.717 16.6008C23.5553 16.3016 22.6765 14.7642 22.0144 13.6197C21.9921 13.5812 21.9608 13.5488 21.9231 13.5253C21.8854 13.5017 21.8424 13.4877 21.7981 13.4845C21.7537 13.4813 21.7092 13.4891 21.6685 13.507C21.6278 13.5249 21.5921 13.5526 21.5646 13.5874C20.4646 14.9978 19.4712 16.4878 18.5926 18.045C18.5698 18.0855 18.5557 18.1303 18.5509 18.1765C18.5462 18.2227 18.551 18.2694 18.5651 18.3137C18.5791 18.358 18.6021 18.399 18.6327 18.4341C18.6632 18.4692 18.7006 18.4977 18.7426 18.5178C19.7362 18.9915 21.0311 19.5956 21.3984 19.7194C22.0237 19.929 22.2837 19.7687 22.6765 19.355C23.0639 18.9409 23.9769 17.0978 23.717 16.6008ZM20.636 20.0064C20.1834 19.7626 19.268 19.3998 18.4936 19.1066C18.3842 19.065 18.2632 19.065 18.1538 19.1066C18.0444 19.1482 17.9541 19.2286 17.9003 19.3324C17.2521 20.5924 16.6788 21.8893 16.1835 23.2165C16.1694 23.253 16.1655 23.2926 16.1721 23.3311C16.1787 23.3696 16.1956 23.4057 16.221 23.4354C16.2465 23.4651 16.2795 23.4874 16.3166 23.5C16.3537 23.5126 16.3935 23.5149 16.4318 23.5068C17.913 23.1788 21.401 21.3338 21.7085 21.1229C22.0515 20.8894 21.5035 20.4698 20.636 20.0064ZM33.1164 23.8199C31.6834 23.2236 30.018 23.0195 28.8724 22.9147C27.7217 22.8099 21.1094 22.4732 20.4621 22.6277C20.0314 22.7299 17.4626 23.9138 15.78 24.7045C15.7361 24.7251 15.697 24.7545 15.6651 24.7908C15.6331 24.8272 15.6091 24.8697 15.5944 24.9158C15.4906 25.2351 15.3939 25.5588 15.3008 25.8833C15.2774 25.9656 15.2847 26.0535 15.3211 26.1309C15.3576 26.2083 15.4209 26.2699 15.4993 26.3045C17.869 27.3387 22.8925 29.58 23.3238 29.5588C23.8715 29.5368 30.8489 28.0024 32.2043 27.6383C33.5597 27.2742 36.8635 26.0049 36.8137 25.7949C36.7587 25.5859 34.5452 24.4214 33.1164 23.8199ZM22.188 30.266C22.0221 30.1048 16.4224 27.5119 15.7696 27.12C15.65 27.0495 15.5185 27.0012 15.3816 26.9775C15.2829 26.9585 15.1806 26.9779 15.0959 27.032C15.0112 27.086 14.9505 27.1704 14.9264 27.2677C14.5649 28.7493 14.2944 30.2515 14.1165 31.7659C14.1115 31.811 14.1173 31.8565 14.1333 31.899C14.1493 31.9414 14.1751 31.9794 14.2086 32.01C14.2421 32.0406 14.2824 32.0629 14.3261 32.0751C14.3699 32.0872 14.4159 32.0889 14.4605 32.08C15.8847 31.7827 17.9873 31.2738 18.9518 31.0661C20.3916 30.7572 22.3613 30.4205 22.1896 30.266H22.188ZM25.9285 31.2761C24.4678 30.9116 23.6378 30.9394 22.9863 31.0442C22.3348 31.149 17.2815 32.4183 16.3186 32.6502C15.853 32.7628 15.0143 32.953 14.2597 33.1662C14.1757 33.1898 14.1009 33.2385 14.0457 33.3059C13.9904 33.3733 13.9574 33.4561 13.9509 33.5429C13.9425 33.6609 13.9347 33.7799 13.9289 33.8976C13.9234 33.9924 13.9373 34.0873 13.9698 34.1766C14.0023 34.2658 14.0527 34.3475 14.118 34.4167C14.1832 34.4858 14.262 34.5409 14.3493 34.5787C14.4367 34.6164 14.5308 34.636 14.626 34.6362H34.1226C34.2877 34.6378 34.4518 34.6108 34.6076 34.5562C34.8 34.4865 34.9836 34.3927 35.1805 34.3327C35.9982 34.0847 27.1025 31.5686 25.9302 31.2761H25.9285ZM39.4407 26.6292C38.8429 26.5518 37.0723 26.6015 36.0542 26.9933C35.0434 27.38 28.4809 29.5085 27.4905 29.7694C26.5002 30.0303 25.8526 30.266 26.4779 30.5475C26.9409 30.7597 33.0291 32.676 36.1777 33.6619C36.4134 33.7361 36.6681 33.7225 36.8945 33.6235C39.182 32.6205 41.2675 31.4657 42.1324 30.3157C42.8046 29.4188 43.253 28.6864 43.4638 28.0082C43.4839 27.9406 43.4896 27.8696 43.4806 27.7996C43.4717 27.7297 43.4482 27.6624 43.4117 27.602C43.3752 27.5416 43.3265 27.4895 43.2686 27.4489C43.2108 27.4084 43.1452 27.3803 43.0759 27.3664C41.6768 27.0704 39.8057 26.6779 39.4423 26.6292H39.4407ZM41.51 23.5039C41.468 23.458 41.4143 23.4243 41.3546 23.4065C41.2949 23.3887 41.2315 23.3873 41.1711 23.4026C40.1142 23.6838 38.762 24.0454 38.2677 24.2118C37.4099 24.4988 36.5744 24.99 37.3048 25.3044C37.7762 25.5014 40.842 26.0829 42.9698 26.4763C43.2307 26.5244 43.4522 26.2654 43.3491 26.0213C43.0426 25.2908 42.4376 24.4985 41.5116 23.5039H41.51ZM38.6518 20.6753C38.6046 20.6292 38.5417 20.6027 38.4757 20.601C38.4097 20.5994 38.3456 20.6227 38.2961 20.6662C37.2696 21.557 35.7418 22.885 35.3021 23.301C34.627 23.9522 34.627 24.1344 35.7173 24.0296C36.4567 23.9599 38.8943 23.3226 40.3906 22.9192C40.436 22.9071 40.4773 22.8833 40.5103 22.85C40.5433 22.8168 40.5669 22.7754 40.5787 22.7301C40.5904 22.6848 40.5899 22.6372 40.5771 22.5922C40.5644 22.5471 40.5398 22.5063 40.5061 22.4738C40.023 22.0004 39.1394 21.1432 38.6534 20.6753H38.6518ZM37.2162 20.0558C35.703 19.7194 31.6291 19.2279 31.3527 19.2779C31.0814 19.3276 29.986 20.1332 29.2556 20.8065C28.5307 21.4799 28.6636 21.8221 29.394 22.1088C30.1189 22.3958 34.2688 23.3784 34.6393 23.1188C35.0098 22.8592 37.8819 20.2047 37.2178 20.0558H37.2162ZM38.2583 16.4602C38.495 16.3328 38.5082 15.9965 38.2767 15.8601C37.7232 15.5337 37.1994 15.2409 37.028 15.1993C36.6187 15.0945 36.0542 15.0171 35.4292 15.1993C34.8042 15.3815 31.5493 16.496 31.3511 16.7334C31.1571 16.9653 30.9527 18.3175 31.3511 18.5216C31.5884 18.6426 34.4822 19.0718 36.8366 19.4017C37.063 19.434 37.2262 19.1811 37.0975 18.9922C36.4528 18.0447 36.6452 17.3261 38.2599 16.4602H38.2583ZM30.6666 18.0027C30.5893 17.3577 30.4341 16.5734 29.7315 16.5238C29.0286 16.4796 25.482 16.4409 25.1888 16.5183C24.901 16.6008 22.8039 20.0558 22.5162 20.7569C22.2339 21.4576 22.2339 22.0814 23.0639 22.0814C23.8993 22.0814 26.5387 22.269 26.8652 22.0814C27.5293 21.706 30.0526 19.2998 30.3015 19.057C30.5447 18.8141 30.7442 18.6542 30.6666 18.0027ZM45.1581 12.8205C43.9737 13.0856 40.1174 13.8248 38.9502 14.0567C37.7775 14.2885 37.3623 14.6307 37.7164 14.8903C37.8991 15.0242 38.5813 15.4063 39.1888 15.7446C39.273 15.7914 39.3668 15.8184 39.4631 15.8236C39.5593 15.8289 39.6555 15.8122 39.7443 15.7749C40.0285 15.6575 40.3376 15.5363 40.6713 15.4089C43.6646 14.2776 45.3517 13.6216 47.9196 12.7431C49.1638 12.3174 45.8772 12.6551 45.1581 12.8205ZM50.7193 10.8778C50.4981 9.79616 46.2432 8.94574 45.7339 8.75256C45.6288 8.71386 44.1018 8.32816 43.9744 8.28946C43.5595 8.16239 39.5978 8.28946 39.1054 8.28946C38.613 8.28946 37.5893 8.71999 36.7775 9.2663C36.0471 9.75198 34.7909 10.3921 35.0962 10.6569C35.4059 10.9165 37.2301 11.6947 37.8296 12.0037C38.4326 12.3184 40.358 13.1463 41.0884 13.0679C41.6299 13.0108 46.6033 12.1726 49.2963 11.715C49.5873 11.6655 49.866 11.561 50.1176 11.407C50.4144 11.2251 50.7497 11.0275 50.7187 10.8778H50.7193ZM38.2712 6.81049C37.9337 6.50121 35.6041 5.33119 35.2998 5.12157C35.0926 4.98387 32.2147 5.38505 30.3494 5.65659C30.1978 5.67846 30.0532 5.73436 29.9265 5.8201C29.6678 5.9936 29.4117 6.17012 29.1583 6.34964C29.0285 6.44114 28.9222 6.56179 28.8479 6.70185C28.7736 6.84191 28.7334 6.99745 28.7305 7.15588C28.7176 7.81861 28.7182 8.52294 28.7706 8.65388C28.8757 8.91188 33.1032 10.3592 33.5623 10.2664C34.7298 10.0238 36.9155 8.47296 37.5906 7.87698C38.2693 7.2794 38.6068 7.12492 38.2693 6.81049H38.2712ZM42.587 7.32906C42.2772 7.03656 41.9617 6.68891 41.6296 6.49057C41.2979 6.29707 40.7566 6.57345 40.2464 6.8437C39.7362 7.11396 38.7025 7.6822 39.0954 7.6822H42.3768C42.9006 7.68252 42.8948 7.62157 42.585 7.32906H42.587ZM39.8904 2.42292C39.5584 2.36197 37.2844 2.80346 36.9744 2.91956C36.6591 3.03534 35.6355 4.01766 35.5967 4.31017C35.5579 4.60267 38.009 6.19226 38.4743 6.31932C38.9224 6.4351 39.4979 6.65021 40.3224 6.31932C41.2297 5.9549 41.6393 5.70658 42.1262 5.31958C42.6132 4.92775 43.62 4.19375 43.7972 3.96187C43.9737 3.72516 40.2225 2.47774 39.8904 2.42292ZM48.5443 3.74741C48.2953 3.57617 48.1126 3.51005 47.659 3.61487C47.1999 3.71968 44.9088 4.05636 44.494 4.21632C44.0788 4.37112 43.05 5.11028 42.6568 5.51341C42.2688 5.9162 42.1757 6.12034 42.3982 6.42962C42.437 6.4738 43.04 7.053 43.361 7.053C43.6876 7.05881 46.5371 6.30255 47.035 6.17581C47.5757 6.02391 48.0865 5.78126 48.5456 5.45826C49.038 5.12157 49.298 4.83455 49.3755 4.68007C49.4574 4.5256 48.7932 3.91285 48.5443 3.74741ZM51.7591 6.86563C51.3275 6.72212 48.9093 6.13711 48.6875 6.13711C48.4657 6.13711 46.7349 6.64343 46.1982 6.83693C45.667 7.03043 44.0513 7.71993 44.1952 7.83667C44.3391 7.95342 45.1358 8.23399 45.1358 8.23399C45.1358 8.23399 45.8772 8.45458 46.5801 8.65904H46.5856C47.0382 8.65904 47.5927 8.67549 48.0793 8.71967C48.359 8.74321 48.8168 8.80319 49.3558 8.90317C49.443 8.9197 49.5327 8.91744 49.6189 8.89652C49.7051 8.87561 49.7859 8.83653 49.8557 8.78191C50.3281 8.4091 51.4028 7.56029 51.5486 7.44452C51.8254 7.22393 52.1908 7.00366 51.7591 6.86563ZM57.1095 8.16239C56.5786 8.02985 54.0379 7.78733 53.2807 7.74863C52.5283 7.70445 51.7866 7.82603 51.4878 8.04662C51.3562 8.13917 51.0158 8.42426 50.6695 8.71935C50.6288 8.75405 50.5984 8.79917 50.5815 8.84985C50.5647 8.90052 50.562 8.95483 50.5737 9.00692C50.5855 9.059 50.6113 9.1069 50.6483 9.14545C50.6854 9.18399 50.7323 9.21173 50.784 9.22567C52.1943 9.60589 53.5536 10.0738 53.7405 11.5844C53.7485 11.6696 53.7881 11.7488 53.8517 11.8063C53.9152 11.8638 53.998 11.8956 54.0838 11.8953C54.5582 11.8834 54.9536 11.8398 55.0625 11.7221C55.3613 11.3967 57.2647 9.16149 57.4639 8.8248C57.6569 8.48812 57.6462 8.28817 57.1095 8.16239ZM62.6206 5.98264C62.3827 5.77269 60.507 4.9284 60.2746 4.77392C60.0366 4.61267 59.5775 4.73522 59.2842 4.82358C58.991 4.91743 54.0609 5.76173 53.7123 5.83913C53.7123 5.83913 52.7605 6.03262 52.5781 6.13711C52.3957 6.2416 52.6428 6.68342 52.8271 6.8766C53.0114 7.06977 54.166 7.42291 55.2727 7.51127C56.3791 7.60512 58.1885 7.74315 58.5318 7.73702C58.8691 7.73122 61.4974 6.72148 62.1505 6.48412C62.7978 6.25289 62.8586 6.18678 62.6206 5.98264ZM58.991 3.89092C58.5706 3.75838 52.2903 2.61577 51.4992 2.4613C50.7022 2.30682 50.2873 2.32875 49.8337 2.62706C49.3743 2.93053 48.854 3.28914 48.9316 3.4333C49.0147 3.57681 51.2001 5.1664 51.5764 5.3815C51.5764 5.3815 52.0359 5.76237 52.517 5.69626C52.9981 5.63015 58.0889 4.61428 58.6977 4.44884C59.3117 4.27727 59.4116 4.01766 58.991 3.89092ZM51.1781 5.7011C50.8684 5.49696 50.0937 4.95613 49.9608 4.98354C49.8224 5.01128 49.3853 5.37538 49.3853 5.37538C49.2084 5.50792 48.8155 5.73432 49.081 5.78398C49.3465 5.82784 50.8296 6.03779 51.1781 6.04198C51.5321 6.05423 51.4937 5.91072 51.1781 5.7011ZM48.8708 1.56733C48.2287 1.51219 45.6117 1.29128 45.0527 1.27483C44.494 1.2529 43.5424 1.36868 43.1383 1.52315C42.7344 1.6844 41.1188 2.21878 41.3344 2.30682C41.3344 2.30682 43.7526 3.27818 44.1842 3.43266C44.6159 3.5939 45.3185 3.51005 46.2212 3.33881C47.1174 3.1624 48.3901 2.9086 48.7386 2.7538C49.0926 2.59932 49.5188 2.04753 49.5964 1.86532C49.6785 1.68311 49.5071 1.617 48.8708 1.56733Z" fill="url(#paint0_linear_275_16744)"/>
<path d="M0.136719 51.9407H0.566097C1.12028 51.9407 1.38347 51.5814 1.38347 50.8629V44.2727C1.38347 43.5542 1.12028 43.1814 0.566097 43.1814H0.136719V42.7253H4.6662C6.68861 42.7253 7.77014 43.955 7.77014 45.1015C7.77014 45.9584 7.11928 46.7733 5.98344 47.2016C7.50695 47.5057 8.4627 48.597 8.4627 49.7851C8.4627 51.1532 7.21628 52.3973 4.86149 52.3973H0.136719V51.9407ZM4.16763 47.0636C5.33161 47.0636 5.82953 46.1241 5.82953 45.1982C5.82953 44.1898 5.26177 43.1814 4.23682 43.1814H3.87664C3.46116 43.1814 3.26717 43.4439 3.26717 43.9824V47.0636H4.16763ZM3.26717 50.8078C3.26717 51.5537 3.53036 51.9407 4.08454 51.9407H4.51392C5.80205 51.9407 6.52242 50.9458 6.52242 49.7577C6.52242 48.5832 5.77424 47.547 4.5692 47.547H3.26717V50.8078Z" fill="black"/>
<path d="M12.3258 47.8234V50.8629C12.3258 51.5814 12.5889 51.9407 13.1289 51.9407H13.5169V52.3964H9.19531V51.9407H9.62469C10.1785 51.9407 10.4417 51.5814 10.4417 50.8629V44.2727C10.4417 43.5542 10.1785 43.1814 9.62469 43.1814H9.19531V42.7253H13.8215C15.927 42.7253 17.0224 44.2865 17.0224 45.8213C17.0224 46.9958 16.3298 48.1562 15.194 48.5709L16.9529 50.9748C17.424 51.624 17.9365 51.9423 18.4214 51.9423H18.7813V52.398H14.4597V51.9423H14.8613C15.4016 51.9423 15.3877 51.5692 14.9583 50.9748L13.1987 48.528C12.8797 48.3762 12.5887 48.1414 12.3258 47.8234ZM13.6139 48.0859C14.5279 48.0859 15.096 46.9946 15.096 45.8607C15.096 44.5342 14.417 43.1804 13.1706 43.1804H12.9352C12.5333 43.1804 12.3258 43.498 12.3258 44.0921V47.1593C12.575 47.7266 13.0875 48.0859 13.6139 48.0859Z" fill="black"/>
<path d="M23.7392 42.5457C26.6064 42.5457 28.9334 44.7009 28.9334 47.5608C28.9334 50.4068 26.6055 52.5759 23.7392 52.5759C20.8729 52.5759 18.5449 50.4062 18.5449 47.5608C18.5449 44.7009 20.8722 42.5457 23.7392 42.5457ZM24.1411 51.9542C25.9278 51.9542 26.8835 50.1721 26.8835 48.2239C26.8835 45.8338 25.457 43.1674 23.3376 43.1674C21.5509 43.1674 20.5951 44.9495 20.5951 46.9116C20.5951 49.3016 22.0081 51.9542 24.1411 51.9542Z" fill="black"/>
<path d="M31.0126 50.6143C30.6524 51.4985 30.7494 51.9407 31.8018 51.9407H32.0236V52.3964H28.5469V51.9407H28.9071C29.4195 51.9407 29.7658 51.6088 30.0429 50.9596L33.2286 43.1675C33.3809 42.7944 33.5749 42.5596 33.8659 42.5596C34.1983 42.5596 34.3645 42.7944 34.5307 43.1675L37.8829 50.9596C38.1739 51.6088 38.6589 51.9407 39.2409 51.9407H39.4349V52.3964H34.7108V51.9407H34.9462C35.8466 51.9407 36.0681 51.5676 35.7913 50.8764L35.1954 49.3843C35.0984 49.1634 34.9323 49.0529 34.6969 49.0527H32.0097C31.7604 49.0527 31.5942 49.1633 31.4972 49.3981L31.0126 50.6143ZM34.4615 48.3345C34.6691 48.3345 34.7247 48.2378 34.6416 48.0443L33.3395 44.7977L32.0514 48.0307C31.9683 48.2378 32.0375 48.3345 32.259 48.3345H34.4615Z" fill="black"/>
<path d="M39.9062 43.1823V42.7263H44.7403C48.2866 42.7263 49.9485 45.2131 49.9485 47.6725C49.9485 50.0625 48.3832 52.3974 44.8234 52.3974H39.9062V51.9417H40.3356C40.8898 51.9417 41.153 51.5824 41.153 50.8639V44.2727C41.153 43.5542 40.8898 43.1814 40.3356 43.1814L39.9062 43.1823ZM44.4218 51.9417C46.8319 51.9417 47.9817 49.8828 47.9817 47.7553C47.9817 45.5033 46.6935 43.1823 44.2834 43.1823H43.7571C43.2721 43.1823 43.0367 43.5 43.0367 44.1079V51.0287C43.0367 51.6366 43.2721 51.9407 43.7571 51.9407L44.4218 51.9417Z" fill="black"/>
<path d="M56.4435 42.5734L57.0529 44.8115H56.6375L56.5266 44.6041C55.9724 43.5267 54.8643 43.1674 53.9778 43.1674C52.8419 43.1674 52.205 43.7615 52.205 44.4522C52.205 46.4556 57.5098 46.0273 57.5098 49.4535C57.5098 51.1253 56.2488 52.4653 54.2549 52.4653C53.1468 52.4653 52.1355 52.0509 51.7329 52.0509C51.525 52.0509 51.4558 52.1477 51.2896 52.4379H50.9443V49.3706H51.4015C51.6647 50.7938 52.6066 51.8439 54.1718 51.8439C55.543 51.8439 56.2634 51.0425 56.2634 50.1859C56.2634 47.8785 50.9582 48.3067 50.9582 45.1569C50.9582 43.7337 52.0388 42.5447 53.8808 42.5447C54.726 42.5447 55.3629 42.7933 55.7787 42.7933C55.9449 42.7933 55.9449 42.752 56.1247 42.5724L56.4435 42.5734Z" fill="black"/>
<path d="M63.8818 44.3278V50.8629C63.8818 51.5814 64.1728 51.9407 64.8101 51.9407H65.2395V52.3964H60.6408V51.9407H61.0702C61.7071 51.9407 61.9981 51.5814 61.9981 50.8629V44.3278C61.9981 43.6235 61.7349 43.2636 61.1808 43.2636H60.6683C59.6572 43.2636 59.1163 43.5674 58.6462 44.5213L58.5353 44.7426H58.0771L58.5757 42.7253H67.3023L67.8009 44.7426H67.3437L67.2331 44.5213C66.762 43.568 66.2217 43.2636 65.2107 43.2636H64.6982C64.145 43.2642 63.8818 43.6235 63.8818 44.3278Z" fill="black"/>
<path d="M73.467 42.5457C76.3343 42.5457 78.6613 44.7009 78.6613 47.5608C78.6613 50.4068 76.3333 52.5759 73.467 52.5759C70.6007 52.5759 68.2725 50.4068 68.2725 47.5608C68.2725 44.7009 70.5998 42.5457 73.467 42.5457ZM73.8686 51.9542C75.6553 51.9542 76.6114 50.1721 76.6114 48.2239C76.6114 45.8338 75.1845 43.1674 73.0651 43.1674C71.2784 43.1674 70.3227 44.9495 70.3227 46.9116C70.3227 49.3016 71.7356 51.9542 73.8686 51.9542Z" fill="black"/>
<path d="M79.5201 43.1823V42.7263H81.8057L87.6233 49.5513V44.3833C87.6233 43.4851 87.2218 43.1814 86.6815 43.1814H86.266V42.7253H89.701V43.1823H89.1608C88.6069 43.1823 88.3437 43.5413 88.3437 44.2598V52.3973H87.6647L81.5422 45.365V50.5875C81.5422 51.4856 82.0133 51.942 82.6228 51.942H83.0376V52.3977H79.4648V51.942H79.8942C80.5315 51.942 80.8222 51.5827 80.8222 50.8642V44.5491C80.8222 43.6783 80.4206 43.1814 79.7141 43.1814L79.5201 43.1823Z" fill="black"/>
<path d="M96.5992 46.0964H97.0285V48.915H96.5992V48.7767C96.5992 48.141 96.2665 47.8092 95.6434 47.8092H93.524V50.8487C93.524 51.5534 93.7872 51.913 94.3275 51.913H94.8674C96.4883 51.913 97.0838 51.6227 97.5685 50.6552L97.6794 50.4343H98.1369L97.5827 52.3961H90.3936V51.9404H90.8229C91.3771 51.9404 91.6403 51.5672 91.6403 50.8487V44.2727C91.6403 43.5542 91.3771 43.1814 90.8229 43.1814H90.3936V42.7253H97.3053L97.8595 44.6871H97.4023L97.2917 44.4662C96.8067 43.4987 96.2112 43.2084 94.5907 43.2084H94.3275C93.7872 43.2084 93.524 43.5264 93.524 44.1617V47.2013H95.6434C96.2665 47.2013 96.5992 46.8697 96.5992 46.2338V46.0964Z" fill="black"/>
<path d="M13.8369 66.8535V58.3174H14.6928V66.1586H18.7395V66.8535H13.8369Z" fill="black"/>
<path d="M20.0605 66.8535L23.0675 58.3174H24.2897L27.2491 66.8535H26.3438L23.6925 59.0246H23.6559L20.9652 66.8535H20.0605ZM21.5275 64.2316L21.7842 63.5244H25.5254L25.7821 64.2316H21.5275Z" fill="black"/>
<path d="M28.96 66.8535V58.3174H30.1828L34.5105 65.8293H34.5474V58.3174H35.4029V66.8535H34.2173L29.8523 59.2929H29.8155V66.8535H28.96Z" fill="black"/>
<path d="M37.6162 66.8535V58.3174H40.1472C41.1577 58.3174 41.9869 58.4881 42.6349 58.8295C43.2828 59.1709 43.7637 59.6627 44.0776 60.3049C44.3912 60.9473 44.5481 61.7156 44.5483 62.6098C44.5483 63.4881 44.3914 64.2441 44.0776 64.8779C43.7637 65.5117 43.2828 65.9996 42.6349 66.3414C41.9869 66.6826 41.1577 66.8533 40.1472 66.8535H37.6162ZM38.4721 66.1463H40.1472C41.0109 66.1463 41.6996 66.004 42.2133 65.7193C42.7123 65.4508 43.1047 65.0207 43.3258 64.5C43.5537 63.9717 43.6678 63.3417 43.6682 62.6098C43.6682 61.87 43.5541 61.2319 43.3258 60.6955C43.1066 60.1689 42.7142 59.7324 42.2133 59.4577C41.6998 59.169 41.0111 59.0246 40.1472 59.0246H38.4721V66.1463Z" fill="black"/>
<path d="M49.353 67C48.7253 67 48.1812 66.8861 47.7208 66.6584C47.2604 66.4308 46.908 66.1117 46.6635 65.7013C46.4191 65.2906 46.2969 64.8211 46.2969 64.2926H47.1893C47.1859 64.6372 47.27 64.977 47.4337 65.2804C47.6018 65.5865 47.8543 65.8383 48.1612 66.006C48.4832 66.1888 48.8806 66.2803 49.3533 66.2805C49.7768 66.2805 50.1335 66.2093 50.4232 66.067C50.7129 65.9247 50.9349 65.7357 51.0892 65.5C51.244 65.2647 51.3249 64.9887 51.3217 64.7073C51.3217 64.3418 51.2462 64.0491 51.0954 63.8292C50.9374 63.6036 50.7252 63.4211 50.4781 63.2987C50.1918 63.1541 49.893 63.0354 49.5854 62.9439C49.2515 62.8424 48.9012 62.7306 48.5343 62.6085C47.8741 62.3811 47.3911 62.1006 47.0855 61.7671C46.7798 61.4337 46.6229 61.0069 46.6147 60.4868C46.6147 60.0398 46.7186 59.6414 46.9264 59.2916C47.1342 58.9418 47.4378 58.6675 47.8372 58.4686C48.2366 58.2693 48.7094 58.1697 49.2556 58.1697C49.7932 58.1697 50.2598 58.2714 50.6553 58.4748C51.0509 58.6781 51.3565 58.9566 51.5723 59.31C51.7878 59.6635 51.8956 60.0638 51.8956 60.511H51.0155C51.012 60.2351 50.9377 59.9647 50.7996 59.7256C50.6616 59.4865 50.4644 59.2867 50.2269 59.1452C49.9618 58.9827 49.6214 58.9014 49.2058 58.9014C48.8715 58.9014 48.5761 58.9603 48.3196 59.0782C48.0729 59.1876 47.8629 59.3654 47.7143 59.5903C47.5675 59.8141 47.4943 60.0804 47.4945 60.3891C47.4945 60.6819 47.5576 60.9197 47.6839 61.1025C47.823 61.2964 48.0076 61.4535 48.2216 61.5598C48.4866 61.695 48.7628 61.8072 49.0471 61.8952C49.3648 61.9971 49.7193 62.113 50.1105 62.2428C50.4892 62.3676 50.8523 62.5353 51.1927 62.7427C51.4971 62.9283 51.7511 63.1858 51.9321 63.4925C52.1115 63.7976 52.2011 64.1859 52.2011 64.6573C52.1999 65.0523 52.0922 65.4397 51.8895 65.779C51.6814 66.137 51.3657 66.4297 50.9421 66.6571C50.5185 66.8846 49.9888 66.9989 49.353 67Z" fill="black"/>
<path d="M58.0089 67.0001C57.1857 67.0001 56.4685 66.8151 55.8572 66.4451C55.2459 66.075 54.7752 65.559 54.4452 64.8971C54.115 64.2347 53.95 63.4643 53.9502 62.5861C53.9504 61.7078 54.1175 60.9376 54.4514 60.2754C54.7855 59.613 55.2561 59.097 55.8633 58.7274C56.4705 58.3578 57.1857 58.1728 58.0089 58.1724C58.9789 58.1724 59.7613 58.3981 60.3563 58.8496C60.9512 59.3011 61.3384 59.9373 61.518 60.7581H60.5642C60.442 60.2054 60.1669 59.7602 59.739 59.4227C59.3112 59.0851 58.7345 58.9165 58.0089 58.9167C57.3733 58.9167 56.817 59.063 56.3402 59.3556C55.8634 59.6482 55.4926 60.071 55.2277 60.624C54.9625 61.1767 54.8301 61.8311 54.8303 62.587C54.8303 63.3513 54.9627 64.0078 55.2277 64.5565C55.4926 65.1052 55.8634 65.5259 56.3402 65.8188C56.8172 66.1112 57.3735 66.2575 58.0089 66.2577C58.7345 66.2577 59.3112 66.0911 59.739 65.7578C60.1669 65.4246 60.442 64.9855 60.5642 64.4407H61.518C61.3384 65.2457 60.9512 65.8737 60.3563 66.3248C59.7613 66.7758 58.9789 67.0009 58.0089 67.0001Z" fill="black"/>
<path d="M62.8135 66.8535L65.8204 58.3174H67.0429L70.0023 66.8535H69.097L66.4438 59.0246H66.4072L63.7181 66.8535H62.8135ZM64.2807 64.2316L64.5375 63.5244H68.2783L68.5351 64.2316H64.2807Z" fill="black"/>
<path d="M71.7139 66.8535V58.3174H74.4156C75.0758 58.3174 75.6199 58.4249 76.0477 58.6399C76.4756 58.8549 76.7914 59.1451 76.9951 59.5106C77.1988 59.8761 77.3007 60.2947 77.301 60.7664C77.3067 61.1983 77.2014 61.6244 76.9951 62.0042C76.7914 62.3744 76.4777 62.6671 76.0539 62.8823C75.6301 63.0975 75.084 63.205 74.4156 63.2048H72.5694V66.8535H71.7139ZM72.5694 62.4757H74.4156C75.1407 62.4757 75.6562 62.3212 75.9621 62.0122C76.2679 61.7033 76.4208 61.2887 76.4205 60.7684C76.4205 60.2156 76.2677 59.7888 75.9621 59.488C75.6564 59.1873 75.1409 59.0368 74.4156 59.0365H72.5694V62.4757Z" fill="black"/>
<path d="M79.1592 66.8535V58.3174H84.3554V59.0246H80.015V62.2073H83.9884V62.9146H80.015V66.1463H84.3554V66.8535H79.1592Z" fill="black"/>
</g>
<defs>
<linearGradient id="paint0_linear_275_16744" x1="49.1421" y1="91.4179" x2="49.1421" y2="-24.4372" gradientUnits="userSpaceOnUse">
<stop stop-color="#054F41"/>
<stop offset="0.28" stop-color="#065546"/>
<stop offset="0.67" stop-color="#096855"/>
<stop offset="1" stop-color="#0D7C66"/>
</linearGradient>
<clipPath id="clip0_275_16744">
<rect width="98" height="67" fill="white" transform="translate(0.136719)"/>
</clipPath>
</defs>
</svg>
