<svg width="49" height="25" viewBox="0 0 49 25" fill="none" xmlns="http://www.w3.org/2000/svg">
<path d="M48.2982 19.6707C48.2811 19.6003 48.25 19.5345 48.2067 19.4774C48.1634 19.4203 48.1091 19.3733 48.0471 19.3394C47.9851 19.3055 47.917 19.2854 47.847 19.2806C47.7771 19.2757 47.7069 19.2861 47.6411 19.3111C45.4141 20.1506 40.8896 21.8873 39.741 22.5735C39.1406 22.931 40.3837 24.004 41.5521 24.8545C41.6837 24.9496 41.8404 25.0004 42.0009 25H48.5144C48.5802 25.0001 48.6453 24.9863 48.7058 24.9595C48.7663 24.9327 48.8209 24.8935 48.8663 24.8442C48.9117 24.7948 48.9469 24.7365 48.9697 24.6726C48.9926 24.6088 49.0027 24.5408 48.9994 24.4728C48.9076 22.8533 48.6729 21.2459 48.2982 19.6707ZM38.5076 23.6078C38.37 23.9387 38.2148 24.2614 38.0426 24.5745C38.0189 24.6179 38.0066 24.6669 38.007 24.7167C38.0073 24.7665 38.0203 24.8153 38.0446 24.8583C38.0689 24.9013 38.1036 24.9369 38.1454 24.9617C38.1872 24.9864 38.2345 24.9994 38.2826 24.9993H40.7272C40.7537 24.9993 40.7795 24.9906 40.801 24.9745C40.8224 24.9584 40.8384 24.9356 40.8465 24.9095C40.8547 24.8834 40.8546 24.8553 40.8464 24.8292C40.8381 24.8032 40.822 24.7805 40.8005 24.7644L39.047 23.4528C39.0034 23.4202 38.9533 23.3982 38.9004 23.3883C38.8475 23.3785 38.7931 23.3811 38.7412 23.396C38.6894 23.4109 38.6415 23.4377 38.601 23.4743C38.5606 23.511 38.5286 23.5566 38.5076 23.6078ZM47.2508 18.4824C45.734 17.8212 41.7725 16.7337 41.149 16.706C40.7009 16.6844 37.924 17.344 36.0452 17.8931C35.836 17.9545 35.8057 18.2469 35.9953 18.3567C37.4663 19.207 38.5982 20.216 38.8522 21.4059C38.9039 21.6485 39.1244 21.8084 39.3595 21.7588C39.7603 21.6743 40.1452 21.5817 40.3601 21.5028C42.3048 20.7856 47.86 18.7494 47.2508 18.4824ZM40.4955 15.3555C39.4369 15.021 34.8717 13.7106 34.5054 13.6189C34.1392 13.5272 33.1888 13.6422 32.4651 13.8379C31.9963 13.968 30.0538 14.6468 28.7595 15.103C28.7257 15.1148 28.6965 15.1374 28.6758 15.1674C28.6551 15.1974 28.6441 15.2334 28.6444 15.2703C28.6446 15.3071 28.656 15.343 28.677 15.3727C28.6981 15.4025 28.7276 15.4246 28.7615 15.4361C30.7539 16.1173 32.8304 16.8559 34.1127 17.4189C34.2027 17.4588 34.2947 17.4997 34.3855 17.5409C34.5599 17.6213 34.7553 17.6385 34.9403 17.5898C36.9266 17.0593 39.9533 16.2544 40.3616 16.1443C40.9767 15.977 41.5579 15.6942 40.4955 15.3555ZM32.1272 13.2404C31.7653 13.117 28.447 12.2486 27.931 12.1809C27.4152 12.1092 26.8962 12.1809 26.1217 12.2765C25.679 12.3343 24.3081 12.5812 23.2099 12.7844C22.9957 12.824 22.8819 13.09 23.0193 13.2644C23.1568 13.4387 23.3896 13.5916 23.7502 13.7264C24.3551 13.9541 25.5049 14.337 26.8498 14.7927C26.9813 14.8377 27.1225 14.8431 27.2568 14.8081C28.4612 14.4903 30.3924 13.9818 31.1417 13.7823C32.2649 13.4834 32.4881 13.3605 32.1263 13.2404H32.1272ZM28.088 8.9185C28.0371 8.91454 27.9618 8.91058 27.8711 8.90593C27.7876 8.90028 27.7039 8.91448 27.6265 8.94744C27.549 8.9804 27.4799 9.03125 27.4244 9.09609C26.7907 9.86863 25.432 10.4564 24.4577 11.1013C24.1315 11.319 23.8191 11.5506 23.5606 11.785C23.4571 11.8781 23.5271 12.0557 23.6645 12.0519C24.4449 12.031 25.2664 11.9984 25.7588 11.9539C26.9099 11.8504 27.5452 11.7866 27.7686 11.4121C27.9955 11.0378 28.5577 9.71524 28.6115 9.37657C28.6652 9.0379 28.4036 8.93805 28.088 8.9185ZM30.0435 10.2452C29.7819 10.0823 29.1927 9.77529 29.0503 9.6915C28.9118 9.60793 28.8733 9.64378 28.8272 9.75527C28.8272 9.75527 28.4961 10.5799 28.4151 10.775C28.3305 10.9661 28.6578 10.9305 29.1005 10.8427C29.547 10.7592 29.9474 10.6514 30.1245 10.5799C30.3015 10.512 30.3053 10.4084 30.0435 10.245V10.2452ZM31.8798 10.2771C31.5988 10.2015 30.4556 10.0022 30.3051 9.97826C30.1546 9.95428 30.1513 9.97034 30.2514 10.0539C30.2514 10.0539 30.6632 10.4086 30.7402 10.4645C30.8171 10.5204 31.3062 10.5241 31.6949 10.4922C31.999 10.468 32.1565 10.3579 31.8798 10.2769V10.2771ZM29.7088 11.8227C29.5817 11.4682 29.5009 11.0818 29.3263 11.0818C29.1493 11.0818 28.3986 11.1982 28.3986 11.1982C28.187 11.282 27.7789 11.8355 27.9136 11.8992C28.0486 11.967 29.1185 12.0785 29.4534 12.1541C29.7895 12.2249 29.8356 12.1809 29.7088 11.8224V11.8227ZM34.8903 10.9703C34.5439 10.8865 33.2707 10.6596 32.7884 10.6596C32.3061 10.6596 30.7674 10.7233 30.4594 10.7631C30.4324 10.7671 29.8858 10.8108 29.7742 10.9493C29.6618 11.0927 30.0165 11.9891 30.1861 12.1523C30.3517 12.3117 31.0331 12.5268 31.5295 12.6862C32.026 12.8456 33.158 13.1443 33.4389 13.1641C33.7201 13.1801 34.0396 12.8335 34.2744 12.5626C34.5093 12.2917 35.1252 11.551 35.2253 11.3916C35.3254 11.2321 35.2329 11.0536 34.8903 10.9701V10.9703ZM44.0254 10.2769C43.9708 10.2025 43.9008 10.1416 43.8206 10.0987C43.7403 10.0559 43.6519 10.032 43.5616 10.029C42.7842 9.99665 42.0544 10.1251 41.8281 10.1533C41.3816 10.2131 37.4548 10.8516 37.0931 10.9063C36.7349 10.9621 35.9535 11.1891 35.7955 11.3485C35.6417 11.5115 35.1297 12.0657 34.8449 12.4998C34.5601 12.9339 34.5446 13.1492 34.8987 13.2765C35.2527 13.4038 40.1612 14.7026 40.1612 14.7026C41.6203 15.1847 42.752 15.1048 43.5836 14.8937C43.9993 14.7885 44.8544 14.5173 45.6046 14.2741C45.6886 14.2464 45.7656 14.1998 45.8301 14.1376C45.8946 14.0754 45.945 13.9992 45.9776 13.9145C46.0103 13.8298 46.0244 13.7386 46.0189 13.6476C46.0135 13.5565 45.9886 13.4679 45.9461 13.388C45.3797 12.304 44.7378 11.2642 44.0254 10.2767V10.2769ZM46.5924 14.7073C46.5702 14.6591 46.5322 14.6206 46.4851 14.5987C46.4381 14.5767 46.3851 14.5727 46.3355 14.5874C45.7139 14.7701 44.9651 14.9922 44.4909 15.1449C43.6747 15.4116 42.1964 15.8217 41.5611 16.045C40.6449 16.3676 44.0018 16.9611 45.253 17.2281C45.8725 17.3596 46.7103 17.5197 47.3901 17.6238C47.427 17.6293 47.4648 17.6249 47.4996 17.611C47.5345 17.5971 47.5653 17.5742 47.5891 17.5444C47.613 17.5146 47.629 17.479 47.6357 17.441C47.6424 17.403 47.6395 17.3638 47.6274 17.3272C47.3297 16.4346 46.9842 15.5599 46.5924 14.707V14.7073ZM41.1346 9.34096C40.4993 8.94247 37.0854 7.40089 36.1107 7.0145C35.5602 6.79943 34.617 6.75567 33.7469 6.79943C32.8808 6.84319 30.9906 6.95864 30.6518 7.0145C30.3092 7.07037 29.1466 8.24954 28.981 8.46833C28.8193 8.6876 28.8011 9.29697 29.2852 9.41241C30.6248 9.7313 33.62 10.3486 34.3707 10.512C35.1175 10.6749 36.0529 10.6749 36.923 10.512C37.7929 10.3525 40.0334 10.0697 40.6995 9.98617C41.3656 9.90261 41.8544 9.78693 41.1346 9.34096ZM39.2056 5.1978C39.0182 5.05014 38.7888 4.97098 38.5532 4.97272C37.9684 4.97481 37.4188 4.98482 37.361 5.02788C37.2339 5.12332 36.645 5.94008 36.4292 6.25873C36.2099 6.57738 36.6641 6.7168 37.6804 7.24261C38.4113 7.62062 41.4002 8.84983 43.0053 9.50482C43.1812 9.57675 43.3366 9.35795 43.2161 9.20689C42.0296 7.71807 40.6842 6.37286 39.2056 5.19687V5.1978ZM34.9711 4.75695C34.5824 4.73716 34.3205 4.77673 33.9125 4.91639C33.5044 5.05605 31.8991 5.69312 31.1869 6.0397C30.4709 6.39001 31.0745 6.50964 31.4569 6.50173C31.8379 6.48963 35.4259 6.39001 35.6145 6.31436C35.807 6.23871 36.5692 5.37423 36.8742 5.04767C37.1579 4.74415 35.36 4.7758 34.9711 4.75602V4.75695ZM34.9459 2.6202C33.9336 2.66326 32.2449 2.73798 32.2449 2.7964C32.2525 2.88392 32.7953 3.27426 33.2959 3.55706C33.7926 3.83987 34.6703 4.43737 35.0359 4.46483C35.2219 4.47787 36.4234 4.48276 37.5459 4.48648C37.767 4.48648 37.8498 4.19064 37.6647 4.06518C36.9508 3.5812 36.2126 3.13686 35.4532 2.73402C35.2964 2.6514 35.1216 2.61219 34.9459 2.6202ZM31.8026 1.17428C31.6216 1.11486 31.4264 1.12176 31.2497 1.19383C30.8416 1.35886 30.3843 1.54298 30.2437 1.59721C29.9704 1.70079 29.5353 1.94379 29.7088 2.02735C29.882 2.1151 31.1035 2.42305 31.3959 2.48962C31.5617 2.52733 32.8736 2.39954 33.955 2.28688C34.09 2.27292 34.1205 2.07973 33.9955 2.02363C33.2806 1.70382 32.5496 1.4207 31.8026 1.17428ZM27.551 0.199942C27.3629 0.175843 27.1725 0.218693 27.0111 0.321444C26.6584 0.544895 26.2724 0.788829 26.1055 0.903348C25.7588 1.1382 25.7858 1.26971 26.294 1.37329C26.8022 1.47687 28.6384 1.71988 29.1466 1.62421C29.3889 1.58138 30.0091 1.32162 30.589 1.06558C30.6142 1.05388 30.6354 1.03444 30.6496 1.0099C30.6638 0.985355 30.6704 0.956888 30.6685 0.928347C30.6665 0.899807 30.6561 0.872571 30.6388 0.850324C30.6214 0.828077 30.5978 0.811892 30.5712 0.803959C29.5782 0.53544 28.5694 0.33368 27.5512 0.199942H27.551ZM24.5 0C24.4312 0 24.3634 0 24.2962 0C24.1754 0.00228546 24.0595 0.0494619 23.9696 0.132907C23.6924 0.386152 23.4569 0.644982 23.5685 0.66081C23.7646 0.688742 25.2354 0.903813 25.497 0.823743C25.6241 0.78301 25.9867 0.556068 26.3246 0.334944C26.4371 0.261159 26.3945 0.0789062 26.2618 0.0686647C25.6796 0.0228882 25.0924 0 24.5 0ZM20.4463 0.354496C20.3044 0.454816 20.3192 0.685018 20.4155 0.697121C20.6043 0.72482 22.5715 0.681061 22.76 0.613327C22.8794 0.573525 23.8607 0.00372419 23.5106 0.0232762C22.4198 0.0863546 21.4472 0.175269 20.4463 0.354496ZM16.1194 1.56137C15.8859 1.69963 16.6314 1.67775 16.7391 1.66494C17.0091 1.63701 18.8217 1.21478 19.3569 1.02764C19.6572 0.920107 20.1177 0.40966 19.9074 0.458075C18.8332 0.705501 16.6665 1.23759 16.1194 1.56137ZM15.3262 1.88537C14.3168 2.17795 12.847 3.07245 11.6999 3.82102C11.8462 3.80914 11.9733 3.79332 12.0617 3.78121C12.416 3.72558 14.0482 3.39087 14.3562 3.19163C14.6642 2.99657 15.4609 2.17981 15.4609 2.02782C15.4609 1.98359 15.4126 1.85907 15.3262 1.88537ZM7.82716 6.9363C7.55204 7.22399 8.63159 6.84063 8.85879 6.79292C9.36314 6.68934 9.79032 6.49033 9.87108 6.07973C9.90033 5.92518 9.91495 5.67682 9.92102 5.42358C9.9217 5.39355 9.9142 5.36392 9.89936 5.3381C9.88452 5.31228 9.86296 5.29131 9.83713 5.27758C9.81131 5.26385 9.78226 5.25793 9.75334 5.2605C9.72441 5.26306 9.69677 5.274 9.67357 5.29207C9.03268 5.80717 8.2485 6.49405 7.82716 6.9349V6.9363ZM17.3546 9.4166C16.9351 9.16964 14.2363 8.12198 13.5473 7.85896C12.8621 7.59618 10.7947 6.99472 10.2326 7.02661C9.89515 7.0415 8.57873 7.20933 7.58061 7.33874C7.4675 7.35308 7.3623 7.40627 7.28187 7.4898C6.84074 7.94741 6.41626 8.42667 6.01044 8.92175C5.94571 9.00129 5.90513 9.09885 5.8938 9.20217C5.88248 9.30549 5.90091 9.40997 5.94678 9.50249C6.11842 9.85164 6.30468 10.2164 6.46417 10.4999C6.899 11.268 7.31089 11.3246 8.20418 11.3844C9.09724 11.4402 11.3378 11.5717 12.0153 11.3844C12.6929 11.197 16.5193 10.09 17.1353 9.95847C17.7512 9.82696 17.7708 9.65961 17.3546 9.4166ZM6.81082 11.9816C6.69835 11.7656 6.08692 10.6561 5.62622 9.82999C5.61075 9.80224 5.58895 9.77884 5.56271 9.76184C5.53648 9.74483 5.50661 9.73474 5.47574 9.73244C5.44486 9.73014 5.41391 9.73571 5.38559 9.74866C5.35727 9.76161 5.33246 9.78154 5.31331 9.80671C4.54801 10.8247 3.85686 11.9 3.24555 13.0239C3.22972 13.0532 3.21987 13.0855 3.21657 13.1189C3.21328 13.1522 3.21663 13.1859 3.22641 13.2179C3.23619 13.2499 3.25219 13.2794 3.27344 13.3048C3.29468 13.3301 3.32071 13.3507 3.34992 13.3652C4.0412 13.7071 4.94214 14.1431 5.19769 14.2324C5.63275 14.3837 5.81361 14.2681 6.08692 13.9694C6.35642 13.6706 6.99168 12.3403 6.81082 11.9816ZM4.66725 14.4396C4.35231 14.2636 3.71547 14.0018 3.17671 13.7902C3.10058 13.7601 3.01641 13.7601 2.94027 13.7902C2.86413 13.8202 2.80135 13.8782 2.76392 13.9531C2.31289 14.8625 1.91403 15.7986 1.56942 16.7565C1.55963 16.7828 1.55689 16.8114 1.56149 16.8392C1.56609 16.867 1.57786 16.893 1.59555 16.9145C1.61325 16.9359 1.63621 16.952 1.66202 16.9611C1.68783 16.9702 1.71552 16.9719 1.74219 16.966C2.77269 16.7293 5.19949 15.3976 5.41342 15.2454C5.65209 15.0769 5.2708 14.7741 4.66725 14.4396ZM13.3504 17.192C12.3534 16.7616 11.1947 16.6143 10.3977 16.5386C9.59709 16.463 4.99658 16.22 4.54622 16.3315C4.24659 16.4053 2.45934 17.2597 1.28868 17.8305C1.25818 17.8453 1.23097 17.8665 1.20875 17.8928C1.18653 17.919 1.16978 17.9497 1.15956 17.9829C1.08735 18.2134 1.02009 18.4471 0.955301 18.6812C0.939046 18.7406 0.944071 18.8041 0.96945 18.8599C0.994829 18.9158 1.03885 18.9603 1.09342 18.9852C2.7421 19.7317 6.23719 21.3494 6.53728 21.334C6.91835 21.3182 11.7728 20.2107 12.7158 19.9479C13.6588 19.6851 15.9574 18.769 15.9228 18.6174C15.8845 18.4666 14.3445 17.6261 13.3504 17.192ZM5.74702 21.8444C5.63162 21.7281 1.73566 19.8567 1.28148 19.5739C1.19826 19.5229 1.1068 19.4881 1.01154 19.471C0.942856 19.4572 0.871692 19.4713 0.812749 19.5103C0.753805 19.5493 0.711583 19.6102 0.694806 19.6805C0.443289 20.7498 0.255103 21.834 0.131298 22.927C0.127856 22.9595 0.131868 22.9924 0.143009 23.023C0.154149 23.0536 0.172105 23.0811 0.195418 23.1032C0.218732 23.1253 0.246747 23.1413 0.277192 23.1501C0.307638 23.1589 0.339655 23.1601 0.370648 23.1537C1.36157 22.9391 2.82443 22.5718 3.49547 22.4219C4.49718 22.1989 5.8676 21.9559 5.74815 21.8444H5.74702ZM8.3495 22.5735C7.33316 22.3104 6.75571 22.3305 6.30243 22.4061C5.84915 22.4817 2.33336 23.3979 1.66345 23.5653C1.33952 23.6465 0.755993 23.7838 0.230953 23.9377C0.172492 23.9547 0.120508 23.9899 0.0820707 24.0385C0.043633 24.0872 0.0206062 24.1469 0.0161226 24.2095C0.0102738 24.2947 0.0048751 24.3806 0.000825949 24.4656C-0.0030306 24.534 0.00664644 24.6025 0.0292643 24.6669C0.0518821 24.7313 0.0869652 24.7903 0.132367 24.8402C0.177768 24.8901 0.232532 24.9299 0.293308 24.9571C0.354084 24.9843 0.419592 24.9985 0.485824 24.9986H14.0505C14.1653 24.9998 14.2795 24.9803 14.3879 24.9409C14.5218 24.8906 14.6495 24.8229 14.7865 24.7796C15.3554 24.6006 9.1663 22.7846 8.35063 22.5735H8.3495ZM17.7505 19.2196C17.3346 19.1637 16.1027 19.1996 15.3943 19.4824C14.6911 19.7615 10.1253 21.2977 9.43625 21.486C8.74722 21.6743 8.29664 21.8444 8.7317 22.0476C9.05383 22.2008 13.2897 23.5839 15.4803 24.2954C15.6443 24.349 15.8215 24.3392 15.979 24.2677C17.5705 23.5438 19.0215 22.7103 19.6232 21.8803C20.0909 21.233 20.4029 20.7044 20.5496 20.2149C20.5635 20.1661 20.5675 20.1148 20.5613 20.0643C20.555 20.0139 20.5387 19.9653 20.5133 19.9217C20.4879 19.8781 20.454 19.8405 20.4138 19.8112C20.3736 19.782 20.3279 19.7617 20.2796 19.7517C19.3063 19.538 18.0045 19.2547 17.7516 19.2196H17.7505ZM19.1902 16.9639C19.161 16.9308 19.1236 16.9065 19.0821 16.8936C19.0406 16.8807 18.9965 16.8798 18.9545 16.8908C18.2191 17.0938 17.2783 17.3547 16.9344 17.4748C16.3376 17.682 15.7563 18.0365 16.2645 18.2634C16.5924 18.4056 18.7255 18.8253 20.2059 19.1093C20.3874 19.1439 20.5415 18.957 20.4697 18.7808C20.2565 18.2536 19.8356 17.6817 19.1913 16.9639H19.1902ZM17.2016 14.9223C17.1688 14.8891 17.125 14.87 17.0791 14.8688C17.0332 14.8676 16.9886 14.8844 16.9542 14.9158C16.2399 15.5587 15.177 16.5172 14.8711 16.8175C14.4014 17.2874 14.4014 17.4189 15.1599 17.3433C15.6744 17.293 17.3703 16.8331 18.4114 16.5419C18.443 16.5332 18.4717 16.516 18.4947 16.492C18.5177 16.468 18.5341 16.4381 18.5423 16.4054C18.5504 16.3727 18.5501 16.3384 18.5412 16.3059C18.5323 16.2734 18.5152 16.2439 18.4917 16.2205C18.1556 15.8788 17.5408 15.2601 17.2027 14.9223H17.2016ZM16.2028 14.4752C15.1501 14.2324 12.3156 13.8777 12.1233 13.9138C11.9346 13.9496 11.1724 14.5311 10.6643 15.0171C10.1599 15.5031 10.2524 15.75 10.7605 15.957C11.2649 16.1641 14.1522 16.8734 14.41 16.686C14.6678 16.4986 16.666 14.5827 16.204 14.4752H16.2028ZM16.9279 11.8802C17.0925 11.7882 17.1017 11.5454 16.9407 11.447C16.5556 11.2114 16.1911 11.0001 16.0719 10.9701C15.7871 10.8944 15.3943 10.8385 14.9595 10.9701C14.5247 11.1016 12.2601 11.906 12.1222 12.0773C11.9872 12.2447 11.845 13.2206 12.1222 13.368C12.2873 13.4553 14.3006 13.7651 15.9387 14.0032C16.0962 14.0264 16.2098 13.844 16.1203 13.7076C15.6717 13.0237 15.8056 12.5051 16.929 11.8802H16.9279ZM11.646 12.9935C11.5922 12.5279 11.4842 11.9619 10.9954 11.926C10.5063 11.8941 8.03884 11.8662 7.83481 11.9221C7.6346 11.9816 6.17556 14.4752 5.97535 14.9812C5.77896 15.487 5.77896 15.9372 6.35642 15.9372C6.9377 15.9372 8.77399 16.0727 9.00119 15.9372C9.46324 15.6663 11.2188 13.9296 11.392 13.7543C11.5612 13.5791 11.6999 13.4636 11.646 12.9935ZM21.7283 9.25321C20.9043 9.44454 18.2213 9.97803 17.4093 10.1454C16.5933 10.3127 16.3045 10.5597 16.5508 10.7471C16.6779 10.8437 17.1526 11.1195 17.5753 11.3637C17.6339 11.3974 17.6991 11.4169 17.7661 11.4207C17.833 11.4245 17.8999 11.4125 17.9617 11.3855C18.1595 11.3008 18.3745 11.2133 18.6067 11.1214C20.6893 10.3048 21.8631 9.83139 23.6497 9.19734C24.5153 8.8901 22.2286 9.1338 21.7283 9.25321ZM25.5975 7.85105C25.4437 7.07037 22.4833 6.45657 22.129 6.31715C22.0559 6.28922 20.9934 6.01084 20.9048 5.98291C20.6162 5.8912 17.8598 5.98291 17.5172 5.98291C17.1746 5.98291 16.4624 6.29364 15.8976 6.68794C15.3894 7.03848 14.5155 7.50051 14.7278 7.69161C14.9433 7.87898 16.2125 8.44063 16.6296 8.66362C17.0491 8.8908 18.3887 9.48829 18.8969 9.43173C19.2737 9.39054 22.7339 8.78559 24.6075 8.4553C24.8099 8.41959 25.0039 8.34414 25.1789 8.23301C25.3854 8.10173 25.6187 7.95905 25.5971 7.85105H25.5975ZM16.9369 4.91546C16.702 4.69224 15.0812 3.84778 14.8695 3.69649C14.7253 3.5971 12.723 3.88665 11.4253 4.08264C11.3198 4.09842 11.2192 4.13877 11.131 4.20065C10.9511 4.32587 10.7729 4.45327 10.5966 4.58284C10.5063 4.64888 10.4323 4.73597 10.3806 4.83705C10.3289 4.93814 10.301 5.0504 10.2989 5.16475C10.2899 5.64307 10.2904 6.15142 10.3268 6.24593C10.3999 6.43214 13.3412 7.47677 13.6606 7.40973C14.4729 7.2347 15.9936 6.11535 16.4633 5.6852C16.9355 5.2539 17.1704 5.1424 16.9355 4.91546H16.9369ZM19.9395 5.28974C19.724 5.07863 19.5045 4.82771 19.2734 4.68456C19.0426 4.5449 18.6661 4.74438 18.3111 4.93943C17.9561 5.13449 17.2369 5.54461 17.5103 5.54461H19.7933C20.1577 5.54485 20.1537 5.50086 19.9382 5.28974H19.9395ZM18.0634 1.74874C17.8324 1.70475 16.2503 2.0234 16.0346 2.10719C15.8152 2.19075 15.103 2.89974 15.076 3.11086C15.049 3.32197 16.7544 4.46926 17.0781 4.56096C17.3899 4.64453 17.7903 4.79978 18.364 4.56096C18.9952 4.29794 19.2802 4.11872 19.619 3.8394C19.9577 3.5566 20.6582 3.02683 20.7815 2.85948C20.9043 2.68863 18.2944 1.78831 18.0634 1.74874ZM24.0843 2.70469C23.9111 2.58109 23.784 2.53338 23.4684 2.60903C23.1489 2.68467 21.5549 2.92768 21.2663 3.04313C20.9775 3.15485 20.2617 3.68834 19.9881 3.97929C19.7182 4.27001 19.6534 4.41735 19.8081 4.64057C19.8351 4.67246 20.2547 5.0905 20.4781 5.0905C20.7053 5.09469 22.6878 4.54886 23.0342 4.45739C23.4104 4.34775 23.7658 4.17262 24.0852 3.93949C24.4278 3.69649 24.6086 3.48933 24.6626 3.37784C24.7195 3.26634 24.2575 2.8241 24.0843 2.70469ZM26.321 4.95526C26.0207 4.85168 24.3382 4.42945 24.1839 4.42945C24.0296 4.42945 22.8254 4.79489 22.452 4.93455C22.0824 5.0742 20.9583 5.57185 21.0584 5.65611C21.1585 5.74037 21.7128 5.94287 21.7128 5.94287C21.7128 5.94287 22.2286 6.10208 22.7177 6.24965H22.7215C23.0364 6.24965 23.4222 6.26152 23.7608 6.29341C23.9554 6.3104 24.2739 6.35369 24.6489 6.42585C24.7096 6.43778 24.772 6.43615 24.832 6.42105C24.8919 6.40596 24.9481 6.37775 24.9967 6.33833C25.3253 6.06926 26.0731 5.45663 26.1745 5.37307C26.3671 5.21386 26.6213 5.05488 26.321 4.95526ZM30.0435 5.8912C29.6741 5.79553 27.9064 5.6205 27.3796 5.59256C26.8561 5.56068 26.3401 5.64843 26.1322 5.80764C26.0407 5.87444 25.8038 6.0802 25.5629 6.29318C25.5346 6.31823 25.5134 6.35079 25.5017 6.38737C25.4899 6.42394 25.4881 6.46313 25.4963 6.50073C25.5044 6.53832 25.5224 6.57289 25.5482 6.60072C25.5739 6.62854 25.6066 6.64855 25.6425 6.65861C26.6238 6.93304 27.5695 7.27077 27.6995 8.36103C27.7051 8.42254 27.7326 8.47967 27.7769 8.52119C27.8211 8.56272 27.8787 8.58562 27.9384 8.58541C28.2684 8.5768 28.5435 8.54538 28.6193 8.46042C28.8272 8.22556 30.1515 6.61229 30.29 6.36929C30.4243 6.12629 30.4169 5.98197 30.0435 5.8912ZM33.8778 4.31796C33.7123 4.16643 32.4073 3.55706 32.2456 3.44557C32.08 3.32919 31.7606 3.41764 31.5565 3.48142C31.3525 3.54915 27.9224 4.15852 27.6799 4.21438C27.6799 4.21438 27.0177 4.35404 26.8908 4.42945C26.7639 4.50487 26.9358 4.82375 27.064 4.96318C27.1922 5.1026 27.9955 5.35747 28.7655 5.42125C29.5353 5.48899 30.7942 5.58861 31.0331 5.58418C31.2677 5.57999 33.0963 4.85122 33.5507 4.67991C34.0011 4.51302 34.0434 4.4653 33.8778 4.31796ZM31.3525 2.80827C31.0601 2.7126 26.6906 1.88793 26.1401 1.77644C25.5856 1.66494 25.297 1.68077 24.9814 1.89608C24.6617 2.1151 24.2998 2.37394 24.3538 2.47798C24.4116 2.58156 25.932 3.72884 26.1939 3.88409C26.1939 3.88409 26.5135 4.15899 26.8483 4.11127C27.183 4.06355 30.7249 3.33035 31.1485 3.21095C31.5757 3.08712 31.6452 2.89974 31.3525 2.80827ZM25.9167 4.11476C25.7012 3.96742 25.1622 3.57708 25.0698 3.59687C24.9735 3.61688 24.6694 3.87967 24.6694 3.87967C24.5463 3.97534 24.273 4.13873 24.4577 4.17458C24.6424 4.20624 25.6742 4.35776 25.9167 4.36079C26.1631 4.36963 26.1363 4.26606 25.9167 4.11476ZM24.3115 1.13122C23.8647 1.09142 22.044 0.931978 21.655 0.920107C21.2663 0.904279 20.6043 0.98784 20.3231 1.09933C20.0421 1.21571 18.918 1.6014 19.0681 1.66494C19.0681 1.66494 20.7505 2.36602 21.0508 2.47751C21.3511 2.5939 21.8399 2.53338 22.468 2.40978C23.0916 2.28246 23.977 2.09928 24.2195 1.98755C24.4658 1.87606 24.7623 1.4778 24.8163 1.34629C24.8734 1.21478 24.7542 1.16707 24.3115 1.13122Z" fill="url(#paint0_linear_275_16801)"/>
<defs>
<linearGradient id="paint0_linear_275_16801" x1="24.5002" y1="65.9807" x2="24.5002" y2="-17.6375" gradientUnits="userSpaceOnUse">
<stop stop-color="#054F41"/>
<stop offset="0.28" stop-color="#065546"/>
<stop offset="0.67" stop-color="#096855"/>
<stop offset="1" stop-color="#0D7C66"/>
</linearGradient>
</defs>
</svg>
