<svg width="50" height="25" viewBox="0 0 50 25" fill="none" xmlns="http://www.w3.org/2000/svg">
<path d="M48.7982 19.6707C48.7811 19.6003 48.75 19.5345 48.7067 19.4774C48.6634 19.4203 48.6091 19.3733 48.5471 19.3394C48.4851 19.3055 48.417 19.2854 48.347 19.2806C48.2771 19.2757 48.2069 19.2861 48.1411 19.3111C45.9141 20.1506 41.3896 21.8873 40.241 22.5735C39.6406 22.931 40.8837 24.004 42.0521 24.8545C42.1837 24.9496 42.3404 25.0004 42.5009 25H49.0144C49.0802 25.0001 49.1453 24.9863 49.2058 24.9595C49.2663 24.9327 49.3209 24.8935 49.3663 24.8442C49.4117 24.7948 49.4469 24.7365 49.4697 24.6726C49.4926 24.6088 49.5027 24.5408 49.4994 24.4728C49.4076 22.8533 49.1729 21.2459 48.7982 19.6707ZM39.0076 23.6078C38.87 23.9387 38.7148 24.2614 38.5426 24.5745C38.5189 24.6179 38.5066 24.6669 38.507 24.7167C38.5073 24.7665 38.5203 24.8153 38.5446 24.8583C38.5689 24.9013 38.6036 24.9369 38.6454 24.9617C38.6872 24.9864 38.7345 24.9994 38.7826 24.9993H41.2272C41.2537 24.9993 41.2795 24.9906 41.301 24.9745C41.3224 24.9584 41.3384 24.9356 41.3465 24.9095C41.3547 24.8834 41.3546 24.8553 41.3464 24.8292C41.3381 24.8032 41.322 24.7805 41.3005 24.7644L39.547 23.4528C39.5034 23.4202 39.4533 23.3982 39.4004 23.3883C39.3475 23.3785 39.2931 23.3811 39.2412 23.396C39.1894 23.4109 39.1415 23.4377 39.101 23.4743C39.0606 23.511 39.0286 23.5566 39.0076 23.6078ZM47.7508 18.4824C46.234 17.8212 42.2725 16.7337 41.649 16.706C41.2009 16.6844 38.424 17.344 36.5452 17.8931C36.336 17.9545 36.3057 18.2469 36.4953 18.3567C37.9663 19.207 39.0982 20.216 39.3522 21.4059C39.4039 21.6485 39.6244 21.8084 39.8595 21.7588C40.2603 21.6743 40.6452 21.5817 40.8601 21.5028C42.8048 20.7856 48.36 18.7494 47.7508 18.4824ZM40.9955 15.3555C39.9369 15.021 35.3717 13.7106 35.0054 13.6189C34.6392 13.5272 33.6888 13.6422 32.9651 13.8379C32.4963 13.968 30.5538 14.6468 29.2595 15.103C29.2257 15.1148 29.1965 15.1374 29.1758 15.1674C29.1551 15.1974 29.1441 15.2334 29.1444 15.2703C29.1446 15.3071 29.156 15.343 29.177 15.3727C29.1981 15.4025 29.2276 15.4246 29.2615 15.4361C31.2539 16.1173 33.3304 16.8559 34.6127 17.4189C34.7027 17.4588 34.7947 17.4997 34.8855 17.5409C35.0599 17.6213 35.2553 17.6385 35.4403 17.5898C37.4266 17.0593 40.4533 16.2544 40.8616 16.1443C41.4767 15.977 42.0579 15.6942 40.9955 15.3555ZM32.6272 13.2404C32.2653 13.117 28.947 12.2486 28.431 12.1809C27.9152 12.1092 27.3962 12.1809 26.6217 12.2765C26.179 12.3343 24.8081 12.5812 23.7099 12.7844C23.4957 12.824 23.3819 13.09 23.5193 13.2644C23.6568 13.4387 23.8896 13.5916 24.2502 13.7264C24.8551 13.9541 26.0049 14.337 27.3498 14.7927C27.4813 14.8377 27.6225 14.8431 27.7568 14.8081C28.9612 14.4903 30.8924 13.9818 31.6417 13.7823C32.7649 13.4834 32.9881 13.3605 32.6263 13.2404H32.6272ZM28.588 8.9185C28.5371 8.91454 28.4618 8.91058 28.3711 8.90593C28.2876 8.90028 28.2039 8.91448 28.1265 8.94744C28.049 8.9804 27.9799 9.03125 27.9244 9.09609C27.2907 9.86863 25.932 10.4564 24.9577 11.1013C24.6315 11.319 24.3191 11.5506 24.0606 11.785C23.9571 11.8781 24.0271 12.0557 24.1645 12.0519C24.9449 12.031 25.7664 11.9984 26.2588 11.9539C27.4099 11.8504 28.0452 11.7866 28.2686 11.4121C28.4955 11.0378 29.0577 9.71524 29.1115 9.37657C29.1652 9.0379 28.9036 8.93805 28.588 8.9185ZM30.5435 10.2452C30.2819 10.0823 29.6927 9.77529 29.5503 9.6915C29.4118 9.60793 29.3733 9.64378 29.3272 9.75527C29.3272 9.75527 28.9961 10.5799 28.9151 10.775C28.8305 10.9661 29.1578 10.9305 29.6005 10.8427C30.047 10.7592 30.4474 10.6514 30.6245 10.5799C30.8015 10.512 30.8053 10.4084 30.5435 10.245V10.2452ZM32.3798 10.2771C32.0988 10.2015 30.9556 10.0022 30.8051 9.97826C30.6546 9.95428 30.6513 9.97034 30.7514 10.0539C30.7514 10.0539 31.1632 10.4086 31.2402 10.4645C31.3171 10.5204 31.8062 10.5241 32.1949 10.4922C32.499 10.468 32.6565 10.3579 32.3798 10.2769V10.2771ZM30.2088 11.8227C30.0817 11.4682 30.0009 11.0818 29.8263 11.0818C29.6493 11.0818 28.8986 11.1982 28.8986 11.1982C28.687 11.282 28.2789 11.8355 28.4136 11.8992C28.5486 11.967 29.6185 12.0785 29.9534 12.1541C30.2895 12.2249 30.3356 12.1809 30.2088 11.8224V11.8227ZM35.3903 10.9703C35.0439 10.8865 33.7707 10.6596 33.2884 10.6596C32.8061 10.6596 31.2674 10.7233 30.9594 10.7631C30.9324 10.7671 30.3858 10.8108 30.2742 10.9493C30.1618 11.0927 30.5165 11.9891 30.6861 12.1523C30.8517 12.3117 31.5331 12.5268 32.0295 12.6862C32.526 12.8456 33.658 13.1443 33.9389 13.1641C34.2201 13.1801 34.5396 12.8335 34.7744 12.5626C35.0093 12.2917 35.6252 11.551 35.7253 11.3916C35.8254 11.2321 35.7329 11.0536 35.3903 10.9701V10.9703ZM44.5254 10.2769C44.4708 10.2025 44.4008 10.1416 44.3206 10.0987C44.2403 10.0559 44.1519 10.032 44.0616 10.029C43.2842 9.99665 42.5544 10.1251 42.3281 10.1533C41.8816 10.2131 37.9548 10.8516 37.5931 10.9063C37.2349 10.9621 36.4535 11.1891 36.2955 11.3485C36.1417 11.5115 35.6297 12.0657 35.3449 12.4998C35.0601 12.9339 35.0446 13.1492 35.3987 13.2765C35.7527 13.4038 40.6612 14.7026 40.6612 14.7026C42.1203 15.1847 43.252 15.1048 44.0836 14.8937C44.4993 14.7885 45.3544 14.5173 46.1046 14.2741C46.1886 14.2464 46.2656 14.1998 46.3301 14.1376C46.3946 14.0754 46.445 13.9992 46.4776 13.9145C46.5103 13.8298 46.5244 13.7386 46.5189 13.6476C46.5135 13.5565 46.4886 13.4679 46.4461 13.388C45.8797 12.304 45.2378 11.2642 44.5254 10.2767V10.2769ZM47.0924 14.7073C47.0702 14.6591 47.0322 14.6206 46.9851 14.5987C46.9381 14.5767 46.8851 14.5727 46.8355 14.5874C46.2139 14.7701 45.4651 14.9922 44.9909 15.1449C44.1747 15.4116 42.6964 15.8217 42.0611 16.045C41.1449 16.3676 44.5018 16.9611 45.753 17.2281C46.3725 17.3596 47.2103 17.5197 47.8901 17.6238C47.927 17.6293 47.9648 17.6249 47.9996 17.611C48.0345 17.5971 48.0653 17.5742 48.0891 17.5444C48.113 17.5146 48.129 17.479 48.1357 17.441C48.1424 17.403 48.1395 17.3638 48.1274 17.3272C47.8297 16.4346 47.4842 15.5599 47.0924 14.707V14.7073ZM41.6346 9.34096C40.9993 8.94247 37.5854 7.40089 36.6107 7.0145C36.0602 6.79943 35.117 6.75567 34.2469 6.79943C33.3808 6.84319 31.4906 6.95864 31.1518 7.0145C30.8092 7.07037 29.6466 8.24954 29.481 8.46833C29.3193 8.6876 29.3011 9.29697 29.7852 9.41241C31.1248 9.7313 34.12 10.3486 34.8707 10.512C35.6175 10.6749 36.5529 10.6749 37.423 10.512C38.2929 10.3525 40.5334 10.0697 41.1995 9.98617C41.8656 9.90261 42.3544 9.78693 41.6346 9.34096ZM39.7056 5.1978C39.5182 5.05014 39.2888 4.97098 39.0532 4.97272C38.4684 4.97481 37.9188 4.98482 37.861 5.02788C37.7339 5.12332 37.145 5.94008 36.9292 6.25873C36.7099 6.57738 37.1641 6.7168 38.1804 7.24261C38.9113 7.62062 41.9002 8.84983 43.5053 9.50482C43.6812 9.57675 43.8366 9.35795 43.7161 9.20689C42.5296 7.71807 41.1842 6.37286 39.7056 5.19687V5.1978ZM35.4711 4.75695C35.0824 4.73716 34.8205 4.77673 34.4125 4.91639C34.0044 5.05605 32.3991 5.69312 31.6869 6.0397C30.9709 6.39001 31.5745 6.50964 31.9569 6.50173C32.3379 6.48963 35.9259 6.39001 36.1145 6.31436C36.307 6.23871 37.0692 5.37423 37.3742 5.04767C37.6579 4.74415 35.86 4.7758 35.4711 4.75602V4.75695ZM35.4459 2.6202C34.4336 2.66326 32.7449 2.73798 32.7449 2.7964C32.7525 2.88392 33.2953 3.27426 33.7959 3.55706C34.2926 3.83987 35.1703 4.43737 35.5359 4.46483C35.7219 4.47787 36.9234 4.48276 38.0459 4.48648C38.267 4.48648 38.3498 4.19064 38.1647 4.06518C37.4508 3.5812 36.7126 3.13686 35.9532 2.73402C35.7964 2.6514 35.6216 2.61219 35.4459 2.6202ZM32.3026 1.17428C32.1216 1.11486 31.9264 1.12176 31.7497 1.19383C31.3416 1.35886 30.8843 1.54298 30.7437 1.59721C30.4704 1.70079 30.0353 1.94379 30.2088 2.02735C30.382 2.1151 31.6035 2.42305 31.8959 2.48962C32.0617 2.52733 33.3736 2.39954 34.455 2.28688C34.59 2.27292 34.6205 2.07973 34.4955 2.02363C33.7806 1.70382 33.0496 1.4207 32.3026 1.17428ZM28.051 0.199942C27.8629 0.175843 27.6725 0.218693 27.5111 0.321444C27.1584 0.544895 26.7724 0.788829 26.6055 0.903348C26.2588 1.1382 26.2858 1.26971 26.794 1.37329C27.3022 1.47687 29.1384 1.71988 29.6466 1.62421C29.8889 1.58138 30.5091 1.32162 31.089 1.06558C31.1142 1.05388 31.1354 1.03444 31.1496 1.0099C31.1638 0.985355 31.1704 0.956888 31.1685 0.928347C31.1665 0.899807 31.1561 0.872571 31.1388 0.850324C31.1214 0.828077 31.0978 0.811892 31.0712 0.803959C30.0782 0.53544 29.0694 0.33368 28.0512 0.199942H28.051ZM25 0C24.9312 0 24.8634 0 24.7962 0C24.6754 0.00228546 24.5595 0.0494619 24.4696 0.132907C24.1924 0.386152 23.9569 0.644982 24.0685 0.66081C24.2646 0.688742 25.7354 0.903813 25.997 0.823743C26.1241 0.78301 26.4867 0.556068 26.8246 0.334944C26.9371 0.261159 26.8945 0.0789062 26.7618 0.0686647C26.1796 0.0228882 25.5924 0 25 0ZM20.9463 0.354496C20.8044 0.454816 20.8192 0.685018 20.9155 0.697121C21.1043 0.72482 23.0715 0.681061 23.26 0.613327C23.3794 0.573525 24.3607 0.00372419 24.0106 0.0232762C22.9198 0.0863546 21.9472 0.175269 20.9463 0.354496ZM16.6194 1.56137C16.3859 1.69963 17.1314 1.67775 17.2391 1.66494C17.5091 1.63701 19.3217 1.21478 19.8569 1.02764C20.1572 0.920107 20.6177 0.40966 20.4074 0.458075C19.3332 0.705501 17.1665 1.23759 16.6194 1.56137ZM15.8262 1.88537C14.8168 2.17795 13.347 3.07245 12.1999 3.82102C12.3462 3.80914 12.4733 3.79332 12.5617 3.78121C12.916 3.72558 14.5482 3.39087 14.8562 3.19163C15.1642 2.99657 15.9609 2.17981 15.9609 2.02782C15.9609 1.98359 15.9126 1.85907 15.8262 1.88537ZM8.32716 6.9363C8.05204 7.22399 9.13159 6.84063 9.35879 6.79292C9.86314 6.68934 10.2903 6.49033 10.3711 6.07973C10.4003 5.92518 10.4149 5.67682 10.421 5.42358C10.4217 5.39355 10.4142 5.36392 10.3994 5.3381C10.3845 5.31228 10.363 5.29131 10.3371 5.27758C10.3113 5.26385 10.2823 5.25793 10.2533 5.2605C10.2244 5.26306 10.1968 5.274 10.1736 5.29207C9.53268 5.80717 8.7485 6.49405 8.32716 6.9349V6.9363ZM17.8546 9.4166C17.4351 9.16964 14.7363 8.12198 14.0473 7.85896C13.3621 7.59618 11.2947 6.99472 10.7326 7.02661C10.3952 7.0415 9.07873 7.20933 8.08061 7.33874C7.9675 7.35308 7.8623 7.40627 7.78187 7.4898C7.34074 7.94741 6.91626 8.42667 6.51044 8.92175C6.44571 9.00129 6.40513 9.09885 6.3938 9.20217C6.38248 9.30549 6.40091 9.40997 6.44678 9.50249C6.61842 9.85164 6.80468 10.2164 6.96417 10.4999C7.399 11.268 7.81089 11.3246 8.70418 11.3844C9.59724 11.4402 11.8378 11.5717 12.5153 11.3844C13.1929 11.197 17.0193 10.09 17.6353 9.95847C18.2512 9.82696 18.2708 9.65961 17.8546 9.4166ZM7.31082 11.9816C7.19835 11.7656 6.58692 10.6561 6.12622 9.82999C6.11075 9.80224 6.08895 9.77884 6.06271 9.76184C6.03648 9.74483 6.00661 9.73474 5.97574 9.73244C5.94486 9.73014 5.91391 9.73571 5.88559 9.74866C5.85727 9.76161 5.83246 9.78154 5.81331 9.80671C5.04801 10.8247 4.35686 11.9 3.74555 13.0239C3.72972 13.0532 3.71987 13.0855 3.71657 13.1189C3.71328 13.1522 3.71663 13.1859 3.72641 13.2179C3.73619 13.2499 3.75219 13.2794 3.77344 13.3048C3.79468 13.3301 3.82071 13.3507 3.84992 13.3652C4.5412 13.7071 5.44214 14.1431 5.69769 14.2324C6.13275 14.3837 6.31361 14.2681 6.58692 13.9694C6.85642 13.6706 7.49168 12.3403 7.31082 11.9816ZM5.16725 14.4396C4.85231 14.2636 4.21547 14.0018 3.67671 13.7902C3.60058 13.7601 3.51641 13.7601 3.44027 13.7902C3.36413 13.8202 3.30135 13.8782 3.26392 13.9531C2.81289 14.8625 2.41403 15.7986 2.06942 16.7565C2.05963 16.7828 2.05689 16.8114 2.06149 16.8392C2.06609 16.867 2.07786 16.893 2.09555 16.9145C2.11325 16.9359 2.13621 16.952 2.16202 16.9611C2.18783 16.9702 2.21552 16.9719 2.24219 16.966C3.27269 16.7293 5.69949 15.3976 5.91342 15.2454C6.15209 15.0769 5.7708 14.7741 5.16725 14.4396ZM13.8504 17.192C12.8534 16.7616 11.6947 16.6143 10.8977 16.5386C10.0971 16.463 5.49658 16.22 5.04622 16.3315C4.74659 16.4053 2.95934 17.2597 1.78868 17.8305C1.75818 17.8453 1.73097 17.8665 1.70875 17.8928C1.68653 17.919 1.66978 17.9497 1.65956 17.9829C1.58735 18.2134 1.52009 18.4471 1.4553 18.6812C1.43905 18.7406 1.44407 18.8041 1.46945 18.8599C1.49483 18.9158 1.53885 18.9603 1.59342 18.9852C3.2421 19.7317 6.73719 21.3494 7.03728 21.334C7.41835 21.3182 12.2728 20.2107 13.2158 19.9479C14.1588 19.6851 16.4574 18.769 16.4228 18.6174C16.3845 18.4666 14.8445 17.6261 13.8504 17.192ZM6.24702 21.8444C6.13162 21.7281 2.23566 19.8567 1.78148 19.5739C1.69826 19.5229 1.6068 19.4881 1.51154 19.471C1.44286 19.4572 1.37169 19.4713 1.31275 19.5103C1.2538 19.5493 1.21158 19.6102 1.19481 19.6805C0.943289 20.7498 0.755103 21.834 0.631298 22.927C0.627856 22.9595 0.631868 22.9924 0.643009 23.023C0.654149 23.0536 0.672105 23.0811 0.695418 23.1032C0.718732 23.1253 0.746747 23.1413 0.777192 23.1501C0.807638 23.1589 0.839655 23.1601 0.870648 23.1537C1.86157 22.9391 3.32443 22.5718 3.99547 22.4219C4.99718 22.1989 6.3676 21.9559 6.24815 21.8444H6.24702ZM8.8495 22.5735C7.83316 22.3104 7.25571 22.3305 6.80243 22.4061C6.34915 22.4817 2.83336 23.3979 2.16345 23.5653C1.83952 23.6465 1.25599 23.7838 0.730953 23.9377C0.672492 23.9547 0.620508 23.9899 0.582071 24.0385C0.543633 24.0872 0.520606 24.1469 0.516123 24.2095C0.510274 24.2947 0.504875 24.3806 0.500826 24.4656C0.496969 24.534 0.506646 24.6025 0.529264 24.6669C0.551882 24.7313 0.586965 24.7903 0.632367 24.8402C0.677768 24.8901 0.732532 24.9299 0.793308 24.9571C0.854084 24.9843 0.919592 24.9985 0.985824 24.9986H14.5505C14.6653 24.9998 14.7795 24.9803 14.8879 24.9409C15.0218 24.8906 15.1495 24.8229 15.2865 24.7796C15.8554 24.6006 9.6663 22.7846 8.85063 22.5735H8.8495ZM18.2505 19.2196C17.8346 19.1637 16.6027 19.1996 15.8943 19.4824C15.1911 19.7615 10.6253 21.2977 9.93625 21.486C9.24722 21.6743 8.79664 21.8444 9.2317 22.0476C9.55383 22.2008 13.7897 23.5839 15.9803 24.2954C16.1443 24.349 16.3215 24.3392 16.479 24.2677C18.0705 23.5438 19.5215 22.7103 20.1232 21.8803C20.5909 21.233 20.9029 20.7044 21.0496 20.2149C21.0635 20.1661 21.0675 20.1148 21.0613 20.0643C21.055 20.0139 21.0387 19.9653 21.0133 19.9217C20.9879 19.8781 20.954 19.8405 20.9138 19.8112C20.8736 19.782 20.8279 19.7617 20.7796 19.7517C19.8063 19.538 18.5045 19.2547 18.2516 19.2196H18.2505ZM19.6902 16.9639C19.661 16.9308 19.6236 16.9065 19.5821 16.8936C19.5406 16.8807 19.4965 16.8798 19.4545 16.8908C18.7191 17.0938 17.7783 17.3547 17.4344 17.4748C16.8376 17.682 16.2563 18.0365 16.7645 18.2634C17.0924 18.4056 19.2255 18.8253 20.7059 19.1093C20.8874 19.1439 21.0415 18.957 20.9697 18.7808C20.7565 18.2536 20.3356 17.6817 19.6913 16.9639H19.6902ZM17.7016 14.9223C17.6688 14.8891 17.625 14.87 17.5791 14.8688C17.5332 14.8676 17.4886 14.8844 17.4542 14.9158C16.7399 15.5587 15.677 16.5172 15.3711 16.8175C14.9014 17.2874 14.9014 17.4189 15.6599 17.3433C16.1744 17.293 17.8703 16.8331 18.9114 16.5419C18.943 16.5332 18.9717 16.516 18.9947 16.492C19.0177 16.468 19.0341 16.4381 19.0423 16.4054C19.0504 16.3727 19.0501 16.3384 19.0412 16.3059C19.0323 16.2734 19.0152 16.2439 18.9917 16.2205C18.6556 15.8788 18.0408 15.2601 17.7027 14.9223H17.7016ZM16.7028 14.4752C15.6501 14.2324 12.8156 13.8777 12.6233 13.9138C12.4346 13.9496 11.6724 14.5311 11.1643 15.0171C10.6599 15.5031 10.7524 15.75 11.2605 15.957C11.7649 16.1641 14.6522 16.8734 14.91 16.686C15.1678 16.4986 17.166 14.5827 16.704 14.4752H16.7028ZM17.4279 11.8802C17.5925 11.7882 17.6017 11.5454 17.4407 11.447C17.0556 11.2114 16.6911 11.0001 16.5719 10.9701C16.2871 10.8944 15.8943 10.8385 15.4595 10.9701C15.0247 11.1016 12.7601 11.906 12.6222 12.0773C12.4872 12.2447 12.345 13.2206 12.6222 13.368C12.7873 13.4553 14.8006 13.7651 16.4387 14.0032C16.5962 14.0264 16.7098 13.844 16.6203 13.7076C16.1717 13.0237 16.3056 12.5051 17.429 11.8802H17.4279ZM12.146 12.9935C12.0922 12.5279 11.9842 11.9619 11.4954 11.926C11.0063 11.8941 8.53884 11.8662 8.33481 11.9221C8.1346 11.9816 6.67556 14.4752 6.47535 14.9812C6.27896 15.487 6.27896 15.9372 6.85642 15.9372C7.4377 15.9372 9.27399 16.0727 9.50119 15.9372C9.96324 15.6663 11.7188 13.9296 11.892 13.7543C12.0612 13.5791 12.1999 13.4636 12.146 12.9935ZM22.2283 9.25321C21.4043 9.44454 18.7213 9.97803 17.9093 10.1454C17.0933 10.3127 16.8045 10.5597 17.0508 10.7471C17.1779 10.8437 17.6526 11.1195 18.0753 11.3637C18.1339 11.3974 18.1991 11.4169 18.2661 11.4207C18.333 11.4245 18.3999 11.4125 18.4617 11.3855C18.6595 11.3008 18.8745 11.2133 19.1067 11.1214C21.1893 10.3048 22.3631 9.83139 24.1497 9.19734C25.0153 8.8901 22.7286 9.1338 22.2283 9.25321ZM26.0975 7.85105C25.9437 7.07037 22.9833 6.45657 22.629 6.31715C22.5559 6.28922 21.4934 6.01084 21.4048 5.98291C21.1162 5.8912 18.3598 5.98291 18.0172 5.98291C17.6746 5.98291 16.9624 6.29364 16.3976 6.68794C15.8894 7.03848 15.0155 7.50051 15.2278 7.69161C15.4433 7.87898 16.7125 8.44063 17.1296 8.66362C17.5491 8.8908 18.8887 9.48829 19.3969 9.43173C19.7737 9.39054 23.2339 8.78559 25.1075 8.4553C25.3099 8.41959 25.5039 8.34414 25.6789 8.23301C25.8854 8.10173 26.1187 7.95905 26.0971 7.85105H26.0975ZM17.4369 4.91546C17.202 4.69224 15.5812 3.84778 15.3695 3.69649C15.2253 3.5971 13.223 3.88665 11.9253 4.08264C11.8198 4.09842 11.7192 4.13877 11.631 4.20065C11.4511 4.32587 11.2729 4.45327 11.0966 4.58284C11.0063 4.64888 10.9323 4.73597 10.8806 4.83705C10.8289 4.93814 10.801 5.0504 10.7989 5.16475C10.7899 5.64307 10.7904 6.15142 10.8268 6.24593C10.8999 6.43214 13.8412 7.47677 14.1606 7.40973C14.9729 7.2347 16.4936 6.11535 16.9633 5.6852C17.4355 5.2539 17.6704 5.1424 17.4355 4.91546H17.4369ZM20.4395 5.28974C20.224 5.07863 20.0045 4.82771 19.7734 4.68456C19.5426 4.5449 19.1661 4.74438 18.8111 4.93943C18.4561 5.13449 17.7369 5.54461 18.0103 5.54461H20.2933C20.6577 5.54485 20.6537 5.50086 20.4382 5.28974H20.4395ZM18.5634 1.74874C18.3324 1.70475 16.7503 2.0234 16.5346 2.10719C16.3152 2.19075 15.603 2.89974 15.576 3.11086C15.549 3.32197 17.2544 4.46926 17.5781 4.56096C17.8899 4.64453 18.2903 4.79978 18.864 4.56096C19.4952 4.29794 19.7802 4.11872 20.119 3.8394C20.4577 3.5566 21.1582 3.02683 21.2815 2.85948C21.4043 2.68863 18.7944 1.78831 18.5634 1.74874ZM24.5843 2.70469C24.4111 2.58109 24.284 2.53338 23.9684 2.60903C23.6489 2.68467 22.0549 2.92768 21.7663 3.04313C21.4775 3.15485 20.7617 3.68834 20.4881 3.97929C20.2182 4.27001 20.1534 4.41735 20.3081 4.64057C20.3351 4.67246 20.7547 5.0905 20.9781 5.0905C21.2053 5.09469 23.1878 4.54886 23.5342 4.45739C23.9104 4.34775 24.2658 4.17262 24.5852 3.93949C24.9278 3.69649 25.1086 3.48933 25.1626 3.37784C25.2195 3.26634 24.7575 2.8241 24.5843 2.70469ZM26.821 4.95526C26.5207 4.85168 24.8382 4.42945 24.6839 4.42945C24.5296 4.42945 23.3254 4.79489 22.952 4.93455C22.5824 5.0742 21.4583 5.57185 21.5584 5.65611C21.6585 5.74037 22.2128 5.94287 22.2128 5.94287C22.2128 5.94287 22.7286 6.10208 23.2177 6.24965H23.2215C23.5364 6.24965 23.9222 6.26152 24.2608 6.29341C24.4554 6.3104 24.7739 6.35369 25.1489 6.42585C25.2096 6.43778 25.272 6.43615 25.332 6.42105C25.3919 6.40596 25.4481 6.37775 25.4967 6.33833C25.8253 6.06926 26.5731 5.45663 26.6745 5.37307C26.8671 5.21386 27.1213 5.05488 26.821 4.95526ZM30.5435 5.8912C30.1741 5.79553 28.4064 5.6205 27.8796 5.59256C27.3561 5.56068 26.8401 5.64843 26.6322 5.80764C26.5407 5.87444 26.3038 6.0802 26.0629 6.29318C26.0346 6.31823 26.0134 6.35079 26.0017 6.38737C25.9899 6.42394 25.9881 6.46313 25.9963 6.50073C26.0044 6.53832 26.0224 6.57289 26.0482 6.60072C26.0739 6.62854 26.1066 6.64855 26.1425 6.65861C27.1238 6.93304 28.0695 7.27077 28.1995 8.36103C28.2051 8.42254 28.2326 8.47967 28.2769 8.52119C28.3211 8.56272 28.3787 8.58562 28.4384 8.58541C28.7684 8.5768 29.0435 8.54538 29.1193 8.46042C29.3272 8.22556 30.6515 6.61229 30.79 6.36929C30.9243 6.12629 30.9169 5.98197 30.5435 5.8912ZM34.3778 4.31796C34.2123 4.16643 32.9073 3.55706 32.7456 3.44557C32.58 3.32919 32.2606 3.41764 32.0565 3.48142C31.8525 3.54915 28.4224 4.15852 28.1799 4.21438C28.1799 4.21438 27.5177 4.35404 27.3908 4.42945C27.2639 4.50487 27.4358 4.82375 27.564 4.96318C27.6922 5.1026 28.4955 5.35747 29.2655 5.42125C30.0353 5.48899 31.2942 5.58861 31.5331 5.58418C31.7677 5.57999 33.5963 4.85122 34.0507 4.67991C34.5011 4.51302 34.5434 4.4653 34.3778 4.31796ZM31.8525 2.80827C31.5601 2.7126 27.1906 1.88793 26.6401 1.77644C26.0856 1.66494 25.797 1.68077 25.4814 1.89608C25.1617 2.1151 24.7998 2.37394 24.8538 2.47798C24.9116 2.58156 26.432 3.72884 26.6939 3.88409C26.6939 3.88409 27.0135 4.15899 27.3483 4.11127C27.683 4.06355 31.2249 3.33035 31.6485 3.21095C32.0757 3.08712 32.1452 2.89974 31.8525 2.80827ZM26.4167 4.11476C26.2012 3.96742 25.6622 3.57708 25.5698 3.59687C25.4735 3.61688 25.1694 3.87967 25.1694 3.87967C25.0463 3.97534 24.773 4.13873 24.9577 4.17458C25.1424 4.20624 26.1742 4.35776 26.4167 4.36079C26.6631 4.36963 26.6363 4.26606 26.4167 4.11476ZM24.8115 1.13122C24.3647 1.09142 22.544 0.931978 22.155 0.920107C21.7663 0.904279 21.1043 0.98784 20.8231 1.09933C20.5421 1.21571 19.418 1.6014 19.5681 1.66494C19.5681 1.66494 21.2505 2.36602 21.5508 2.47751C21.8511 2.5939 22.3399 2.53338 22.968 2.40978C23.5916 2.28246 24.477 2.09928 24.7195 1.98755C24.9658 1.87606 25.2623 1.4778 25.3163 1.34629C25.3734 1.21478 25.2542 1.16707 24.8115 1.13122Z" fill="white"/>
</svg>
