<svg width="20" height="15" viewBox="0 0 20 15" fill="none" xmlns="http://www.w3.org/2000/svg">
<path d="M11.125 13.25V5C11.1262 3.80691 11.6007 2.66303 12.4444 1.81939C13.288 0.975745 14.4319 0.501241 15.625 0.5C15.8239 0.5 16.0147 0.579017 16.1553 0.719669C16.296 0.860322 16.375 1.05109 16.375 1.25C16.375 1.44891 16.296 1.63968 16.1553 1.78033C16.0147 1.92098 15.8239 2 15.625 2C14.8294 2 14.0663 2.31607 13.5037 2.87868C12.9411 3.44129 12.625 4.20435 12.625 5V5.75H18.25C18.6478 5.75 19.0294 5.90804 19.3107 6.18934C19.592 6.47064 19.75 6.85218 19.75 7.25V13.25C19.75 13.6478 19.592 14.0294 19.3107 14.3107C19.0294 14.592 18.6478 14.75 18.25 14.75H12.625C12.2272 14.75 11.8456 14.592 11.5643 14.3107C11.283 14.0294 11.125 13.6478 11.125 13.25ZM1.75 14.75H7.375C7.77283 14.75 8.15436 14.592 8.43566 14.3107C8.71696 14.0294 8.875 13.6478 8.875 13.25V7.25C8.875 6.85218 8.71696 6.47064 8.43566 6.18934C8.15436 5.90804 7.77283 5.75 7.375 5.75H1.75V5C1.75 4.20435 2.06607 3.44129 2.62868 2.87868C3.19129 2.31607 3.95435 2 4.75 2C4.94891 2 5.13968 1.92098 5.28033 1.78033C5.42098 1.63968 5.5 1.44891 5.5 1.25C5.5 1.05109 5.42098 0.860322 5.28033 0.719669C5.13968 0.579017 4.94891 0.5 4.75 0.5C3.55691 0.501241 2.41303 0.975745 1.56939 1.81939C0.725745 2.66303 0.251241 3.80691 0.25 5V13.25C0.25 13.6478 0.408036 14.0294 0.68934 14.3107C0.970645 14.592 1.35218 14.75 1.75 14.75Z" fill="#054F41"/>
</svg>
