<svg width="40" height="40" viewBox="0 0 40 40" fill="none" xmlns="http://www.w3.org/2000/svg">
<rect x="0.5" y="0.5" width="39" height="39" rx="5.5" fill="white"/>
<rect x="0.5" y="0.5" width="39" height="39" rx="5.5" stroke="#CCCCCC"/>
<path d="M22.2753 11.556C22.3008 11.4608 22.3447 11.3716 22.4047 11.2934C22.4647 11.2152 22.5394 11.1496 22.6248 11.1003C22.7101 11.051 22.8043 11.0191 22.902 11.0062C22.9996 10.9933 23.0989 10.9999 23.1941 11.0254C24.5844 11.3881 25.853 12.115 26.869 13.131C27.8851 14.1471 28.6119 15.4156 28.9747 16.806C29.0002 16.9012 29.0067 17.0004 28.9939 17.0981C28.981 17.1958 28.949 17.29 28.8997 17.3753C28.8505 17.4606 28.7849 17.5354 28.7067 17.5954C28.6285 17.6553 28.5393 17.6993 28.4441 17.7247C28.3807 17.7414 28.3155 17.7499 28.25 17.7501C28.0847 17.7501 27.9241 17.6955 27.793 17.5948C27.662 17.494 27.5679 17.3529 27.5253 17.1932C27.2295 16.0582 26.6363 15.0226 25.8069 14.1932C24.9775 13.3638 23.9419 12.7706 22.8069 12.4747C22.7116 12.4494 22.6223 12.4055 22.544 12.3456C22.4657 12.2857 22.4 12.2109 22.3506 12.1256C22.3013 12.0402 22.2692 11.946 22.2563 11.8483C22.2433 11.7505 22.2498 11.6512 22.2753 11.556ZM22.0569 15.4747C23.3497 15.8197 24.1803 16.6504 24.5253 17.9432C24.5679 18.1029 24.662 18.244 24.793 18.3448C24.9241 18.4455 25.0847 18.5 25.25 18.5001C25.3155 18.4999 25.3807 18.4914 25.4441 18.4747C25.5393 18.4493 25.6285 18.4053 25.7067 18.3454C25.7849 18.2854 25.8505 18.2106 25.8997 18.1253C25.949 18.04 25.981 17.9458 25.9939 17.8481C26.0067 17.7504 26.0002 17.6512 25.9747 17.556C25.4947 15.7597 24.2403 14.5054 22.4441 14.0254C22.3489 13.9999 22.2497 13.9935 22.152 14.0064C22.0544 14.0194 21.9602 14.0514 21.8749 14.1007C21.7897 14.15 21.7149 14.2157 21.655 14.2939C21.5951 14.3721 21.5512 14.4613 21.5258 14.5565C21.5004 14.6516 21.4939 14.7509 21.5069 14.8485C21.5198 14.9462 21.5518 15.0403 21.6012 15.1256C21.6505 15.2109 21.7161 15.2856 21.7943 15.3455C21.8725 15.4054 21.9617 15.4493 22.0569 15.4747ZM29.7388 24.4138C29.5716 25.6841 28.9477 26.8502 27.9837 27.6942C27.0196 28.5382 25.7813 29.0023 24.5 29.0001C17.0563 29.0001 11 22.9438 11 15.5001C10.9977 14.2188 11.4619 12.9805 12.3059 12.0164C13.1499 11.0523 14.3159 10.4285 15.5863 10.2613C15.9075 10.2221 16.2328 10.2878 16.5136 10.4487C16.7944 10.6095 17.0157 10.8569 17.1444 11.1538L19.1244 15.5741V15.5854C19.2229 15.8127 19.2636 16.0608 19.2428 16.3077C19.222 16.5545 19.1404 16.7924 19.0053 17.0001C18.9884 17.0254 18.9706 17.0488 18.9519 17.0722L17 19.386C17.7022 20.8129 19.1947 22.2922 20.6403 22.9963L22.9222 21.0547C22.9446 21.0359 22.9681 21.0184 22.9925 21.0022C23.2 20.8639 23.4387 20.7794 23.687 20.7565C23.9353 20.7336 24.1854 20.7729 24.4147 20.871L24.4269 20.8766L28.8434 22.8557C29.1409 22.9839 29.3889 23.205 29.5503 23.4858C29.7116 23.7667 29.7778 24.0922 29.7388 24.4138ZM28.25 24.2263H28.2397L23.8334 22.2529L21.5506 24.1944C21.5285 24.2132 21.5053 24.2307 21.4813 24.2469C21.2654 24.3909 21.0159 24.4765 20.7571 24.4952C20.4983 24.5139 20.239 24.4652 20.0047 24.3538C18.2488 23.5054 16.4984 21.7682 15.6491 20.031C15.5366 19.7984 15.4861 19.5406 15.5026 19.2827C15.519 19.0249 15.6017 18.7756 15.7428 18.5591C15.7587 18.5337 15.7766 18.5096 15.7963 18.4869L17.75 16.1704L15.7813 11.7641C15.7809 11.7604 15.7809 11.7566 15.7813 11.7529C14.8721 11.8715 14.0374 12.3174 13.4334 13.0072C12.8294 13.6969 12.4976 14.5832 12.5 15.5001C12.5035 18.6816 13.7689 21.7318 16.0186 23.9815C18.2682 26.2312 21.3185 27.4966 24.5 27.5001C25.4163 27.5032 26.3023 27.1725 26.9925 26.5698C27.6827 25.9671 28.1297 25.1337 28.25 24.2254V24.2263Z" fill="#054F41"/>
</svg>
