<svg width="98" height="67" viewBox="0 0 98 67" fill="none" xmlns="http://www.w3.org/2000/svg">
<g clip-path="url(#clip0_275_17160)">
<path d="M83.2104 27.2542C83.1859 27.1567 83.1411 27.0655 83.0789 26.9864C83.0168 26.9073 82.9386 26.8422 82.8495 26.7952C82.7605 26.7482 82.6625 26.7204 82.562 26.7137C82.4614 26.7069 82.3606 26.7213 82.266 26.7559C79.0651 27.9192 72.562 30.3253 70.9111 31.2761C70.0481 31.7714 71.8348 33.2581 73.5142 34.4365C73.7033 34.5683 73.9286 34.6386 74.1592 34.6381H83.5212C83.6157 34.6382 83.7094 34.6191 83.7963 34.582C83.8833 34.5449 83.9618 34.4905 84.027 34.4222C84.0922 34.3538 84.1428 34.273 84.1757 34.1845C84.2085 34.0961 84.223 34.0019 84.2183 33.9076C84.0863 31.6638 83.749 29.4367 83.2104 27.2542ZM69.1383 32.7092C68.9405 33.1677 68.7174 33.6148 68.47 34.0486C68.4359 34.1086 68.4183 34.1766 68.4188 34.2456C68.4193 34.3146 68.4379 34.3822 68.4728 34.4418C68.5077 34.5013 68.5577 34.5507 68.6177 34.585C68.6778 34.6193 68.7458 34.6373 68.815 34.6371H72.3286C72.3667 34.6372 72.4038 34.6251 72.4346 34.6028C72.4655 34.5804 72.4884 34.5489 72.5001 34.5127C72.5118 34.4765 72.5117 34.4376 72.4998 34.4015C72.488 34.3654 72.4649 34.3339 72.434 34.3117L69.9136 32.4945C69.851 32.4493 69.779 32.4187 69.7029 32.4051C69.6268 32.3914 69.5486 32.3951 69.4741 32.4157C69.3997 32.4363 69.3308 32.4734 69.2726 32.5243C69.2145 32.5751 69.1686 32.6383 69.1383 32.7092ZM81.705 25.6079C79.5248 24.6916 73.8311 23.1849 72.9348 23.1466C72.2907 23.1166 68.2996 24.0305 65.5992 24.7913C65.2985 24.8764 65.2548 25.2815 65.5274 25.4337C67.6416 26.6118 69.2686 28.0098 69.6336 29.6584C69.708 29.9945 70.0249 30.216 70.3627 30.1473C70.9389 30.0303 71.4921 29.9019 71.8009 29.7926C74.5961 28.799 82.5806 25.9778 81.705 25.6079ZM71.9955 21.2754C70.474 20.812 63.9124 18.9963 63.386 18.8693C62.8596 18.7422 61.4936 18.9015 60.4534 19.1728C59.7796 19.353 56.9877 20.2934 55.1273 20.9255C55.0788 20.9419 55.0367 20.9732 55.007 21.0148C54.9773 21.0564 54.9615 21.1062 54.9618 21.1573C54.9621 21.2084 54.9786 21.2581 55.0088 21.2993C55.039 21.3405 55.0815 21.3712 55.1302 21.387C57.9939 22.331 60.9785 23.3542 62.8215 24.1344C62.9508 24.1895 63.083 24.2463 63.2137 24.3034C63.4642 24.4148 63.7451 24.4386 64.011 24.3711C66.866 23.6361 71.2163 22.5209 71.8032 22.3684C72.6871 22.1365 73.5226 21.7447 71.9955 21.2754ZM59.9678 18.3449C59.4475 18.174 54.6782 16.9707 53.9364 16.8769C53.1951 16.7776 52.4491 16.8769 51.3359 17.0094C50.6996 17.0894 48.7293 17.4316 47.1508 17.7131C46.843 17.768 46.6794 18.1366 46.8769 18.3781C47.0745 18.6197 47.4091 18.8316 47.9274 19.0183C48.7968 19.3337 50.4494 19.8642 52.3825 20.4956C52.5715 20.5581 52.7744 20.5654 52.9674 20.5169C54.6985 20.0767 57.4743 19.3721 58.5513 19.0957C60.1657 18.6816 60.4864 18.5113 59.9665 18.3449H59.9678ZM54.1621 12.3568C54.0891 12.3513 53.9807 12.3458 53.8504 12.3394C53.7304 12.3316 53.6101 12.3512 53.4988 12.3969C53.3875 12.4426 53.2881 12.513 53.2083 12.6029C52.2975 13.6732 50.3446 14.4875 48.9443 15.3812C48.4755 15.6827 48.0264 16.0036 47.6549 16.3283C47.5061 16.4573 47.6067 16.7034 47.8042 16.6982C48.9258 16.6692 50.1066 16.6241 50.8144 16.5625C52.4689 16.419 53.3819 16.3306 53.703 15.8117C54.0292 15.2931 54.8372 13.4607 54.9145 12.9915C54.9918 12.5222 54.6158 12.3839 54.1621 12.3568ZM56.9728 14.195C56.5968 13.9693 55.75 13.5439 55.5453 13.4278C55.3461 13.312 55.2909 13.3617 55.2246 13.5162C55.2246 13.5162 54.7486 14.6588 54.6322 14.929C54.5107 15.1938 54.9811 15.1444 55.6174 15.0229C56.2592 14.9071 56.8347 14.7578 57.0892 14.6588C57.3437 14.5646 57.3492 14.4211 56.9728 14.1947V14.195ZM59.6121 14.2392C59.2083 14.1344 57.5651 13.8583 57.3488 13.8251C57.1325 13.7919 57.1277 13.8141 57.2716 13.9299C57.2716 13.9299 57.8636 14.4214 57.9742 14.4988C58.0847 14.5762 58.7876 14.5814 59.3463 14.5372C59.7835 14.5036 60.0098 14.3511 59.6121 14.2389V14.2392ZM56.4917 16.3806C56.309 15.8894 56.1929 15.3541 55.942 15.3541C55.6876 15.3541 54.6086 15.5153 54.6086 15.5153C54.3044 15.6314 53.7179 16.3983 53.9115 16.4867C54.1055 16.5805 55.6433 16.735 56.1247 16.8398C56.6078 16.9379 56.674 16.8769 56.4917 16.3803V16.3806ZM63.9392 15.1996C63.4413 15.0835 61.6112 14.7691 60.918 14.7691C60.2248 14.7691 58.0133 14.8574 57.5706 14.9126C57.5318 14.9181 56.7462 14.9787 56.5858 15.1706C56.4241 15.3692 56.934 16.6112 57.1778 16.8372C57.4158 17.0581 58.3951 17.3561 59.1087 17.577C59.8223 17.798 61.4493 18.2117 61.8531 18.2391C62.2573 18.2614 62.7164 17.7812 63.0539 17.4058C63.3915 17.0304 64.2768 16.0042 64.4206 15.7833C64.5645 15.5624 64.4316 15.315 63.9392 15.1993V15.1996ZM77.0692 14.2389C76.9906 14.1358 76.89 14.0515 76.7747 13.9921C76.6594 13.9326 76.5322 13.8996 76.4025 13.8954C75.2851 13.8506 74.2362 14.0286 73.9109 14.0676C73.2691 14.1505 67.6251 15.0351 67.1052 15.1109C66.5905 15.1883 65.4672 15.5027 65.2403 15.7237C65.0191 15.9494 64.2832 16.7173 63.8739 17.3187C63.4646 17.9202 63.4422 18.2185 63.9512 18.3949C64.4601 18.5713 71.5151 20.3708 71.5151 20.3708C73.6122 21.0387 75.2388 20.9281 76.4342 20.6356C77.0317 20.4898 78.2606 20.1141 79.3389 19.7771C79.4596 19.7387 79.5703 19.6741 79.663 19.588C79.7557 19.5018 79.8281 19.3963 79.8751 19.2789C79.922 19.1615 79.9423 19.0352 79.9344 18.909C79.9266 18.7829 79.8908 18.6601 79.8297 18.5494C79.0156 17.0475 78.093 15.6068 77.0692 14.2386V14.2389ZM80.7587 20.3773C80.7267 20.3105 80.6721 20.2572 80.6045 20.2268C80.5369 20.1964 80.4607 20.1909 80.3894 20.2112C79.4961 20.4644 78.4197 20.772 77.7381 20.9836C76.5651 21.3532 74.4402 21.9214 73.5271 22.2307C72.2102 22.6777 77.0352 23.5 78.8336 23.8699C79.724 24.0521 80.9281 24.274 81.9052 24.4182C81.9583 24.4258 82.0125 24.4197 82.0626 24.4005C82.1128 24.3812 82.1571 24.3494 82.1913 24.3082C82.2255 24.2669 82.2486 24.2176 82.2582 24.1649C82.2679 24.1122 82.2637 24.058 82.2463 24.0073C81.8185 22.7705 81.3218 21.5585 80.7587 20.377V20.3773ZM72.9141 12.9421C72.001 12.39 67.0942 10.2541 65.6933 9.71876C64.9021 9.42078 63.5464 9.36015 62.2957 9.42078C61.0509 9.48141 58.334 9.64136 57.8471 9.71876C57.3547 9.79616 55.6837 11.4299 55.4457 11.7331C55.2133 12.0369 55.1871 12.8812 55.8829 13.0411C57.8083 13.4829 62.1134 14.3382 63.1923 14.5646C64.2658 14.7903 65.6102 14.7903 66.8608 14.5646C68.1111 14.3437 71.3314 13.9519 72.2888 13.8361C73.2462 13.7203 73.9488 13.56 72.9141 12.9421ZM70.1416 7.20168C69.8722 6.99709 69.5425 6.88741 69.2039 6.88982C68.3633 6.89272 67.5734 6.90659 67.4903 6.96625C67.3076 7.09848 66.4611 8.23012 66.1511 8.67162C65.8358 9.11311 66.4886 9.30629 67.9494 10.0348C68.9999 10.5585 73.296 12.2617 75.6029 13.1692C75.8557 13.2688 76.0791 12.9657 75.9058 12.7564C74.2005 10.6936 72.2668 8.82974 70.1416 7.20039V7.20168ZM64.0553 6.59087C63.4966 6.56345 63.1202 6.61828 62.5337 6.81178C61.9472 7.00528 59.6399 7.88795 58.6163 8.36815C57.5871 8.8535 58.4546 9.01927 59.0043 9.0083C59.552 8.99153 64.709 8.8535 64.98 8.74869C65.2568 8.64388 66.3522 7.44613 66.7906 6.99367C67.1983 6.57313 64.6143 6.61699 64.0553 6.58958V6.59087ZM64.0191 3.63035C62.5641 3.69001 60.1369 3.79353 60.1369 3.87448C60.1479 3.99574 60.9281 4.53656 61.6475 4.9284C62.3614 5.32023 63.623 6.14808 64.1484 6.18613C64.4158 6.20419 66.1427 6.21097 67.7561 6.21613C68.0739 6.21613 68.1929 5.80623 67.9268 5.63241C66.9008 4.96184 65.8397 4.34619 64.7482 3.78805C64.5229 3.67358 64.2717 3.61925 64.0191 3.63035ZM59.5012 1.627C59.2411 1.54466 58.9604 1.55423 58.7065 1.65409C58.12 1.88274 57.4626 2.13783 57.2606 2.21297C56.8677 2.35648 56.2424 2.69317 56.4917 2.80895C56.7407 2.93053 58.4963 3.35719 58.9166 3.44943C59.1549 3.50167 61.0406 3.32462 62.5948 3.16853C62.7888 3.14918 62.8328 2.88151 62.653 2.80379C61.6255 2.36068 60.5749 1.96841 59.5012 1.627ZM53.3903 0.277025C53.12 0.243634 52.8464 0.303004 52.6144 0.445368C52.1074 0.754965 51.5526 1.09294 51.3126 1.25161C50.8144 1.57701 50.8532 1.75922 51.5836 1.90273C52.314 2.04624 54.9533 2.38293 55.6837 2.25038C56.0319 2.19104 56.9233 1.83114 57.7569 1.47639C57.7931 1.46018 57.8235 1.43325 57.844 1.39924C57.8644 1.36523 57.8738 1.32579 57.8711 1.28625C57.8683 1.2467 57.8534 1.20897 57.8284 1.17814C57.8034 1.14732 57.7695 1.1249 57.7313 1.1139C56.3041 0.741865 54.8541 0.462322 53.3907 0.277025H53.3903ZM49.0051 0C48.9061 0 48.8088 0 48.7121 0C48.5385 0.00316656 48.3719 0.0685306 48.2427 0.184146C47.8443 0.535022 47.5058 0.893639 47.6662 0.915568C47.9481 0.954268 50.062 1.25225 50.438 1.14132C50.6207 1.08488 51.1419 0.770445 51.6276 0.464073C51.7892 0.361841 51.7281 0.109326 51.5374 0.0951366C50.7006 0.0317122 49.8565 0 49.0051 0ZM43.1787 0.491163C42.9747 0.630159 42.996 0.949108 43.1344 0.965878C43.4057 1.00426 46.2332 0.943626 46.5041 0.849779C46.6758 0.794632 48.0862 0.00515995 47.5831 0.0322497C46.0153 0.119646 44.6172 0.24284 43.1787 0.491163ZM36.9595 2.16331C36.6239 2.35487 37.6954 2.32456 37.8503 2.30682C38.2383 2.26812 40.8437 1.68311 41.6129 1.42382C42.0445 1.27483 42.7063 0.567594 42.404 0.634674C40.8601 0.977488 37.7459 1.71472 36.9595 2.16331ZM35.8195 2.61222C34.3687 3.0176 32.2561 4.25696 30.6075 5.29411C30.8176 5.27766 31.0003 5.25573 31.1274 5.23896C31.6366 5.16188 33.9827 4.69813 34.4253 4.42208C34.8679 4.15182 36.0132 3.02018 36.0132 2.80959C36.0132 2.74832 35.9436 2.57578 35.8195 2.61222ZM25.0411 9.6104C24.6456 10.009 26.1973 9.47786 26.5238 9.41175C27.2487 9.26824 27.8627 8.9925 27.9788 8.42362C28.0208 8.20948 28.0419 7.86537 28.0506 7.5145C28.0516 7.47289 28.0408 7.43184 28.0195 7.39607C27.9981 7.36029 27.9671 7.33123 27.93 7.31221C27.8929 7.2932 27.8512 7.28499 27.8096 7.28854C27.768 7.29209 27.7283 7.30725 27.6949 7.33229C26.7738 8.04597 25.6467 8.99766 25.0411 9.60847V9.6104ZM38.7349 13.0469C38.1319 12.7048 34.253 11.2532 33.2626 10.8888C32.2778 10.5247 29.3064 9.69135 28.4984 9.73553C28.0134 9.75617 26.1213 9.98869 24.6867 10.168C24.5241 10.1879 24.3729 10.2616 24.2573 10.3773C23.6233 11.0113 23.0132 11.6754 22.4299 12.3613C22.3368 12.4715 22.2785 12.6067 22.2622 12.7498C22.246 12.893 22.2724 13.0377 22.3384 13.1659C22.5851 13.6497 22.8528 14.155 23.082 14.5478C23.707 15.6121 24.299 15.6904 25.583 15.7733C26.8666 15.8507 30.0869 16.0329 31.0608 15.7733C32.0346 15.5137 37.5344 13.9799 38.4197 13.7977C39.3049 13.6155 39.3331 13.3836 38.7349 13.0469ZM23.5803 16.6008C23.4186 16.3016 22.5398 14.7642 21.8776 13.6197C21.8554 13.5812 21.8241 13.5488 21.7864 13.5253C21.7486 13.5017 21.7057 13.4877 21.6613 13.4845C21.617 13.4813 21.5725 13.4891 21.5318 13.507C21.4911 13.5249 21.4554 13.5526 21.4279 13.5874C20.3279 14.9978 19.3345 16.4878 18.4559 18.045C18.4331 18.0855 18.419 18.1303 18.4142 18.1765C18.4095 18.2227 18.4143 18.2694 18.4284 18.3137C18.4424 18.358 18.4654 18.399 18.496 18.4341C18.5265 18.4692 18.5639 18.4977 18.6059 18.5178C19.5995 18.9915 20.8944 19.5956 21.2617 19.7194C21.887 19.929 22.147 19.7687 22.5398 19.355C22.9272 18.9409 23.8402 17.0978 23.5803 16.6008ZM20.4993 20.0064C20.0466 19.7626 19.1313 19.3998 18.3569 19.1066C18.2475 19.065 18.1265 19.065 18.0171 19.1066C17.9077 19.1482 17.8174 19.2286 17.7636 19.3324C17.1154 20.5924 16.5421 21.8893 16.0468 23.2165C16.0327 23.253 16.0288 23.2926 16.0354 23.3311C16.042 23.3696 16.0589 23.4057 16.0843 23.4354C16.1097 23.4651 16.1428 23.4874 16.1798 23.5C16.2169 23.5126 16.2568 23.5149 16.2951 23.5068C17.7762 23.1788 21.2643 21.3338 21.5718 21.1229C21.9148 20.8894 21.3668 20.4698 20.4993 20.0064ZM32.9797 23.8199C31.5467 23.2236 29.8813 23.0195 28.7357 22.9147C27.585 22.8099 20.9726 22.4732 20.3253 22.6277C19.8947 22.7299 17.3258 23.9138 15.6432 24.7045C15.5994 24.7251 15.5603 24.7545 15.5284 24.7908C15.4964 24.8272 15.4724 24.8697 15.4577 24.9158C15.3539 25.2351 15.2572 25.5588 15.1641 25.8833C15.1407 25.9656 15.1479 26.0535 15.1844 26.1309C15.2209 26.2083 15.2842 26.2699 15.3626 26.3045C17.7323 27.3387 22.7558 29.58 23.1871 29.5588C23.7348 29.5368 30.7122 28.0024 32.0676 27.6383C33.423 27.2742 36.7267 26.0049 36.6769 25.7949C36.622 25.5859 34.4085 24.4214 32.9797 23.8199ZM22.0513 30.266C21.8854 30.1048 16.2857 27.5119 15.6329 27.12C15.5133 27.0495 15.3818 27.0012 15.2449 26.9775C15.1462 26.9585 15.0439 26.9779 14.9592 27.032C14.8745 27.086 14.8138 27.1704 14.7897 27.2677C14.4282 28.7493 14.1577 30.2515 13.9797 31.7659C13.9748 31.811 13.9806 31.8565 13.9966 31.899C14.0126 31.9414 14.0384 31.9794 14.0719 32.01C14.1054 32.0406 14.1457 32.0629 14.1894 32.0751C14.2332 32.0872 14.2792 32.0889 14.3238 32.08C15.748 31.7827 17.8506 31.2738 18.8151 31.0661C20.2549 30.7572 22.2246 30.4205 22.0529 30.266H22.0513ZM25.7918 31.2761C24.331 30.9116 23.5011 30.9394 22.8496 31.0442C22.1981 31.149 17.1448 32.4183 16.1819 32.6502C15.7163 32.7628 14.8776 32.953 14.123 33.1662C14.0389 33.1898 13.9642 33.2385 13.909 33.3059C13.8537 33.3733 13.8206 33.4561 13.8142 33.5429C13.8058 33.6609 13.798 33.7799 13.7922 33.8976C13.7867 33.9924 13.8006 34.0873 13.8331 34.1766C13.8656 34.2658 13.916 34.3475 13.9813 34.4167C14.0465 34.4858 14.1252 34.5409 14.2126 34.5787C14.2999 34.6164 14.3941 34.636 14.4893 34.6362H33.9859C34.151 34.6378 34.3151 34.6108 34.4709 34.5562C34.6633 34.4865 34.8469 34.3927 35.0438 34.3327C35.8615 34.0847 26.9658 31.5686 25.7934 31.2761H25.7918ZM39.304 26.6292C38.7061 26.5518 36.9356 26.6015 35.9174 26.9933C34.9067 27.38 28.3442 29.5085 27.3538 29.7694C26.3635 30.0303 25.7158 30.266 26.3412 30.5475C26.8042 30.7597 32.8924 32.676 36.041 33.6619C36.2767 33.7361 36.5314 33.7225 36.7578 33.6235C39.0453 32.6205 41.1308 31.4657 41.9957 30.3157C42.6679 29.4188 43.1163 28.6864 43.3271 28.0082C43.3472 27.9406 43.3529 27.8696 43.3439 27.7996C43.3349 27.7297 43.3114 27.6624 43.2749 27.602C43.2384 27.5416 43.1897 27.4895 43.1319 27.4489C43.0741 27.4084 43.0084 27.3803 42.9391 27.3664C41.5401 27.0704 39.669 26.6779 39.3056 26.6292H39.304ZM41.3733 23.5039C41.3313 23.458 41.2776 23.4243 41.2179 23.4065C41.1582 23.3887 41.0948 23.3873 41.0344 23.4026C39.9775 23.6838 38.6253 24.0454 38.1309 24.2118C37.2732 24.4988 36.4377 24.99 37.1681 25.3044C37.6395 25.5014 40.7053 26.0829 42.8331 26.4763C43.094 26.5244 43.3155 26.2654 43.2123 26.0213C42.9058 25.2908 42.3009 24.4985 41.3749 23.5039H41.3733ZM38.5151 20.6753C38.4679 20.6292 38.405 20.6027 38.339 20.601C38.273 20.5994 38.2089 20.6227 38.1594 20.6662C37.1328 21.557 35.6051 22.885 35.1654 23.301C34.4903 23.9522 34.4903 24.1344 35.5805 24.0296C36.32 23.9599 38.7576 23.3226 40.2539 22.9192C40.2992 22.9071 40.3405 22.8833 40.3736 22.85C40.4066 22.8168 40.4302 22.7754 40.442 22.7301C40.4537 22.6848 40.4532 22.6372 40.4404 22.5922C40.4276 22.5471 40.4031 22.5063 40.3693 22.4738C39.8863 22.0004 39.0026 21.1432 38.5167 20.6753H38.5151ZM37.0795 20.0558C35.5663 19.7194 31.4924 19.2279 31.216 19.2779C30.9447 19.3276 29.8493 20.1332 29.1189 20.8065C28.394 21.4799 28.5268 21.8221 29.2572 22.1088C29.9821 22.3958 34.132 23.3784 34.5026 23.1188C34.8731 22.8592 37.7452 20.2047 37.0811 20.0558H37.0795ZM38.1216 16.4602C38.3582 16.3328 38.3715 15.9965 38.14 15.8601C37.5865 15.5337 37.0627 15.2409 36.8913 15.1993C36.482 15.0945 35.9174 15.0171 35.2925 15.1993C34.6675 15.3815 31.4125 16.496 31.2143 16.7334C31.0203 16.9653 30.816 18.3175 31.2143 18.5216C31.4517 18.6426 34.3454 19.0718 36.6999 19.4017C36.9262 19.434 37.0895 19.1811 36.9608 18.9922C36.3161 18.0447 36.5085 17.3261 38.1232 16.4602H38.1216ZM30.5299 18.0027C30.4526 17.3577 30.2974 16.5734 29.5948 16.5238C28.8919 16.4796 25.3453 16.4409 25.0521 16.5183C24.7643 16.6008 22.6672 20.0558 22.3794 20.7569C22.0972 21.4576 22.0972 22.0814 22.9272 22.0814C23.7626 22.0814 26.4019 22.269 26.7285 22.0814C27.3926 21.706 29.9159 19.2998 30.1648 19.057C30.408 18.8141 30.6075 18.6542 30.5299 18.0027ZM45.0214 12.8205C43.837 13.0856 39.9807 13.8248 38.8135 14.0567C37.6408 14.2885 37.2256 14.6307 37.5797 14.8903C37.7624 15.0242 38.4446 15.4063 39.0521 15.7446C39.1363 15.7914 39.2301 15.8184 39.3263 15.8236C39.4226 15.8289 39.5187 15.8122 39.6076 15.7749C39.8918 15.6575 40.2009 15.5363 40.5346 15.4089C43.5279 14.2776 45.215 13.6216 47.7829 12.7431C49.0271 12.3174 45.7404 12.6551 45.0214 12.8205ZM50.5826 10.8778C50.3614 9.79616 46.1064 8.94574 45.5972 8.75256C45.4921 8.71386 43.965 8.32816 43.8377 8.28946C43.4228 8.16239 39.4611 8.28946 38.9687 8.28946C38.4763 8.28946 37.4526 8.71999 36.6407 9.2663C35.9103 9.75198 34.6542 10.3921 34.9594 10.6569C35.2692 10.9165 37.0934 11.6947 37.6928 12.0037C38.2958 12.3184 40.2213 13.1463 40.9516 13.0679C41.4932 13.0108 46.4666 12.1726 49.1596 11.715C49.4506 11.6655 49.7293 11.561 49.9809 11.407C50.2777 11.2251 50.613 11.0275 50.5819 10.8778H50.5826ZM38.1345 6.81049C37.7969 6.50121 35.4674 5.33119 35.1631 5.12157C34.9559 4.98387 32.0779 5.38505 30.2127 5.65659C30.0611 5.67846 29.9165 5.73436 29.7898 5.8201C29.5311 5.9936 29.275 6.17012 29.0215 6.34964C28.8918 6.44114 28.7855 6.56179 28.7112 6.70185C28.6369 6.84191 28.5967 6.99745 28.5938 7.15588C28.5808 7.81861 28.5815 8.52294 28.6339 8.65388C28.7389 8.91188 32.9664 10.3592 33.4256 10.2664C34.5931 10.0238 36.7788 8.47296 37.4539 7.87698C38.1326 7.2794 38.4701 7.12492 38.1326 6.81049H38.1345ZM42.4503 7.32906C42.1405 7.03656 41.825 6.68891 41.4929 6.49057C41.1612 6.29707 40.6199 6.57345 40.1097 6.8437C39.5995 7.11396 38.5658 7.6822 38.9587 7.6822H42.2401C42.7639 7.68252 42.7581 7.62157 42.4483 7.32906H42.4503ZM39.7537 2.42292C39.4217 2.36197 37.1477 2.80346 36.8376 2.91956C36.5224 3.03534 35.4987 4.01766 35.4599 4.31017C35.4211 4.60267 37.8723 6.19226 38.3375 6.31932C38.7857 6.4351 39.3612 6.65021 40.1857 6.31932C41.0929 5.9549 41.5026 5.70658 41.9895 5.31958C42.4765 4.92775 43.4833 4.19375 43.6605 3.96187C43.837 3.72516 40.0858 2.47774 39.7537 2.42292ZM48.4076 3.74741C48.1586 3.57617 47.9759 3.51005 47.5223 3.61487C47.0632 3.71968 44.7721 4.05636 44.3572 4.21632C43.9421 4.37112 42.9133 5.11028 42.5201 5.51341C42.1321 5.9162 42.039 6.12034 42.2614 6.42962C42.3002 6.4738 42.9032 7.053 43.2243 7.053C43.5509 7.05881 46.4003 6.30255 46.8983 6.17581C47.439 6.02391 47.9498 5.78126 48.4089 5.45826C48.9013 5.12157 49.1612 4.83455 49.2388 4.68007C49.3206 4.5256 48.6565 3.91285 48.4076 3.74741ZM51.6224 6.86563C51.1908 6.72212 48.7726 6.13711 48.5508 6.13711C48.329 6.13711 46.5982 6.64343 46.0615 6.83693C45.5303 7.03043 43.9146 7.71993 44.0585 7.83667C44.2024 7.95342 44.9991 8.23399 44.9991 8.23399C44.9991 8.23399 45.7404 8.45458 46.4434 8.65904H46.4488C46.9015 8.65904 47.456 8.67549 47.9426 8.71967C48.2223 8.74321 48.6801 8.80319 49.2191 8.90317C49.3063 8.9197 49.396 8.91744 49.4822 8.89652C49.5684 8.87561 49.6492 8.83653 49.719 8.78191C50.1913 8.4091 51.2661 7.56029 51.4119 7.44452C51.6887 7.22393 52.054 7.00366 51.6224 6.86563ZM56.9728 8.16239C56.4419 8.02985 53.9012 7.78733 53.144 7.74863C52.3916 7.70445 51.6499 7.82603 51.3511 8.04662C51.2195 8.13917 50.8791 8.42426 50.5328 8.71935C50.4921 8.75405 50.4617 8.79917 50.4448 8.84985C50.4279 8.90052 50.4252 8.95483 50.437 9.00692C50.4488 9.059 50.4746 9.1069 50.5116 9.14545C50.5487 9.18399 50.5956 9.21173 50.6472 9.22567C52.0576 9.60589 53.4169 10.0738 53.6037 11.5844C53.6117 11.6696 53.6514 11.7488 53.7149 11.8063C53.7785 11.8638 53.8613 11.8956 53.9471 11.8953C54.4214 11.8834 54.8169 11.8398 54.9258 11.7221C55.2246 11.3967 57.128 9.16149 57.3272 8.8248C57.5202 8.48812 57.5095 8.28817 56.9728 8.16239ZM62.4839 5.98264C62.2459 5.77269 60.3703 4.9284 60.1378 4.77392C59.8999 4.61267 59.4408 4.73522 59.1475 4.82358C58.8542 4.91743 53.9242 5.76173 53.5756 5.83913C53.5756 5.83913 52.6237 6.03262 52.4414 6.13711C52.259 6.2416 52.506 6.68342 52.6903 6.8766C52.8746 7.06977 54.0292 7.42291 55.136 7.51127C56.2424 7.60512 58.0518 7.74315 58.3951 7.73702C58.7324 7.73122 61.3607 6.72148 62.0138 6.48412C62.6611 6.25289 62.7219 6.18678 62.4839 5.98264ZM58.8542 3.89092C58.4339 3.75838 52.1536 2.61577 51.3624 2.4613C50.5654 2.30682 50.1506 2.32875 49.697 2.62706C49.2375 2.93053 48.7173 3.28914 48.7949 3.4333C48.878 3.57681 51.0634 5.1664 51.4397 5.3815C51.4397 5.3815 51.8992 5.76237 52.3803 5.69626C52.8614 5.63015 57.9522 4.61428 58.561 4.44884C59.175 4.27727 59.2749 4.01766 58.8542 3.89092ZM51.0414 5.7011C50.7316 5.49696 49.9569 4.95613 49.8241 4.98354C49.6857 5.01128 49.2485 5.37538 49.2485 5.37538C49.0717 5.50792 48.6788 5.73432 48.9443 5.78398C49.2097 5.82784 50.6928 6.03779 51.0414 6.04198C51.3954 6.05423 51.3569 5.91072 51.0414 5.7011ZM48.7341 1.56733C48.092 1.51219 45.475 1.29128 44.916 1.27483C44.3572 1.2529 43.4057 1.36868 43.0015 1.52315C42.5977 1.6844 40.982 2.21878 41.1977 2.30682C41.1977 2.30682 43.6159 3.27818 44.0475 3.43266C44.4791 3.5939 45.1817 3.51005 46.0845 3.33881C46.9807 3.1624 48.2533 2.9086 48.6019 2.7538C48.9559 2.59932 49.3821 2.04753 49.4597 1.86532C49.5418 1.68311 49.3704 1.617 48.7341 1.56733Z" fill="url(#paint0_linear_275_17160)"/>
<path d="M0 51.9409H0.429378C0.98356 51.9409 1.24675 51.5817 1.24675 50.8632V44.2729C1.24675 43.5544 0.98356 43.1816 0.429378 43.1816H0V42.7256H4.52948C6.55189 42.7256 7.63342 43.9553 7.63342 45.1017C7.63342 45.9586 6.98256 46.7736 5.84672 47.2018C7.37023 47.506 8.32599 48.5973 8.32599 49.7854C8.32599 51.1534 7.07956 52.3976 4.72477 52.3976H0V51.9409ZM4.03091 47.0638C5.19489 47.0638 5.69281 46.1244 5.69281 45.1985C5.69281 44.19 5.12505 43.1816 4.10011 43.1816H3.73992C3.32445 43.1816 3.13045 43.4441 3.13045 43.9827V47.0638H4.03091ZM3.13045 50.808C3.13045 51.5539 3.39364 51.9409 3.94782 51.9409H4.3772C5.66533 51.9409 6.3857 50.946 6.3857 49.758C6.3857 48.5834 5.63752 47.5472 4.43249 47.5472H3.13045V50.808Z" fill="white"/>
<path d="M12.189 47.8236V50.8631C12.189 51.5817 12.4522 51.9409 12.9922 51.9409H13.3802V52.3966H9.05859V51.9409H9.48797C10.0418 51.9409 10.305 51.5817 10.305 50.8631V44.2729C10.305 43.5544 10.0418 43.1816 9.48797 43.1816H9.05859V42.7256H13.6848C15.7903 42.7256 16.8857 44.2868 16.8857 45.8216C16.8857 46.9961 16.1931 48.1564 15.0573 48.5712L16.8162 50.9751C17.2873 51.6242 17.7997 51.9425 18.2847 51.9425H18.6446V52.3982H14.323V51.9425H14.7246C15.2649 51.9425 15.2509 51.5694 14.8216 50.9751L13.062 48.5283C12.743 48.3765 12.452 48.1416 12.189 47.8236ZM13.4772 48.0861C14.3912 48.0861 14.9593 46.9948 14.9593 45.8609C14.9593 44.5345 14.2803 43.1806 13.0339 43.1806H12.7985C12.3966 43.1806 12.189 43.4983 12.189 44.0923V47.1596C12.4383 47.7269 12.9508 48.0861 13.4772 48.0861Z" fill="white"/>
<path d="M23.6024 42.5459C26.4697 42.5459 28.7967 44.7011 28.7967 47.561C28.7967 50.4071 26.4687 52.5762 23.6024 52.5762C20.7362 52.5762 18.4082 50.4064 18.4082 47.561C18.4082 44.7011 20.7355 42.5459 23.6024 42.5459ZM24.0043 51.9544C25.791 51.9544 26.7468 50.1723 26.7468 48.2241C26.7468 45.8341 25.3203 43.1677 23.2009 43.1677C21.4142 43.1677 20.4584 44.9498 20.4584 46.9119C20.4584 49.3019 21.8714 51.9544 24.0043 51.9544Z" fill="white"/>
<path d="M30.8758 50.6143C30.5157 51.4985 30.6127 51.9407 31.6651 51.9407H31.8869V52.3964H28.4102V51.9407H28.7703C29.2828 51.9407 29.6291 51.6088 29.9062 50.9596L33.0919 43.1675C33.2442 42.7944 33.4382 42.5596 33.7292 42.5596C34.0616 42.5596 34.2278 42.7944 34.394 43.1675L37.7462 50.9596C38.0372 51.6088 38.5222 51.9407 39.1042 51.9407H39.2982V52.3964H34.5741V51.9407H34.8094C35.7099 51.9407 35.9314 51.5676 35.6546 50.8764L35.0587 49.3843C34.9617 49.1634 34.7955 49.0529 34.5602 49.0527H31.873C31.6237 49.0527 31.4575 49.1633 31.3605 49.3981L30.8758 50.6143ZM34.3248 48.3345C34.5323 48.3345 34.588 48.2378 34.5049 48.0443L33.2028 44.7977L31.9147 48.0307C31.8316 48.2378 31.9008 48.3345 32.1223 48.3345H34.3248Z" fill="white"/>
<path d="M39.7695 43.1821V42.7261H44.6036C48.1498 42.7261 49.8117 45.2128 49.8117 47.6722C49.8117 50.0622 48.2465 52.3971 44.6867 52.3971H39.7695V51.9414H40.1989C40.7531 51.9414 41.0163 51.5822 41.0163 50.8636V44.2724C41.0163 43.5539 40.7531 43.1811 40.1989 43.1811L39.7695 43.1821ZM44.2851 51.9414C46.6952 51.9414 47.8449 49.8826 47.8449 47.7551C47.8449 45.5031 46.5568 43.1821 44.1467 43.1821H43.6204C43.1354 43.1821 42.9 43.4997 42.9 44.1076V51.0284C42.9 51.6363 43.1354 51.9405 43.6204 51.9405L44.2851 51.9414Z" fill="white"/>
<path d="M56.3068 42.5736L56.9162 44.8118H56.5008L56.3899 44.6044C55.8357 43.5269 54.7276 43.1677 53.8411 43.1677C52.7052 43.1677 52.0683 43.7617 52.0683 44.4525C52.0683 46.4558 57.3731 46.0276 57.3731 49.4538C57.3731 51.1256 56.1121 52.4656 54.1182 52.4656C53.0101 52.4656 51.9988 52.0512 51.5962 52.0512C51.3883 52.0512 51.3191 52.1479 51.1529 52.4382H50.8076V49.3709H51.2648C51.528 50.7941 52.4698 51.8441 54.0351 51.8441C55.4063 51.8441 56.1267 51.0427 56.1267 50.1862C56.1267 47.8787 50.8215 48.307 50.8215 45.1571C50.8215 43.734 51.9021 42.5449 53.7441 42.5449C54.5892 42.5449 55.2262 42.7936 55.642 42.7936C55.8082 42.7936 55.8082 42.7523 55.988 42.5727L56.3068 42.5736Z" fill="white"/>
<path d="M63.7451 44.3281V50.8631C63.7451 51.5817 64.0361 51.9409 64.6734 51.9409H65.1028V52.3966H60.5041V51.9409H60.9335C61.5704 51.9409 61.8614 51.5817 61.8614 50.8631V44.3281C61.8614 43.6237 61.5982 43.2638 61.044 43.2638H60.5316C59.5205 43.2638 58.9796 43.5676 58.5095 44.5216L58.3986 44.7428H57.9404L58.439 42.7256H67.1656L67.6642 44.7428H67.207L67.0964 44.5216C66.6253 43.5683 66.085 43.2638 65.074 43.2638H64.5615C64.0083 43.2645 63.7451 43.6237 63.7451 44.3281Z" fill="white"/>
<path d="M73.3303 42.5459C76.1976 42.5459 78.5245 44.7011 78.5245 47.561C78.5245 50.4071 76.1966 52.5762 73.3303 52.5762C70.464 52.5762 68.1357 50.4071 68.1357 47.561C68.1357 44.7011 70.463 42.5459 73.3303 42.5459ZM73.7319 51.9544C75.5186 51.9544 76.4747 50.1723 76.4747 48.2241C76.4747 45.8341 75.0478 43.1677 72.9284 43.1677C71.1417 43.1677 70.186 44.9498 70.186 46.9119C70.186 49.3019 71.5989 51.9544 73.7319 51.9544Z" fill="white"/>
<path d="M79.3834 43.1826V42.7266H81.669L87.4866 49.5516V44.3835C87.4866 43.4854 87.0851 43.1816 86.5448 43.1816H86.1293V42.7256H89.5643V43.1826H89.024C88.4702 43.1826 88.207 43.5415 88.207 44.26V52.3976H87.528L81.4055 45.3652V50.5877C81.4055 51.4859 81.8766 51.9422 82.4861 51.9422H82.9009V52.3979H79.3281V51.9422H79.7575C80.3948 51.9422 80.6854 51.583 80.6854 50.8644V44.5493C80.6854 43.6786 80.2839 43.1816 79.5774 43.1816L79.3834 43.1826Z" fill="white"/>
<path d="M96.4624 46.0966H96.8918V48.9153H96.4624V48.7769C96.4624 48.1413 96.1297 47.8094 95.5067 47.8094H93.3873V50.849C93.3873 51.5536 93.6505 51.9132 94.1907 51.9132H94.7307C96.3515 51.9132 96.9471 51.623 97.4318 50.6555L97.5427 50.4346H98.0002L97.446 52.3963H90.2568V51.9406H90.6862C91.2404 51.9406 91.5036 51.5675 91.5036 50.849V44.2729C91.5036 43.5544 91.2404 43.1816 90.6862 43.1816H90.2568V42.7256H97.1686L97.7228 44.6873H97.2656L97.155 44.4664C96.67 43.4989 96.0745 43.2087 94.4539 43.2087H94.1907C93.6505 43.2087 93.3873 43.5267 93.3873 44.162V47.2015H95.5067C96.1297 47.2015 96.4624 46.87 96.4624 46.234V46.0966Z" fill="white"/>
<path d="M13.7002 66.8535V58.3174H14.556V66.1586H18.6028V66.8535H13.7002Z" fill="white"/>
<path d="M19.9238 66.8535L22.9308 58.3174H24.1529L27.1124 66.8535H26.207L23.5558 59.0246H23.5192L20.8285 66.8535H19.9238ZM21.3908 64.2316L21.6475 63.5244H25.3887L25.6454 64.2316H21.3908Z" fill="white"/>
<path d="M28.8232 66.8535V58.3174H30.0461L34.3738 65.8293H34.4107V58.3174H35.2662V66.8535H34.0805L29.7156 59.2929H29.6788V66.8535H28.8232Z" fill="white"/>
<path d="M37.4795 66.8535V58.3174H40.0105C41.021 58.3174 41.8502 58.4881 42.4982 58.8295C43.1461 59.1709 43.627 59.6627 43.9409 60.3049C44.2545 60.9473 44.4114 61.7156 44.4116 62.6098C44.4116 63.4881 44.2547 64.2441 43.9409 64.8779C43.627 65.5117 43.1461 65.9996 42.4982 66.3414C41.8502 66.6826 41.021 66.8533 40.0105 66.8535H37.4795ZM38.3353 66.1463H40.0105C40.8742 66.1463 41.5629 66.004 42.0765 65.7193C42.5756 65.4508 42.968 65.0207 43.1891 64.5C43.417 63.9717 43.5311 63.3417 43.5315 62.6098C43.5315 61.87 43.4174 61.2319 43.1891 60.6955C42.9698 60.1689 42.5775 59.7324 42.0765 59.4577C41.5631 59.169 40.8744 59.0246 40.0105 59.0246H38.3353V66.1463Z" fill="white"/>
<path d="M49.2162 67.0002C48.5886 67.0002 48.0445 66.8864 47.5841 66.6587C47.1237 66.431 46.7712 66.1119 46.5268 65.7015C46.2824 65.2909 46.1602 64.8213 46.1602 64.2928H47.0525C47.0492 64.6374 47.1333 64.9772 47.297 65.2807C47.4651 65.5868 47.7175 65.8386 48.0245 66.0063C48.3465 66.189 48.7439 66.2805 49.2166 66.2807C49.6401 66.2807 49.9968 66.2096 50.2865 66.0672C50.5762 65.9249 50.7982 65.7359 50.9525 65.5003C51.1073 65.265 51.1882 64.989 51.185 64.7076C51.185 64.3421 51.1095 64.0494 50.9586 63.8294C50.8007 63.6038 50.5885 63.4214 50.3414 63.2989C50.055 63.1544 49.7563 63.0356 49.4487 62.9442C49.1148 62.8427 48.7644 62.7309 48.3976 62.6088C47.7373 62.3813 47.2544 62.1008 46.9488 61.7674C46.6431 61.4339 46.4862 61.0071 46.478 60.4871C46.478 60.0401 46.5819 59.6417 46.7897 59.2919C46.9975 58.9421 47.3011 58.6678 47.7005 58.4689C48.0999 58.2696 48.5727 58.1699 49.1189 58.1699C49.6565 58.1699 50.1231 58.2716 50.5186 58.475C50.9141 58.6784 51.2198 58.9568 51.4356 59.3103C51.6511 59.6637 51.7589 60.0641 51.7589 60.5112H50.8788C50.8753 60.2354 50.8009 59.965 50.6629 59.7259C50.5248 59.4868 50.3277 59.287 50.0902 59.1455C49.8251 58.9829 49.4847 58.9017 49.0691 58.9017C48.7348 58.9017 48.4394 58.9606 48.1829 59.0784C47.9362 59.1879 47.7261 59.3656 47.5776 59.5905C47.4308 59.8143 47.3575 60.0806 47.3578 60.3893C47.3578 60.6822 47.4209 60.92 47.5472 61.1027C47.6863 61.2967 47.8709 61.4537 48.0849 61.56C48.3499 61.6953 48.6261 61.8075 48.9104 61.8954C49.2281 61.9973 49.5826 62.1132 49.9738 62.2431C50.3525 62.3679 50.7156 62.5356 51.056 62.7429C51.3604 62.9286 51.6143 63.1861 51.7954 63.4927C51.9748 63.7978 52.0644 64.1861 52.0644 64.6576C52.0632 65.0526 51.9555 65.44 51.7527 65.7792C51.5447 66.1372 51.2289 66.4299 50.8054 66.6574C50.3818 66.8849 49.8521 66.9991 49.2162 67.0002Z" fill="white"/>
<path d="M57.8722 67.0001C57.049 67.0001 56.3318 66.8151 55.7205 66.4451C55.1092 66.075 54.6385 65.559 54.3085 64.8971C53.9783 64.2347 53.8133 63.4643 53.8135 62.5861C53.8137 61.7078 53.9807 60.9376 54.3146 60.2754C54.6487 59.613 55.1194 59.097 55.7266 58.7274C56.3338 58.3578 57.049 58.1728 57.8722 58.1724C58.8422 58.1724 59.6246 58.3981 60.2195 58.8496C60.8145 59.3011 61.2017 59.9373 61.3813 60.7581H60.4275C60.3052 60.2054 60.0302 59.7602 59.6023 59.4227C59.1745 59.0851 58.5977 58.9165 57.8722 58.9167C57.2365 58.9167 56.6803 59.063 56.2035 59.3556C55.7267 59.6482 55.3559 60.071 55.0909 60.624C54.8258 61.1767 54.6934 61.8311 54.6936 62.587C54.6936 63.3513 54.826 64.0078 55.0909 64.5565C55.3559 65.1052 55.7267 65.5259 56.2035 65.8188C56.6805 66.1112 57.2368 66.2575 57.8722 66.2577C58.5977 66.2577 59.1745 66.0911 59.6023 65.7578C60.0302 65.4246 60.3052 64.9855 60.4275 64.4407H61.3813C61.2017 65.2457 60.8145 65.8737 60.2195 66.3248C59.6246 66.7758 58.8422 67.0009 57.8722 67.0001Z" fill="white"/>
<path d="M62.6768 66.8535L65.6837 58.3174H66.9062L69.8656 66.8535H68.9603L66.3071 59.0246H66.2705L63.5814 66.8535H62.6768ZM64.144 64.2316L64.4007 63.5244H68.1416L68.3983 64.2316H64.144Z" fill="white"/>
<path d="M71.5771 66.8535V58.3174H74.2789C74.9391 58.3174 75.4832 58.4249 75.911 58.6399C76.3389 58.8549 76.6547 59.1451 76.8584 59.5106C77.0621 59.8761 77.164 60.2947 77.1642 60.7664C77.17 61.1983 77.0647 61.6244 76.8584 62.0042C76.6547 62.3744 76.3409 62.6671 75.9172 62.8823C75.4934 63.0975 74.9473 63.205 74.2789 63.2048H72.4327V66.8535H71.5771ZM72.4327 62.4757H74.2789C75.004 62.4757 75.5195 62.3212 75.8253 62.0122C76.1312 61.7033 76.284 61.2887 76.2838 60.7684C76.2838 60.2156 76.131 59.7888 75.8253 59.488C75.5197 59.1873 75.0042 59.0368 74.2789 59.0365H72.4327V62.4757Z" fill="white"/>
<path d="M79.0225 66.8535V58.3174H84.2186V59.0246H79.8783V62.2073H83.8517V62.9146H79.8783V66.1463H84.2186V66.8535H79.0225Z" fill="white"/>
</g>
<defs>
<linearGradient id="paint0_linear_275_17160" x1="49.0054" y1="91.4179" x2="49.0054" y2="-24.4372" gradientUnits="userSpaceOnUse">
<stop stop-color="#054F41"/>
<stop offset="0.28" stop-color="#065546"/>
<stop offset="0.67" stop-color="#096855"/>
<stop offset="1" stop-color="#0D7C66"/>
</linearGradient>
<clipPath id="clip0_275_17160">
<rect width="98" height="67" fill="white"/>
</clipPath>
</defs>
</svg>
