<svg width="19" height="19" viewBox="0 0 19 19" fill="none" xmlns="http://www.w3.org/2000/svg">
<path d="M18.8123 7.71942C18.9341 8.35419 19 9.02016 19 9.7141C19 15.1408 15.2924 19 9.69433 19C4.33884 19 0 14.7481 0 9.5C0 4.25187 4.33884 0 9.69433 0C12.3117 0 14.4987 0.943545 16.1773 2.47559L13.4447 5.15345V5.147C12.427 4.197 11.1369 3.70963 9.69433 3.70963C6.49509 3.70963 3.89639 6.35736 3.89639 9.49247C3.89639 12.6265 6.49619 15.2818 9.69433 15.2818C12.5971 15.2818 14.5711 13.655 14.9784 11.4226H9.69433V7.71727L18.8123 7.71942Z" fill="#F5F6EF"/>
</svg>
