<svg width="24" height="18" viewBox="0 0 24 18" fill="none" xmlns="http://www.w3.org/2000/svg">
<path d="M9.51992 17.66C8.72454 17.6593 7.96199 17.3427 7.39992 16.78L1.74992 11.12C1.18812 10.5575 0.872559 9.79498 0.872559 8.99997C0.872559 8.20497 1.18812 7.44247 1.74992 6.87997L2.44992 6.16997C2.72863 5.89029 3.05981 5.66838 3.42446 5.51697C3.78912 5.36555 4.18008 5.28761 4.57492 5.28761C4.96976 5.28761 5.36072 5.36555 5.72538 5.51697C6.09003 5.66838 6.42121 5.89029 6.69992 6.16997L9.51992 8.99997L17.2999 1.21997C17.8739 0.676302 18.6344 0.373291 19.4249 0.373291C20.2155 0.373291 20.976 0.676302 21.5499 1.21997L22.2499 1.92997C22.8117 2.49248 23.1273 3.25497 23.1273 4.04997C23.1273 4.84498 22.8117 5.60747 22.2499 6.16997L11.6499 16.78C11.3704 17.0598 11.0383 17.2816 10.6728 17.4327C10.3072 17.5837 9.91544 17.6609 9.51992 17.66ZM4.57992 7.28997C4.44761 7.29052 4.31673 7.31732 4.19485 7.36882C4.07298 7.42031 3.96253 7.49549 3.86992 7.58997L3.15992 8.28997C3.06619 8.38294 2.9918 8.49354 2.94103 8.6154C2.89026 8.73726 2.86412 8.86796 2.86412 8.99997C2.86412 9.13198 2.89026 9.26269 2.94103 9.38455C2.9918 9.50641 3.06619 9.61701 3.15992 9.70997L8.81992 15.36C9.00728 15.5462 9.26073 15.6508 9.52492 15.6508C9.7891 15.6508 10.0426 15.5462 10.2299 15.36L20.8399 4.75997C20.9336 4.66701 21.008 4.55641 21.0588 4.43455C21.1096 4.31269 21.1357 4.18199 21.1357 4.04997C21.1357 3.91796 21.1096 3.78726 21.0588 3.6654C21.008 3.54354 20.9336 3.43294 20.8399 3.33997L20.1299 2.63997C19.9426 2.45372 19.6891 2.34918 19.4249 2.34918C19.1607 2.34918 18.9073 2.45372 18.7199 2.63997L10.2299 11.12C10.0426 11.3062 9.7891 11.4108 9.52492 11.4108C9.26073 11.4108 9.00728 11.3062 8.81992 11.12L5.27992 7.58997C5.09529 7.40156 4.84369 7.29373 4.57992 7.28997Z" fill="#054F41"/>
</svg>
