<svg width="176" height="58" viewBox="0 0 176 58" fill="none" xmlns="http://www.w3.org/2000/svg">
<path fill-rule="evenodd" clip-rule="evenodd" d="M154.044 40.8733L151.809 33.1094H143.207L150.635 57.9968H157.552L165.295 33.1094H156.363L154.044 40.8733ZM166.325 0L158.826 24.9067H167.848L175.611 0.00375924L166.325 0ZM142.296 0H134.993L127.832 24.9067H136.499L138.642 17.8329L140.757 24.9067H149.458L142.296 0ZM110.995 0.00107348H101.703L109.47 24.9067H118.5L110.995 0.00107348ZM123.262 40.8422L120.947 33.1094H112.028L119.782 57.9984L126.639 57.9968L134.053 33.1094H125.472L123.262 40.8422ZM20.4981 0.00107348H0V24.8992H8.75063V8.28326H20.4981C31.7798 8.28326 40.0609 14.9323 41.8612 24.8992H50.9611C49.0659 10.2526 36.8393 0.00107348 20.4981 0.00107348ZM20.4981 49.7183H8.75063V33.1019H0V58H20.4981C29.1613 58 37.0233 55.0254 42.6333 49.6244C47.1911 45.2379 50.0623 39.4771 50.9332 33.1019H41.8843C40.1318 43.0634 31.8276 49.7183 20.4981 49.7183ZM56.0356 0.000536742H98.1881V8.28326H64.7841V24.8992H94.1063V33.1024H64.7841V58H56.0356V33.1024H64.7841V24.8992H56.0356V0.000536742Z" fill="#FF5000"/>
</svg>
