<svg width="40" height="40" viewBox="0 0 40 40" fill="none" xmlns="http://www.w3.org/2000/svg">
<rect width="40" height="40" rx="20" fill="#054F41"/>
<path d="M29.7388 24.4138C29.5716 25.6841 28.9477 26.8502 27.9837 27.6942C27.0196 28.5382 25.7813 29.0023 24.5 29.0001C17.0563 29.0001 11 22.9438 11 15.5001C10.9977 14.2188 11.4619 12.9805 12.3059 12.0164C13.1499 11.0523 14.3159 10.4285 15.5863 10.2613C15.9075 10.2221 16.2328 10.2878 16.5136 10.4487C16.7944 10.6095 17.0157 10.8569 17.1444 11.1538L19.1244 15.5741V15.5854C19.2229 15.8127 19.2636 16.0608 19.2428 16.3077C19.222 16.5545 19.1404 16.7924 19.0053 17.0001C18.9884 17.0254 18.9706 17.0488 18.9519 17.0722L17 19.386C17.7022 20.8129 19.1947 22.2922 20.6403 22.9963L22.9222 21.0547C22.9446 21.0359 22.9681 21.0184 22.9925 21.0022C23.2 20.8639 23.4387 20.7794 23.687 20.7565C23.9353 20.7336 24.1854 20.7729 24.4147 20.871L24.4269 20.8766L28.8434 22.8557C29.1409 22.9839 29.3889 23.205 29.5503 23.4858C29.7116 23.7667 29.7778 24.0922 29.7388 24.4138Z" fill="white"/>
</svg>
